<svg width="85" height="48" viewBox="0 0 85 48" fill="none" xmlns="http://www.w3.org/2000/svg">
<path fill-rule="evenodd" clip-rule="evenodd" d="M70.4036 2.20939L63.3301 14.4607C75.476 21.0672 83.7834 33.3639 85 47.8923H0C1.21526 33.3639 9.5233 21.0672 21.6699 14.4607L14.5958 2.20739C14.3329 1.75201 14.333 1.191 14.5959 0.735691C14.8589 0.280379 15.3448 -6.52691e-05 15.8706 1.13943e-08C16.3964 6.53147e-05 16.8822 0.28063 17.145 0.736008L24.3072 13.142C29.7845 10.6442 35.9355 9.25015 42.4993 9.25015C49.0632 9.25015 55.2148 10.6422 60.6922 13.142L67.855 0.736008C68.1182 0.280749 68.6043 0.000485216 69.1301 0.000789043C69.656 0.00109287 70.1417 0.281918 70.4044 0.737481C70.6671 1.19304 70.6668 1.75413 70.4036 2.20939ZM22.9392 35.7809C20.9843 35.7812 19.3992 34.1967 19.3988 32.2418C19.3985 30.2869 20.983 28.7018 22.9379 28.7014C24.8928 28.7011 26.4779 30.2855 26.4783 32.2405C26.4764 34.1945 24.8932 35.7783 22.9392 35.7809ZM62.0609 35.7809C60.106 35.7812 58.5209 34.1967 58.5205 32.2418C58.5201 30.2869 60.1046 28.7018 62.0596 28.7014C64.0145 28.7011 65.5996 30.2855 65.6 32.2405C65.5977 34.1943 64.0148 35.7779 62.0609 35.7809Z" fill="white"/>
</svg>
