<svg width="83" height="83" viewBox="0 0 83 83" fill="none" xmlns="http://www.w3.org/2000/svg">
<path fill-rule="evenodd" clip-rule="evenodd" d="M41.5594 0C19.0814 0 0.859375 18.4682 0.859375 41.2499C0.859375 64.0317 19.0814 82.5 41.5594 82.5C64.0374 82.5 82.2594 64.0317 82.2594 41.2499C82.2594 18.4682 64.0374 0 41.5594 0ZM41.5594 2.47502C46.7253 2.47502 51.7353 3.49992 56.4504 5.52113C58.7169 6.49269 60.903 7.69542 62.9482 9.09565C64.9745 10.4833 66.88 12.0767 68.612 13.8319C70.3438 15.5872 71.916 17.5186 73.285 19.5723C74.6666 21.6451 75.8533 23.8607 76.812 26.1578C78.8063 30.9366 79.8174 36.0144 79.8174 41.25C79.8174 46.4857 78.8063 51.5634 76.812 56.3423C75.8533 58.6393 74.6666 60.8549 73.285 62.9277C71.916 64.9815 70.3438 66.9127 68.612 68.668C66.88 70.4234 64.9745 72.0169 62.9482 73.4044C60.903 74.8046 58.7169 76.0074 56.4504 76.9788C51.7353 79.0001 46.7253 80.025 41.5594 80.025C36.3935 80.025 31.3834 79.0001 26.6684 76.9788C24.4019 76.0074 22.2158 74.8046 20.1706 73.4044C18.1442 72.0169 16.2388 70.4234 14.5068 68.668C12.775 66.9127 11.2027 64.9815 9.83375 62.9277C8.45219 60.8549 7.26549 58.6393 6.30676 56.3423C4.3125 51.5634 3.30139 46.4857 3.30139 41.25C3.30139 36.0144 4.3125 30.9366 6.30676 26.1578C7.26549 23.8607 8.45219 21.6451 9.83375 19.5723C11.2027 17.5186 12.775 15.5872 14.5068 13.8319C16.2388 12.0767 18.1442 10.4833 20.1706 9.09565C22.2158 7.69542 24.4019 6.49269 26.6684 5.52113C31.3834 3.49992 36.3935 2.47502 41.5594 2.47502ZM61.6601 30.0352C62.9501 32.3242 64.4562 35.2654 64.4562 39.5151C64.4562 42.4565 63.5448 45.9356 61.9902 50.8462L58.4913 62.083L46.2342 25.1322C48.276 25.0237 50.1156 24.8056 50.1156 24.8056C51.9431 24.5867 51.7281 21.8644 49.8998 21.9729C49.8998 21.9729 44.406 22.4098 40.8592 22.4098C37.5266 22.4098 31.9267 21.9729 31.9267 21.9729C30.0976 21.8644 29.8833 24.6963 31.7116 24.8056C31.7116 24.8056 33.4416 25.0237 35.269 25.1322L40.5529 39.8058L33.1294 62.3666L20.7791 25.1322C22.8225 25.0237 24.6604 24.8056 24.6604 24.8056C26.4871 24.5867 26.2709 21.8644 24.4437 21.9729C24.4437 21.9729 18.9508 22.4098 15.4039 22.4098C14.7678 22.4098 14.0175 22.3938 13.2211 22.3681C19.2858 13.0372 29.7098 6.87502 41.5595 6.87502C50.3893 6.87502 58.4288 10.2963 64.4631 15.9C64.4152 15.8969 64.3676 15.8928 64.32 15.8888L64.3199 15.8888C64.2225 15.8805 64.1251 15.8721 64.0241 15.8721C60.6923 15.8721 58.3285 18.8136 58.3285 21.9729C58.3285 24.584 59.6983 26.8246 61.2592 29.3778C61.3917 29.5946 61.5256 29.8135 61.6601 30.0352ZM71.3224 24.7581C71.4681 25.8528 71.5505 27.0273 71.5505 28.2926C71.5505 31.7794 70.906 35.7007 68.9706 40.6044L58.6117 70.96C68.6951 65.0018 75.4762 53.93 75.4762 41.2486C75.4762 35.2722 73.9693 29.6538 71.3224 24.7581ZM42.1553 44.2554L31.9777 74.2242C35.0171 75.1305 38.2305 75.6248 41.5595 75.6248C45.5092 75.6248 49.2981 74.934 52.8232 73.6759C52.7324 73.5287 52.6488 73.3727 52.5797 73.2021L42.1553 44.2554ZM7.64285 41.2487C7.64285 54.8544 15.4438 66.6135 26.7587 72.1848L10.5796 27.2594C8.69779 31.5341 7.64285 36.2651 7.64285 41.2487Z" fill="#16171A"/>
</svg>
