<svg width="78" height="87" viewBox="0 0 78 87" fill="none" xmlns="http://www.w3.org/2000/svg">
<path fill-rule="evenodd" clip-rule="evenodd" d="M52.9624 10.6497C52.9624 10.6497 51.9853 10.9289 50.3802 11.4174C50.101 10.5101 49.6823 9.46328 49.1239 8.34664C47.3094 4.85713 44.5876 2.9728 41.3772 2.9728C41.1679 2.9728 40.9585 2.9728 40.6793 3.04259C40.6444 2.9728 40.5921 2.92045 40.5398 2.86811C40.4874 2.81577 40.4351 2.76343 40.4002 2.69364C39.0044 1.15825 37.1898 0.460352 35.0263 0.530143C30.8389 0.669723 26.6515 3.6707 23.3016 9.04454C20.9287 12.8132 19.1142 17.5589 18.6257 21.2578C13.8101 22.7234 10.4602 23.7703 10.3904 23.84C7.94776 24.6077 7.87797 24.6775 7.59881 26.9806C7.38944 28.7254 0.96875 77.8576 0.96875 77.8576L53.7301 87.0001V10.5799C53.4646 10.5799 53.2833 10.608 53.1506 10.6285C53.0739 10.6404 53.0135 10.6497 52.9624 10.6497ZM40.7491 14.4185C39.2858 14.8575 37.7458 15.3348 36.1794 15.8203L36.179 15.8205C34.7572 16.2612 33.3136 16.7086 31.8858 17.1403C32.7233 13.8601 34.3982 10.58 36.3524 8.41652C37.1201 7.64882 38.1669 6.74155 39.3533 6.18323C40.5398 8.69568 40.8189 12.1154 40.7491 14.4185ZM37.5388 4.01944C36.8409 3.6007 36.0034 3.39133 35.0264 3.39133C28.6057 3.53091 22.9527 13.6505 21.4173 20.3503C23.7204 19.6524 26.2328 18.8847 28.7453 18.1171C29.5828 13.8599 31.6067 9.39328 34.2587 6.53189C35.3055 5.48504 36.4222 4.57776 37.5388 4.01944ZM26.9308 41.776C27.0409 43.5386 28.9443 44.7578 31.2513 46.2355C34.7906 48.5026 39.2799 51.3782 39.7024 57.758C40.1909 66.063 35.3056 71.716 28.2568 72.1347C19.7424 72.6931 15.0665 67.6682 15.0665 67.6682L16.881 59.9913C16.881 59.9913 21.5569 63.5505 25.3256 63.2714C27.7683 63.1318 28.6755 61.1079 28.6057 59.7121C28.4526 57.1398 26.5124 55.7633 24.3299 54.215C21.5383 52.2345 18.3501 49.9727 17.9976 44.5676C17.4393 36.472 22.7434 28.3065 34.4681 27.5388C39.0045 27.2597 41.3075 28.3763 41.3075 28.3763L38.6555 38.4261C38.6555 38.4261 35.6545 37.0303 32.0952 37.3095C26.9308 37.6584 26.861 40.9385 26.9308 41.776ZM42.2846 5.97375C43.2617 8.48619 43.5408 11.4872 43.5408 13.5809C45.0763 13.0923 46.4721 12.6736 47.7283 12.3247C47.0304 10.1612 45.495 6.60186 42.2846 5.97375Z" fill="#16171A"/>
<path d="M55.3359 86.8606L77.25 81.417C77.25 81.417 67.8284 17.6986 67.7586 17.2799C67.6888 16.8611 67.3398 16.582 66.9909 16.582C66.6419 16.582 60.5004 16.4424 60.5004 16.4424C60.5004 16.4424 56.7317 12.8133 55.3359 11.4175V86.8606Z" fill="#16171A"/>
</svg>
