<svg width="83" height="83" viewBox="0 0 83 83" fill="none" xmlns="http://www.w3.org/2000/svg">
<path fill-rule="evenodd" clip-rule="evenodd" d="M41.4779 0.337413C18.6962 0.321564 0.215081 18.777 0.199229 41.5587C0.183377 64.3404 18.6388 82.8215 41.4205 82.8374C64.2022 82.8532 82.6833 64.3978 82.6992 41.6161V41.5587C82.7178 18.8114 64.2926 0.356052 41.5454 0.337413H41.4779ZM41.4779 71.5274C24.9267 71.5274 11.5092 58.11 11.5092 41.5587C11.5092 25.0075 24.9267 11.5901 41.4779 11.5901C58.0292 11.5901 71.4466 25.0075 71.4466 41.5587C71.4506 49.5029 68.2987 57.1233 62.6842 62.7435C57.0697 68.3637 49.4526 71.5234 41.5084 71.5274H41.4779ZM48.7692 57.5191C45.9299 59.1007 42.81 60.1147 39.5834 60.5045C46.7024 57.8636 53.075 52.4669 55.7733 46.2665C58.0806 41.3703 57.6671 35.6253 54.6825 31.1099L64.5573 24.8521C67.3861 28.7417 69.1834 33.2845 69.7817 38.0567H60.1366L60.0792 38.7456C59.7347 46.9554 55.7159 53.6151 48.7692 57.5191ZM61.5145 39.4918H69.8965C69.9246 39.8291 69.939 40.1664 69.953 40.497V40.4971V40.4972C69.9677 40.8417 69.982 41.1789 70.0113 41.5012C70.0006 45.9717 68.9386 50.377 66.9111 54.3613L61.2848 50.8018L60.8829 51.4908C56.5484 59.3915 48.2505 64.2998 39.2389 64.2935H39.1815C34.1753 64.295 29.2737 62.8604 25.0583 60.1599C28.563 61.4834 32.2776 62.1641 36.0239 62.1693C40.7178 62.2064 45.3429 61.0402 49.4581 58.782C56.5771 54.8206 60.9403 47.8165 61.5145 39.4918ZM39.2389 65.7862C30.2253 65.7862 21.7858 61.3081 15.7577 53.6724C20.2681 63.2848 29.7535 69.5878 40.3626 70.0223C50.9717 70.4568 60.9408 64.9505 66.2221 55.7392L61.8589 52.9835C57.1163 60.9538 48.5134 65.823 39.2389 65.7862Z" fill="white"/>
</svg>
