<svg width="70" height="83" viewBox="0 0 70 83" fill="none" xmlns="http://www.w3.org/2000/svg">
<path fill-rule="evenodd" clip-rule="evenodd" d="M52.1087 1.65025C52.1087 5.78726 50.594 9.63042 47.5874 13.2022C43.9703 17.4525 39.5845 19.894 34.8145 19.5096C34.7467 19.0122 34.724 18.4923 34.724 17.9497C34.724 13.9935 36.4422 9.74345 39.5167 6.28465C41.0539 4.52136 42.9982 3.07444 45.3492 1.89884C47.7004 0.745981 49.9386 0.113034 52.0182 0C52.0635 0.542431 52.1087 1.1076 52.1087 1.65025ZM68.024 64.2937C66.7806 67.1876 65.2885 69.8324 63.5929 72.2741C61.2645 75.5971 59.3429 77.9031 57.8735 79.1917C55.5903 81.2941 53.1485 82.3567 50.5262 82.4244C48.6499 82.4244 46.3892 81.882 43.7442 80.7967C41.0992 79.7116 38.6577 79.1917 36.4422 79.1917C34.1138 79.1917 31.6043 79.7344 28.9367 80.7967C26.2464 81.8818 24.0988 82.4472 22.4485 82.4922C19.9393 82.6052 17.4298 81.4976 14.943 79.1692C13.338 77.7675 11.3487 75.3938 8.97495 72.0253C6.42042 68.4082 4.2953 64.2487 2.64504 59.4785C0.881754 54.3242 0 49.3507 0 44.5127C0 38.9741 1.19812 34.2041 3.59457 30.2254C5.47089 27.0152 7.98016 24.4832 11.0999 22.6294C14.2423 20.7756 17.6108 19.8263 21.2504 19.7583C23.2398 19.7583 25.8623 20.3687 29.1175 21.5896C32.3503 22.8102 34.4301 23.4206 35.3572 23.4206C36.0354 23.4206 38.3411 22.6972 42.2747 21.2505C45.9824 19.9166 49.1021 19.3741 51.6791 19.5775C58.6194 20.1426 63.8417 22.8782 67.3005 27.8064C61.0837 31.5591 58.0317 36.8264 58.077 43.586C58.122 48.8533 60.0436 53.2391 63.7965 56.7204C65.492 58.3256 67.3908 59.5915 69.516 60.4733C69.0186 61.807 68.5439 63.0731 68.024 64.2937Z" fill="white"/>
</svg>
