<svg width="83" height="83" viewBox="0 0 83 83" fill="none" xmlns="http://www.w3.org/2000/svg">
<path fill-rule="evenodd" clip-rule="evenodd" d="M35.1753 21.4218C35.1753 12.9766 35.168 0.482513 35.168 0.482513C35.168 0.482513 47.3114 -2.50348 47.3114 6.38076V21.3335C47.3114 28.8148 35.168 28.9918 35.1753 21.4218ZM65.7722 8.07598C65.7722 8.07598 56.934 16.9141 50.9649 22.8866C45.6125 28.2357 54.323 36.6949 59.6153 31.4094C61.3453 29.6756 63.4202 27.6014 65.5151 25.5072C67.1095 23.9133 68.7155 22.3078 70.1898 20.8321C76.4703 14.5515 65.7722 8.07598 65.7722 8.07598ZM41.2463 32.4218C46.1136 32.4218 50.067 36.3751 50.067 41.2459C50.067 46.1205 46.1136 50.07 41.2463 50.0738C36.3717 50.0738 32.4222 46.1205 32.4222 41.2459C32.4222 36.3751 36.3717 32.4218 41.2463 32.4218ZM31.5334 59.6108C25.5575 65.5832 16.7227 74.4214 16.7227 74.4214C16.7227 74.4214 6.02798 67.9458 12.3085 61.6619L14.8246 59.1455C17.6068 56.3626 20.5546 53.4141 22.8829 51.0914C28.168 45.799 36.879 54.2583 31.5334 59.6108ZM22.8839 31.5268C16.9148 25.5543 8.07329 16.723 8.07329 16.723C8.07329 16.723 14.5488 6.02145 20.84 12.3093C22.5664 14.0393 24.475 15.9488 26.3343 17.809L26.3379 17.8126L26.353 17.8278C28.1534 19.6291 29.9069 21.3835 31.4033 22.8832C36.6922 28.1721 28.2364 36.8759 22.8839 31.5268ZM74.4153 65.7751C74.4153 65.7751 65.5839 56.937 59.6081 50.9679C54.2624 45.6155 45.7997 54.326 51.0887 59.6149C54.1348 62.665 58.2478 66.7779 61.6626 70.1855C67.9431 76.4733 74.4153 65.7751 74.4153 65.7751ZM21.4251 47.3151H0.482434C0.482434 47.3151 -2.50404 35.1791 6.38407 35.1791H21.333C28.8147 35.1791 28.9883 47.3151 21.4251 47.3151ZM47.3127 82.0192V61.0693C47.3127 53.5061 35.1727 53.6797 35.1766 61.1581C35.1727 65.4762 35.1727 71.2925 35.1727 76.1103C35.1727 85.0018 47.3127 82.0192 47.3127 82.0192ZM82.0157 35.1788H61.0696C53.5064 35.1788 53.6767 47.3149 61.1584 47.3149H76.1141C85.0022 47.3149 82.0157 35.1788 82.0157 35.1788Z" fill="white"/>
</svg>
