<svg width="87" height="77" viewBox="0 0 87 77" fill="none" xmlns="http://www.w3.org/2000/svg">
<path fill-rule="evenodd" clip-rule="evenodd" d="M70.9006 24.8599C70.0119 24.5521 69.0911 24.2608 68.1429 23.9854C68.2988 23.3454 68.4418 22.7136 68.569 22.0926C70.6564 11.8956 69.2916 3.68073 64.6309 0.976059C60.162 -1.61736 52.8534 1.0867 45.472 7.55114C44.7622 8.17276 44.0504 8.8309 43.3389 9.52065C42.8648 9.06429 42.3915 8.62328 41.9194 8.20146C34.1836 1.28925 26.4295 -1.62365 21.7735 1.08884C17.3088 3.68978 15.9866 11.4125 17.8657 21.0763C18.0471 22.0098 18.2592 22.963 18.4991 23.9322C17.4016 24.2457 16.3422 24.5799 15.3285 24.9354C6.25899 28.1174 0.466797 33.1045 0.466797 38.2774C0.466797 43.62 6.68473 48.9787 16.1313 52.2279C16.8768 52.4843 17.6503 52.7268 18.4475 52.957C18.1888 54.0052 17.9637 55.0323 17.7748 56.0342C15.9831 65.5303 17.3823 73.0706 21.8351 75.6551C26.4344 78.3242 34.1534 75.5807 41.6697 68.9689C42.2638 68.4463 42.86 67.892 43.4572 67.3111C44.2314 68.0613 45.0043 68.7713 45.7731 69.4373C53.0536 75.742 60.2442 78.2878 64.6928 75.6961C69.2876 73.0193 70.7809 64.9193 68.8422 55.0643C68.6941 54.3116 68.5218 53.5427 68.3283 52.7601C68.8704 52.5988 69.4026 52.4323 69.9215 52.2592C79.7421 48.9848 86.1317 43.6913 86.1317 38.2774C86.1317 33.0858 80.1527 28.0651 70.9006 24.8599ZM64.9848 21.3494C66.7872 12.5453 65.6716 5.83134 62.803 4.16659C60.1098 2.60372 54.1988 4.79051 47.8745 10.3292C47.2199 10.9026 46.5625 11.5103 45.9043 12.1476C48.3527 14.8025 50.7919 17.8692 53.1458 21.2424C57.1864 21.6239 61.0458 22.238 64.5998 23.0632C64.7404 22.4833 64.8699 21.9111 64.9848 21.3494ZM23.6069 4.27608C20.9164 5.84339 19.8472 12.0893 21.4571 20.3691C21.6256 21.2359 21.8231 22.1225 22.046 23.0249C25.5918 22.2166 29.4484 21.6129 33.4773 21.2371C35.8266 17.9006 38.286 14.8387 40.7749 12.1492C40.3451 11.7361 39.9165 11.3368 39.4895 10.9554C32.8102 4.987 26.4729 2.60641 23.6069 4.27608ZM17.3149 48.743C13.1378 47.3062 9.6882 45.4389 7.32365 43.4013C5.19896 41.5702 4.12625 39.7523 4.12625 38.2772C4.12625 35.1381 8.77681 31.1342 16.5331 28.4128C17.4743 28.0826 18.4594 27.7714 19.4818 27.4791C20.5538 30.9881 21.96 34.6569 23.657 38.3668C21.938 42.1318 20.5119 45.8591 19.4294 49.4092C18.7005 49.1984 17.9944 48.9765 17.3149 48.743ZM68.7706 48.7637C68.3022 48.9198 67.8215 49.0706 67.3318 49.2169C66.2476 45.7629 64.7844 42.0901 62.9938 38.2955C64.7025 34.5913 66.1092 30.9655 67.163 27.5339C68.0393 27.7891 68.8898 28.0582 69.7094 28.3423C77.6367 31.0885 82.4722 35.1489 82.4722 38.2776C82.4722 41.6101 77.25 45.9363 68.7706 48.7637ZM65.2522 55.7794C66.1095 60.1371 66.2319 64.0771 65.6641 67.1571C65.1539 69.9247 64.1278 71.7699 62.8592 72.5089C60.1595 74.0814 54.3862 72.0373 48.1599 66.6455C47.4461 66.0274 46.7271 65.3674 46.0059 64.6689C48.4197 62.0123 50.8321 58.9238 53.1866 55.4938C57.3279 55.124 61.2404 54.5194 64.7885 53.694C64.9633 54.4034 65.1185 55.0991 65.2522 55.7794ZM23.6637 72.4649C24.9335 73.2018 27.0343 73.1749 29.6719 72.2375C32.6072 71.1942 35.9379 69.1199 39.2615 66.1963C39.8028 65.72 40.3472 65.2145 40.8937 64.6836C38.3924 61.9823 35.9103 58.8972 33.5399 55.5409C29.3888 55.2022 25.5049 54.6403 21.9956 53.8594C21.7549 54.8359 21.546 55.7913 21.3705 56.7213C19.8382 64.8424 20.9615 70.8965 23.6637 72.4649ZM58.4091 29.5512C57.5615 28.0778 56.6913 26.6393 55.8041 25.24C58.5374 25.5877 61.1561 26.0493 63.6153 26.6141C62.877 28.9953 61.9568 31.485 60.8735 34.0373C60.0965 32.5527 59.2746 31.0558 58.4091 29.5512ZM48.3812 20.9053C46.7186 18.676 45.0281 16.6214 43.3402 14.7811C41.6258 16.6425 39.9207 18.6944 38.2564 20.903C39.9215 20.8247 41.6052 20.7842 43.2993 20.7842C45.0095 20.7842 46.7057 20.8257 48.3812 20.9053ZM28.1747 29.577C27.3279 31.0545 26.5213 32.5433 25.7565 34.0348C24.6908 31.4914 23.7791 28.9903 23.0343 26.5754C25.4785 26.025 28.0849 25.5749 30.8007 25.2338C29.9011 26.646 29.0237 28.0951 28.1747 29.5767V29.577ZM22.9839 50.3068C25.4274 50.842 28.073 51.2689 30.879 51.584C29.9561 50.1429 29.0571 48.6652 28.1893 47.1567H28.1892C27.3372 45.6759 26.5274 44.1865 25.7606 42.6961C24.6723 45.2943 23.7405 47.8487 22.9839 50.3068ZM43.4414 62.0331C41.7069 60.1498 39.9768 58.0666 38.2872 55.8258C39.9274 55.8905 41.5997 55.9237 43.2993 55.9237C45.0454 55.9237 46.7715 55.8841 48.4704 55.808C46.8023 58.0891 45.1179 60.1756 43.4414 62.0331ZM63.785 50.1474C63.0186 47.7313 62.0534 45.1902 60.9084 42.5639C60.125 44.0836 59.2964 45.6088 58.4237 47.1316C57.5611 48.6367 56.6833 50.1 55.794 51.5182C58.6195 51.1769 61.3012 50.7177 63.785 50.1474ZM55.2538 45.2915C53.9147 47.628 52.5399 49.8585 51.1442 51.964C48.6022 52.1469 45.976 52.2411 43.2993 52.2411C40.6334 52.2411 38.0403 52.1578 35.5433 51.9947C34.0913 49.8616 32.6867 47.6245 31.3561 45.3116H31.3564C30.0294 43.0049 28.808 40.6788 27.7013 38.3658C28.8077 36.0473 30.0258 33.7186 31.3453 31.4161L31.345 31.4166C32.6679 29.1079 34.0602 26.8817 35.4987 24.762C38.0464 24.5682 40.6589 24.4671 43.2991 24.4671H43.2993C45.9514 24.4671 48.5673 24.569 51.1142 24.7645C52.5307 26.8687 53.9136 29.0877 55.2417 31.3966C56.5849 33.7315 57.8188 36.0447 58.9347 38.3134C57.8222 40.6211 56.591 42.9577 55.2538 45.2915ZM50.949 38.2775C50.949 34.026 47.524 30.5795 43.2994 30.5795C39.0747 30.5795 35.6498 34.026 35.6498 38.2775C35.6498 42.529 39.0747 45.9756 43.2994 45.9756C47.524 45.9756 50.949 42.529 50.949 38.2775Z" fill="white"/>
</svg>
