<svg width="164" height="166" viewBox="0 0 164 166" fill="none" xmlns="http://www.w3.org/2000/svg">
<path id="icon-umbraco" fill-rule="evenodd" clip-rule="evenodd" d="M81.5134 6.70341e-05C36.5498 -0.0573916 0.0467663 36.8307 1.12233e-05 82.3951V82.4087C-0.0233479 127.997 36.4196 164.976 81.3999 165C126.317 165 162.74 128.173 162.8 82.6083C162.86 37.0439 126.477 0.0576608 81.5134 6.70341e-05ZM60.7863 108.478C67.0058 109.785 73.3592 110.353 79.7131 110.168L83.096 110.178C89.4458 110.359 95.7948 109.789 102.009 108.478C106.582 107.528 110.413 104.437 112.296 100.179C114.177 95.9205 115.073 89.3653 114.983 80.5134C114.951 75.8802 114.664 71.2521 114.123 66.6501C113.579 62.1773 113.041 58.4842 112.508 55.5708L111.95 52.683C111.943 52.5984 111.943 52.5133 111.95 52.4287C111.945 51.617 112.533 50.9221 113.337 50.789L123.903 49.1494H124.175C124.946 49.1494 125.616 49.6793 125.791 50.4277C125.924 50.9248 126.007 51.3259 126.174 52.1423C126.235 52.436 126.306 52.7834 126.395 53.2084C126.997 56.3739 127.558 59.3855 128.176 63.7355C128.828 68.522 129.226 73.3394 129.368 78.1678C129.597 81.5313 129.597 84.9064 129.368 88.27C129.118 97.1932 127.578 104.325 124.749 109.666C121.907 115 117.117 118.839 110.378 121.183C103.639 123.528 94.2324 124.676 82.1587 124.627H80.6403C68.5801 124.676 59.1737 123.528 52.4214 121.183C45.669 118.845 40.8785 115.006 38.0499 109.666C35.2212 104.325 33.6826 97.1932 33.434 88.27C33.2022 84.9065 33.2022 81.5312 33.434 78.1678C33.5748 73.3395 33.9718 68.522 34.6233 63.7355C35.2448 59.3286 35.8024 56.3069 36.4071 53.2084C36.7229 51.6022 36.827 51.0969 37.0084 50.4277C37.1899 49.6834 37.8555 49.1569 38.6243 49.1494H38.8528L49.4181 50.789C50.2122 50.9355 50.7894 51.6242 50.792 52.4287C50.7988 52.5133 50.7988 52.5984 50.792 52.683L50.231 55.5708C49.698 58.4753 49.165 62.1684 48.632 66.6501C48.084 71.2516 47.7924 75.8798 47.7585 80.5134C47.698 89.3809 48.5939 95.9417 50.446 100.196C52.3444 104.46 56.1972 107.546 60.7863 108.478Z" fill="#16171A"/>
</svg>
