<svg width="78" height="77" viewBox="0 0 78 77" fill="none" xmlns="http://www.w3.org/2000/svg">
<path fill-rule="evenodd" clip-rule="evenodd" d="M0.859375 0H37.4891C37.4869 12.21 37.4891 24.42 37.4869 36.63H0.859375V0Z" fill="#16171A"/>
<path fill-rule="evenodd" clip-rule="evenodd" d="M41.2291 0H77.8588C77.8588 12.21 77.861 24.42 77.8566 36.63C65.6489 36.6278 53.439 36.63 41.2313 36.63C41.2269 24.42 41.2291 12.21 41.2291 0Z" fill="#16171A"/>
<path fill-rule="evenodd" clip-rule="evenodd" d="M0.859375 40.3677C13.0693 40.3721 25.2792 40.3655 37.4891 40.3721C37.4913 52.5821 37.4891 64.7899 37.4891 76.9999H0.859375V40.3677Z" fill="#16171A"/>
<path fill-rule="evenodd" clip-rule="evenodd" d="M41.2307 40.3719C53.4384 40.3675 65.6483 40.3697 77.8583 40.3697V76.9997H41.2285C41.2307 64.7897 41.2263 52.5797 41.2307 40.3719Z" fill="#16171A"/>
</svg>
