<svg xmlns="http://www.w3.org/2000/svg" width="102" height="102" fill="none"><path fill="#B4E300" fill-rule="evenodd" d="m82.0726 87.7268 3.5802.7378-.459-3.6278 3.6346.4182-.7786-3.5734 3.655.0986-1.0914-3.4918 3.6516-.2278-1.3974-3.3796 3.6176-.5508-1.6898-3.2436 3.553-.8636-1.9686-3.0838 3.4646-1.1764-2.2338-2.8968 3.3454-1.479-2.4818-2.686 3.2028-1.768-2.7098-2.4582L102 52.4314l-2.9138-2.21 2.8388-2.3052-3.0972-1.9414 2.6252-2.5466-3.261-1.6592 2.39-2.7676-3.3896-1.3668 2.1352-2.9716-3.4986-1.0608 1.8632-3.145-3.5802-.748 1.581-3.298-3.6312-.4284 1.2818-3.4238-3.655-.1088.9758-3.5224-3.6516.2176.6596-3.5972-3.6176.5372.34-3.6414-3.5564.8568.017-3.655-3.4646 1.1662-.3094-3.6448-3.349 1.4722-.629-3.604-3.2028 1.7612-.9452-3.536-3.0396 2.0366-1.2512-3.434-2.8458 2.295L60.2684.8466l-2.6316 2.5398-1.8394-3.162-2.397 2.7642L51.289 0l-2.142 2.9648L46.7806.1734 44.9072 3.315 42.3028.748 40.715 4.0426l-2.8186-2.329-1.292 3.4204-3.0158-2.0706-.9826 3.5258-3.1858-1.7986-.6698 3.5972-3.332-1.5062-.3468 3.6414-3.451-1.207-.0272 3.6584-3.5462-.8976.2992 3.6448-3.6108-.5814.6188 3.6074-3.6482-.2584.9384 3.536-3.6584.0646 1.2444 3.4374-3.6346.3876 1.5436 3.3184-3.5904.7072 1.8326 3.1654-3.5122 1.0234 2.1046 2.992-3.4102 1.3294 2.3596 2.7948-3.2742 1.6252 2.5942 2.5738-3.1178 1.9074 2.8152 2.3358L0 51.8636l3.009 2.0774-2.7336 2.4276 3.179 1.8054-2.5092 2.6588 3.3286 1.5164-2.2644 2.8696 3.4476 1.2138-2.0026 3.0634 3.5428.9044-1.7238 3.2232 3.6108.5916-1.4348 3.3626 3.6482.2686-1.1288 3.4782 3.655-.0544-.816 3.5632 3.638-.3774-.4998 3.621 3.587-.697-.1768 3.6516 3.5156-1.0132.1462 3.655 3.4102-1.3192.4658 3.6244 3.281-1.615.7888 3.57 3.1246-1.8972 1.0982 3.4884 2.9444-2.1692 1.4042 3.3764 2.7404-2.421 1.6966 3.24 2.5194-2.6552 1.9754 3.0802 2.2712-2.866 2.2406 2.89 2.0128-3.0566 2.4854 2.6826 1.734-3.2198 2.7132 2.4518 1.4416-3.363 2.9206 2.1998L67.422 96.22l3.1042 1.9346.8262-3.5632 3.264 1.6524.51-3.621 3.3932 1.36.187-3.655 3.502 1.054-.136-3.655ZM51 97c25.4051 0 46-20.5949 46-46S76.4051 5 51 5 5 25.5949 5 51s20.5949 46 46 46Z" clip-rule="evenodd"/><path fill="#B4E300" d="M29.7332 86.5c-.1988-.1163-.3717-.2721-.508-.4578-.1363-.1857-.2332-.3974-.2848-.6219-.057-.2205-.0688-.4503-.0345-.6755.0343-.2251.1139-.441.234-.6345l2.0459-3.4182c.115-.1989.2696-.372.4544-.5084.1848-.1365.3958-.2334.6196-.2847.2221-.0571.4534-.0688.6801-.0345s.4442.1139.6395.234c.1981.1154.3702.2703.5057.4552.1355.1849.2315.3957.282.6194.0574.2224.0689.4542.0337.6812-.0352.227-.1163.4445-.2383.639l-.4296.7113-.9718-.5936.4398-.7266c.0443-.071.0736-.1503.0859-.2331.0123-.0827.0075-.1671-.0143-.2479-.0189-.0816-.054-.1585-.1032-.2261-.0492-.0677-.1115-.1248-.1832-.1679-.0704-.0434-.149-.0717-.2308-.0831-.0819-.0115-.1653-.0059-.2448.0165-.0812.0182-.1576.053-.2246.1023-.0669.0494-.1228.1122-.1642.1843l-2.0458 3.4284c-.0442.0701-.0734.1486-.0858.2305-.0123.0819-.0075.1655.0142.2454.0181.0805.0523.1565.1007.2234.0483.0668.1098.1232.1806.1655.0707.045.1498.0749.2324.0881.0827.0132.1672.0094.2483-.0113.0822-.019.1595-.0546.2273-.1048s.1245-.1138.1666-.1869l.7416-1.2281-.5115-.3121.5677-.9416 1.4987.9057-1.3145 2.1748c-.1143.1995-.2688.373-.4537.5096-.1849.1365-.3962.2331-.6204.2835-.2243.0602-.4585.0735-.6882.0392-.2296-.0344-.4498-.1156-.6467-.2387ZM37.1444 81.9714c.2117.091.4023.2248.5598.393.1576.1682.2787.3672.3558.5844.0838.214.123.4428.1151.6725-.0079.2297-.0628.4554-.1611.663l-1.6419 3.6229c-.0918.2113-.2258.4015-.3938.5591-.168.1575-.3664.279-.583.3569-.2139.0839-.4427.1231-.6723.1152-.2296-.0079-.4551-.0628-.6627-.1612-.2105-.0919-.4-.2261-.5566-.3942-.1566-.1681-.277-.3666-.3538-.5832-.0817-.2137-.1194-.4418-.1106-.6705.0088-.2287.0638-.4532.1617-.66l1.6418-3.6229c.091-.2117.2248-.4024.3929-.56.1681-.1576.3669-.2788.584-.3559.2118-.0847.4387-.1249.6667-.1178.2279.007.4519.0611.658.1587Zm-.1687 1.8217c.0639-.1557.0639-.3304 0-.4861-.0294-.0773-.074-.1479-.1311-.2076-.0571-.0598-.1256-.1075-.2014-.1404-.0759-.033-.1577-.0499-.2404-.0499s-.1645.0169-.2404.0499c-.0785.0266-.1506.0695-.2114.126-.0608.0564-.1091.1251-.1415.2015l-1.6469 3.6332c-.0329.0758-.0499.1577-.0499.2404 0 .0828.017.1647.0499.2406.0291.078.0735.1495.1306.2101.057.0607.1257.1093.2019.1429.0758.033.1576.05.2403.05.0827 0 .1646-.017.2404-.05.0775-.0275.1484-.0708.2083-.1272.0599-.0563.1074-.1245.1395-.2003l1.6521-3.6331ZM39.8498 90.8342l-2.8488-.9262 2.2402-6.9336 1.0485.3377-1.9078 5.9 1.8055.5833-.3376 1.0388ZM44.7291 90.1433c-.0444.2255-.1339.4396-.2631.6295-.1292.19-.2955.3518-.4888.4758-.1867.129-.398.2179-.6207.261-.2228.0432-.452.0397-.6733-.0102l-1.693-.3531 1.4884-7.1383 1.6929.353c.2241.0423.4368.1311.6244.2606.1877.1296.3461.2971.4651.4916.1274.1894.215.4028.2572.6272.0422.2243.0383.4549-.0117.6777l-.7774 3.7252Zm-2.4397.1638.6444.133c.0814.0187.1657.0202.2476.0043.0819-.0159.1596-.0487.2281-.0964.1366-.0939.2319-.2368.2659-.3991l.7775-3.7355c.0179-.0811.0194-.165.0045-.2467-.015-.0817-.0461-.1596-.0915-.2292-.0442-.0692-.1017-.1289-.1694-.1755-.0676-.0466-.1439-.0791-.2244-.0957l-.6444-.133-1.0383 4.9738ZM51.3119 85.1133l1.1508.0511L51.0153 92.4l-1.0536-.046-.4501-4.0016-.7519 3.9504-1.0485-.0409-.9104-7.3379 1.1508.046.4092 3.9299.6956-3.8838 1.1456.0511.4092 3.9248.7007-3.8787ZM54.6265 92.2158l-1.0945.0768-.5115-7.2714 1.0997-.0768.5063 7.2714ZM55.9456 84.7346l2.276 4.5747-.8388-4.8254 1.0792-.1842 1.248 7.1639-1.156.1995-2.2913-4.3444.7979 4.6054-1.0792.1893-1.248-7.1639 1.2122-.2149ZM60.2322 83.834l2.7927 4.2779-1.3964-4.6924 1.0537-.3173 2.0765 6.99-1.1252.3377-2.7823-4.0425 1.3298 4.4723-1.0537.3122-2.0765-6.99 1.1814-.3479ZM66.1244 89.5754l-2.8949-6.6931 2.8693-1.2435.4348 1.0234-1.8617.8034.7927 1.837 1.3605-.5884.4399 1.0234-1.3606.5885.7877 1.8319 1.8669-.8085.4347 1.0234-2.8693 1.2025ZM67.9444 80.6256c.2044-.143.4384-.2379.6846-.2778.2462-.0399.4982-.0236.7372.0475.4093.168.7438.4789.9412.875l.5114.9211c.1253.2136.2029.4518.2276.6982.0247.2464-.0041.4952-.0844.7295l2.2863 2.3589-1.0229.5885-1.9487-2.0468-.087.0563-.5421.3121 1.3656 2.3846-.9514.5475-3.6263-6.3247 1.5089-.8699Zm1.4423 1.1974c-.0313-.0808-.081-.1531-.1451-.2113-.0642-.0582-.141-.1007-.2244-.124s-.1711-.0269-.2561-.0105c-.085.0165-.165.0525-.2337.1053l-.5728.3275 1.161 2.0468.5729-.3326c.0731-.0395.1369-.0942.1872-.1604.0503-.0662.0859-.1423.1043-.2234.0217-.0794.0274-.1624.0168-.2441-.0105-.0816-.037-.1604-.0781-.2318l-.532-.9415ZM33.4465 22.2089c-.1929.1256-.4101.2091-.6374.2453-.2274.0361-.4598.024-.6821-.0355-.2227-.0493-.4329-.1437-.6177-.2775-.1847-.1337-.34-.304-.4564-.5003l-2.0868-3.4028c-.1251-.1923-.2084-.4088-.2445-.6353-.0361-.2266-.0242-.4582.0348-.6798.0486-.2237.1427-.4351.2764-.6208.1338-.1858.3043-.342.501-.4589.1932-.125.4104-.2082.6377-.2444.2272-.0361.4595-.0243.6819.0346.2229.0504.4331.1458.6178.2805.1847.1346.34.3056.4563.5024l.4347.7061-.9666.5987-.445-.7266c-.0431-.0717-.1002-.1341-.1678-.1833-.0677-.0492-.1446-.0843-.2261-.1032-.0811-.021-.1656-.0251-.2483-.0118-.0827.0132-.1619.0433-.2324.0885-.0711.0432-.1328.1004-.1811.1681-.0484.0678-.0825.1446-.1002.2259-.0209.0803-.0249.1641-.0116.246.0132.082.0432.1602.0883.2299l2.097 3.4131c.0414.0716.0974.1337.1644.1822.067.0485.1434.0823.2243.0993.0801.0204.1634.0246.2451.0123.0817-.0123.1601-.0409.2306-.084.0717-.0431.134-.1002.1832-.1679.0492-.0677.0843-.1446.1032-.2261.0207-.0812.0246-.1657.0114-.2484-.0132-.0828-.0432-.1619-.0881-.2326l-.7519-1.223-.5114.3224-.5729-.9364 1.4884-.916 1.3349 2.1697c.1241.1937.2067.4109.2428.6381.0361.2272.0249.4594-.0331.682-.0508.2236-.1475.4341-.284.6182-.1365.1841-.3097.3378-.5088.4513ZM34.0758 13.4332c.2076-.0985.4332-.1533.6628-.1613.2295-.0079.4583.0313.6721.1152.2167.078.4152.1994.5832.3569.168.1576.302.3478.3937.5591l1.6418 3.6229c.0984.2077.1533.4333.1612.663.0079.2297-.0312.4586-.1151.6725-.0787.2164-.2004.4145-.3577.5825-.1574.168-.3472.3023-.5578.3949-.2071.0975-.432.1514-.6607.1584-.2288.0071-.4565-.0329-.6691-.1175-.2156-.0788-.4129-.2006-.58-.3581-.167-.1574-.3004-.3472-.3918-.5578l-1.6418-3.6229c-.0982-.2087-.153-.4351-.1609-.6656-.0079-.2305.0311-.4602.1148-.6751.0761-.215.1958-.4119.3516-.5783.1558-.1664.3443-.2988.5537-.3888Zm1.2583 1.3253c-.0321-.0772-.0802-.1467-.141-.204-.0608-.0573-.1331-.1012-.212-.1286-.0759-.0327-.1577-.0495-.2404-.0495-.0826 0-.1644.0168-.2403.0495-.0748.0336-.1422.0817-.1983.1414-.0562.0597-.1.1299-.1291.2065-.0328.0769-.0497.1596-.0497.2431 0 .0836.0169.1662.0497.2431l1.6469 3.6331c.034.0754.0828.1432.1434.1995.0606.0562.1319.0997.2096.128.1539.0637.3268.0637.4807 0 .0758-.0329.1443-.0806.2014-.1403.0571-.0598.1017-.1304.1311-.2077.0636-.154.0636-.327 0-.481l-1.652-3.6331ZM42.3101 18.2585l-2.854.9057-2.1993-6.9541 1.023-.3326 1.8668 5.9102 1.8106-.5731.3529 1.0439ZM45.9265 15.7307c.0475.2238.0488.455.004.6793-.0449.2244-.135.4372-.2648.6256-.1231.1916-.2842.3558-.4734.4826-.1892.1267-.4023.2133-.6263.2542l-1.6929.3326-1.4014-7.1639 1.698-.3326c.2224-.0468.4521-.0473.6747-.0016.2226.0458.4334.1369.6193.2677.1911.1254.3546.2887.4804.4796.1257.191.2111.4056.251.6308l.7314 3.7457Zm-2.1839 1.095.6495-.1279c.082-.0141.16-.0456.2289-.0924.0688-.0468.1268-.1077.1701-.1788.045-.0687.0758-.1458.0908-.2266.0149-.0809.0136-.1639-.0039-.2442l-.7314-3.7457c-.0144-.0812-.0455-.1587-.0912-.2274-.0458-.0686-.1053-.1271-.1747-.1717-.066-.0489-.1416-.0833-.2218-.1009-.0802-.0176-.1633-.0181-.2437-.0014l-.6496.1279.977 4.9891ZM51.8746 9.82556h1.1508l-1.0229 7.31234h-1.0537l-.6956-3.9657-.5114 3.9913h-1.0536l-1.3503-7.26629h1.1508l.6444 3.89409.4553-3.91455h1.1508l.6495 3.89405.4859-3.94524ZM54.9998 17.3784l-1.0945-.1075.7109-7.2611 1.0946.1074-.711 7.2612ZM58.4468 10.4908l.4808 5.0864.9462-4.805 1.0792.2098-1.4065 7.164-1.1559-.2303-.5831-4.8715-.9002 4.6054-1.0792-.2149 1.4066-7.1639 1.2121.22ZM63.8269 11.8417l-.2097 5.1171 1.5856-4.6361 1.0229.3582-2.363 6.8978-1.1098-.3838.0818-4.9072-1.5344 4.4211-1.023-.3582 2.358-6.8978 1.1916.3889ZM64.6045 19.8909l3.2069-6.5499 2.8079 1.3816-.4808.9876-1.8208-.8955-.8797 1.7961 1.3298.6499-.5114.9876-1.3299-.6499-.8797 1.7859 1.826.8955-.486.9876-2.7823-1.3765ZM73.3361 16.355c.2203.1159.4115.2802.5594.4804.1479.2003.2487.4314.2948.6761.0413.4416-.0826.8828-.3478 1.2383l-.5729.8903c-.1281.2143-.3017.3978-.5085.5375-.2068.1397-.4418.2322-.6883.2711l-1.0229 3.1163-1.0229-.6448.9308-2.6762-.0869-.0512-.5115-.3428-1.4935 2.3129-.9206-.5987 3.9536-6.1405 1.4372.9313Zm-.404 1.8319c.0576-.0643.0993-.1413.1218-.2246.0224-.0834.025-.1709.0076-.2555-.0174-.0845-.0543-.1638-.1079-.2315-.0536-.0677-.1223-.1219-.2005-.1583l-.5575-.3633-1.2633 1.9598.5574.3582c.068.0467.145.0786.2261.0936.081.015.1644.0127.2445-.0066.1627-.0363.3043-.1356.3939-.2763l.5779-.8955ZM22.5461 32.2c.2848.0393.5695.0882.8577.1138 2.0177.2008 3.9454.7812 5.8657 1.3883 1.696.5359 3.4016 1.0474 5.0167 1.8081 1.8144.8535 3.4101 1.9715 4.4728 3.7261.7972 1.3178 1.2762 2.7384 1.3502 4.2803.1925 3.9907-1.4562 7.0483-4.7717 9.2206-2.0502 1.3439-4.2615 2.3419-6.6819 2.8192-1.504.2964-3.0046.3414-4.479-.1889-.3548-.1269-.4397-.3414-.2142-.6395.0949-.1304.2077-.2468.3349-.3459.4556-.3414.5758-.8222.6014-1.3473.041-.8392-.1464-1.65-.3001-2.467-.2404-1.2785-.4585-2.5604-.6635-3.8462-.1982-1.2392-.377-2.4812-.5456-3.7244-.119-.8785-.2033-1.7638-.3109-2.6423-.0945-.7772-.1862-1.5555-.3041-2.3293-.1336-.8308-.1159-1.6789.0524-2.5034.0512-.2452.0325-.408-.2756-.4074-.7284 0-1.4574-.0097-2.1857-.008-.7284.0017-1.4568.0569-2.1789.0069-.6481-.0478-1.1635-.3761-1.3879-1.0395v-.3414c.02-.0194.0513-.0353.057-.0569.1708-.6259.619-.9718 1.2244-1.081.6566-.1207 1.3258-.1747 1.9892-.2572.3702-.0461.7404-.0905 1.11-.1354l1.3667-.0023Zm1.6783 3.0343-.0404.0865c.0388.0716.0819.1408.1293.2071.41.512.672 1.0907.836 1.7211.5336 2.0482.6834 4.1471.8451 6.2449.0775.9974.1224 1.9987.246 2.9904.2164 1.7399.479 3.4741.7295 5.21.1139.7966.4522 1.2119 1.0912 1.2967.253.0362.5111.0092.7511-.0786.7404-.3009 1.4989-.5917 2.1949-.9831 2.1122-1.1874 4.0097-2.6559 5.5644-4.5278.7706-.928 1.2871-1.9914 1.3497-3.2152.0678-1.3086-.4311-2.4403-1.2329-3.4462-.885-1.1112-2.0308-1.8946-3.2871-2.5228-2.6771-1.3351-5.5249-2.2969-8.4638-2.8584-.2369-.0461-.4755-.0831-.7107-.1246h-.0023ZM57.026 50.8989c.3485-.5496.6936-1.056.9994-1.5857.6265-1.0895 1.2387-2.1905 1.852-3.2897.373-.6691.7119-1.3593 1.1139-2.0101.242-.3818.5311-.7316.8605-1.0412.3178-.3033.754-.3414 1.1789-.2845.4379.0569.6833.5433.5529 1.106-.0808.3004-.1837.5944-.308.8796-.1054.2635-.2432.5121-.3497.7755-.0645.1598-.0965.3307-.0944.503.0021.1722.0384.3423.1068.5004.0684.1581.1675.3011.2915.4207.1241.1196.2707.2134.4313.276.3417.136.6543.0757.8895-.1753.5171-.5518.9955-1.1379 1.508-1.6954.3064-.3329.6225-.6669.9796-.9405.4886-.3738 1.025-.3135 1.5188.0569.6196.4654.8212 1.1379.9437 1.8445.1845 1.0611-.0177 2.0352-.8691 2.7561-.7193.6093-1.5211 1.0981-2.4984 1.1948-.0592.0089-.118.0211-.1759.0364.0569.5206.3514.9041.6726 1.2631.9191 1.0241 2.1031 1.5174 3.4516 1.6403 1.0559.0967 1.8383-.3869 2.4545-1.2045.5655-.7499.8195-1.6062.9038-2.5273.021-.2255.0629-.4486.1253-.6663.2306-.8011 1.2295-1.081 1.8326-.4961.4044.3937.6378.8631.6424 1.4793.008.7918.0871 1.5812.2364 2.3589.1782.9348.8473 1.5123 1.713 1.6238.9311.1206 1.918-.3459 2.3423-1.1379.4966-.924.7796-1.918.9681-2.9483.1339-.7135.3059-1.4192.5154-2.1143.1276-.4296.385-.8102.7973-1.0349.6583-.3602 1.3457-.2703 2.0057-.0279.3469.1269.4517.5007.4294.8346-.0569.8535-.0956 1.7206-.2608 2.5604-.2597 1.3228-.6555 2.6172-.9208 3.9423-.2575 1.2836-.405 2.5888-.6333 3.8786-.2438 1.3746-.5046 2.7464-.7973 4.1107-.2979 1.3837-.553 2.7879-1.1265 4.0903-.8895 2.0266-1.8622 4.0242-3.5143 5.5508-.9476.8756-2.0462 1.5885-3.0781 2.372-.1885.1433-.385.2748-.5757.4136-.842.6279-1.87.9566-2.9204.9337-.3393-.011-.6717-.0987-.9721-.2566-.6128-.3238-.7039-1.159-.1475-1.5675.5155-.3676 1.0671-.6818 1.6464-.9377 3.2552-1.4901 5.4341-3.9707 6.7467-7.2542.5963-1.4918.897-3.057 1.094-4.645.1276-1.0293.2779-2.0568.3719-3.0889.0313-.3471-.0507-.714-.1355-1.0583-.0707-.2884-.3093-.3795-.6407-.297-.5695.1411-1.1305.2168-1.7085.037-.8286-.2594-1.4903-.7271-1.9431-1.4793-.1496-.2632-.3162-.5163-.4988-.7578-.3349-.4222-.61-.4745-1.0525-.1787-.4556.3044-.9186.6128-1.3218.9809-.9333.8534-2.0353 1.2466-3.2745 1.3166-1.4966.0848-2.8475-.3118-4.0303-1.2432-.877-.6913-1.3776-1.6386-1.8184-2.636-.4886-1.1061-1.012-2.1962-1.5285-3.2897-.0819-.1706-.1846-.3304-.3058-.4757-.2426-.293-.5519-.3032-.7973-.0096-.1455.1854-.2684.3875-.3662.6019-.7631 1.5419-1.4909 3.1026-2.2899 4.6257-.4915.937-1.1959 1.7068-2.2261 2.0994-.7222.2748-1.1106.2185-1.5217-.4221-.4721-.7363-.8389-1.5402-1.2574-2.3112-.086-.1587-.1988-.3021-.299-.4551-.0729.1707-.1709.3334-.2136.512-.135.5781-.2437 1.1624-.3747 1.7411-.0442.1741-.1049.3436-.1811.5063-.5097 1.1721-1.5542 1.5317-2.6863.9297-.4782-.2566-.8801-.6348-1.1652-1.0964-.2585-.4056-.5376-.7965-.828-1.1823-.1113-.1296-.2452-.2379-.3952-.3197-.2409-.1485-.438-.1064-.6225.1138-.9283 1.1072-2.0821 1.8252-3.5257 2.0528-1.0747.1707-2.1515.1212-3.1709-.2151-1.4186-.4677-1.9147-1.44-1.5303-2.9273.6766-2.6201 2.2165-4.4999 4.8584-5.3624.6919-.2276 1.3798-.47 2.0837-.6498.4659-.1189.9454-.091 1.3235.2924.4704.478.3417 1.0242-.3069 1.2023-.3531.0955-.7318.0961-1.0866.1883-1.2911.3345-2.3634 1.007-3.1191 2.125-.2694.3983-.4374.8472-.332 1.3405.16.7505.7124 1.0771 1.4026 1.2301.93.2054 1.7193-.0956 2.4107-.7009.7813-.6828 1.4761-1.4412 1.9579-2.3749.1001-.1824.224-.3508.3684-.5007.1601-.1707.3662-.2372.5917-.1138.237.1286.3417.3414.2768.5952-.3087 1.275.0854 2.4232.631 3.5429.0788.1513.1796.2901.299.4119.3827.4114.8144.4347 1.213.0438.1851-.182.373-.3983.4641-.6338.3526-.916.4795-1.8679.2404-2.8323-.089-.3278-.2283-.6399-.4129-.9251-.4169-.664-.8651-1.3086-1.3064-1.9572-.5798-.8535-.4983-2.0762.1959-2.8391.3804-.4182.8542-.3915 1.3389-.2623.4978.1347.9438.4155 1.2802.8062.2517.2845.488.5803.7107.8858.836 1.1471 1.6515 2.3083 2.4995 3.4468.348.4666.754.8916 1.1931 1.4059Zm11.1016-3.7415c-.09-.1479-.1543-.3829-.2978-.45-.1208-.0569-.3417.0614-.5018.1411-.1137.0687-.2109.1615-.2847.2719-.2557.3414-.5063.6828-.746 1.0327-.0644.0933-.0849.2168-.1253.3266.1332.0324.2745.1109.3986.0899.2914-.043.5688-.1526.8108-.3204.2419-.1678.4417-.3892.5839-.6468.0689-.1184.0968-.2612.1623-.445ZM39.4771 63.2014c-.0986.2788-.1982.557-.295.8364-.2033.5894-.4066 1.1794-.606 1.7706-.0089.0459-.0357.0865-.0744.1129-.0387.0264-.0862.0365-.1323.0282-.16-.0103-.3217-.0063-.4823 0-.0467.0066-.0941-.0049-.1325-.0321-.0384-.0272-.065-.068-.0743-.1141-.2579-.7744-.5222-1.547-.7847-2.3202-.1811-.533-.3622-1.0663-.5433-1.5999-.0205-.062-.0376-.1258-.0632-.2105.3012 0 .5877-.0046.873.0056.0387 0 .0945.0717.1093.1207.274.8847.5422 1.7711.8121 2.657.0151.0367.0324.0724.0518.1069.0444-.0523.0826-.1096.1139-.1706.2557-.7755.5041-1.5539.7637-2.3282.1333-.3983.1424-.3983.5519-.3983.3417 0 .3496 0 .4613.3306.2648.7897.5228 1.5817.7864 2.372.0266.0596.0584.1167.0951.1707l.0439-.0126c.0858-.2776.1716-.5549.2574-.8318.1874-.6116.3787-1.2221.5581-1.836.0438-.1496.1139-.2054.2694-.1934.1816.0136.3656.0062.549 0 .1218 0 .1708.0204.1241.1621-.3309.9541-.6549 1.9106-.9795 2.867-.123.3607-.2426.722-.3617 1.0844-.0364.1138-.0922.1775-.2277.1707-.1601-.0108-.3218-.0057-.4824 0-.0442.0057-.0889-.0052-.1255-.0305-.0366-.0253-.0625-.0633-.0727-.1066-.2787-.8151-.5591-1.6306-.8411-2.4465-.0266-.061-.0586-.1195-.0957-.1747l-.0461.0102Z"/><path fill="#B4E300" d="M56.4736 65.9108c-.3417 0-.6606.0068-.979-.0063-.0512 0-.1087-.0853-.1469-.1417-.2437-.3567-.4863-.714-.7215-1.0764-.0253-.0459-.0634-.0833-.1098-.1076-.0464-.0243-.0989-.0344-.151-.029-.1333.0063-.2665 0-.3987 0-.2147 0-.2278.0148-.2306.2242 0 .3158-.0052.6321 0 .9479.0034.1405-.0376.2037-.188.1951-.1828-.0097-.3661-.0051-.549 0-.1019 0-.1514-.0284-.1514-.1416.003-1.3246.003-2.6493 0-3.9742 0-.103.041-.1343.1384-.1343.6606 0 1.3217-.0159 1.9812.0079.4397.0165.8543.144 1.147.5121.1589.2007.2536.4446.2716.6998.0325.3795-.0103.7516-.2671 1.0486-.1469.1562-.3168.289-.504.3938-.119.0733-.1281.1177-.0512.2275.2847.4074.5643.8216.8451 1.2335.0222.033.0365.066.0649.1207Zm-2.0889-2.145.004.0284c.2329-.0313.4727-.0387.6982-.099.2694-.0722.418-.318.4118-.594-.0063-.2759-.1766-.5416-.4522-.5786-.3913-.0518-.7899-.0506-1.1857-.0569-.0405 0-.1173.0888-.119.1383-.0103.3368-.0052.6742-.0057 1.0116 0 .1138.0569.1553.1674.1525.1606-.0052.3212-.0023.4812-.0023ZM60.0063 63.775c0-.6378.0052-1.2751-.0034-1.9123 0-.1576.0507-.1974.1999-.1952.5217.0074 1.0451-.0199 1.565.008.893.0467 1.623.4051 1.9813 1.2682.4556 1.0981.0136 2.4613-1.3008 2.8596-.2553.0704-.5187.1075-.7836.1104-.4875.0165-.9767 0-1.4647.0074-.1549 0-.1982-.0495-.1965-.2009.0074-.6497.0028-1.2983.0028-1.9452Zm.8793.0136v1.1305c.0003.0055.0003.011 0 .0165-.0153.14.0388.2026.1874.1975.2329-.0091.4664.0074.6988-.0063.1916-.0066.3792-.0571.5482-.1476.169-.0904.315-.2184.4267-.3741.2199-.2959.2392-.6321.2278-.9809-.0187-.495-.4396-1.0241-.9305-1.1004-.3195-.0517-.6481-.0461-.9727-.0677-.135-.0085-.1874.0489-.1857.1855.004.3806.0006.763 0 1.1453v.0017ZM44.9355 65.9165c.233-.5474.4454-1.0447.6561-1.5425.3565-.8398.7136-1.679 1.065-2.5205.0655-.1559.148-.2452.3325-.2225.1383.014.2776.014.4158 0 .1446-.0114.2204.0461.2756.1787.3018.7248.6111 1.4463.918 2.1694l.7637 1.8025c.012.029.0199.0569.045.1343H49c-.504 0-.504 0-.6925-.4597-.0138-.0239-.0253-.049-.0341-.0751-.0678-.3704-.2928-.4677-.6521-.4376-.4021.0342-.8093.012-1.2148.0057-.0519-.0061-.1044.0068-.1476.0363s-.0743.0736-.0875.1242c-.086.2276-.1863.4489-.2734.6759-.0119.0426-.0388.0794-.0757.1037-.037.0243-.0815.0343-.1253.0283-.2421-.0046-.4835-.0011-.7615-.0011Zm2.2535-3.1783c-.0369.0368-.0696.0776-.0973.1218-.1637.3918-.3254.7848-.4852 1.1789-.0393.0967-.0001.1508.1036.1508h.9146c.119 0 .1372-.07.0951-.1707-.0473-.1138-.0917-.2276-.1384-.3369-.1259-.3055-.2523-.607-.3924-.9439ZM29.2432 65.9142c.1526-.3562.2898-.6748.4254-.9934.4294-1.0059.858-2.0122 1.2859-3.0189.1139-.2663.1093-.2674.3924-.268.1105.0077.2214.0077.332 0 .1754-.0245.2602.0569.3234.2082.3543.8461.7142 1.6893 1.0724 2.5331l.6447 1.5185c-.0658.0118-.1322.0199-.1988.0245-.1936.0028-.3878-.0034-.582.0028-.0443.0043-.0887-.0072-.1254-.0323-.0366-.0252-.0632-.0625-.0751-.1054-.0877-.2202-.1822-.4381-.2619-.6617-.0416-.1172-.1071-.1707-.2313-.1678-.5159.0034-1.0317.0034-1.5473 0-.0468-.0044-.0937.0076-.1327.0338-.0391.0262-.0678.0651-.0814.1101-.0962.2413-.1942.4819-.299.7192-.0188.0415-.0729.0944-.1139.0956-.2625.0057-.5279.0017-.8274.0017Zm2.2722-3.139-.0603-.0074c-.0348.07-.0724.1383-.1025.21-.1458.3452-.2897.6909-.4317 1.0372-.0291.0711-.0649.1707.0643.1707.3207.0074.6413.0062.9619 0 .1048 0 .1258-.0711.0848-.1633-.041-.0922-.0723-.1707-.1082-.2589l-.4083-.9883ZM70.371 62.138c-.1367.1969-.2688.3869-.3986.5775-.0666.0961-.1299.0432-.1971 0-.3417-.2139-.6976-.3585-1.1116-.3215-.2722.0245-.4778.2009-.4431.433.0165.1104.0968.2583.1885.3004.2694.1235.5598.2003.8406.2993.2232.0791.4556.1445.6651.2509.4949.2515.6179.598.5849 1.1413-.0353.5821-.4339 1.002-1.0678 1.1141-.828.1468-1.5683-.045-2.225-.569-.0144-.0175-.0268-.0366-.037-.0569.1492-.1798.2962-.3664.4556-.5388.0256-.0273.1339-.0119.1788.0194.3036.2127.6265.3857 1.0012.4096.1758.0093.352-.0099.5216-.0569.0826-.0181.1568-.0631.2111-.1278.0543-.0648.0856-.1457.0891-.2301.0083-.0843-.0127-.1689-.0595-.2396-.0467-.0706-.1164-.1231-.1974-.1484-.2881-.1098-.5888-.1883-.8815-.2879-.2056-.0638-.4067-.1412-.602-.2316-.4875-.2435-.5957-.6213-.5456-1.1077.0672-.6549.4112-.9838 1.0752-1.1192.6738-.1377 1.2791.0285 1.844.392.039.0302.0759.0629.1105.0979Z"/><circle cx="51.1" cy="51.1" r="43.6" stroke="#B4E300"/><path stroke="#B4E300" d="M24.3882 82.6C15.4634 75.0243 9.7998 63.7235 9.7998 51.1c0-13.163 6.1579-24.8877 15.75-32.4505m51.8 64.3366c9.1907-7.5749 15.05-19.0463 15.05-31.8861 0-12.8399-5.8593-24.3113-15.05-31.8862"/></svg>