<svg xmlns="http://www.w3.org/2000/svg" width="103" height="103" fill="none"><path fill="#B4E300" fill-rule="evenodd" d="M51.1 102.2c28.222 0 51.1-22.878 51.1-51.1S79.322 0 51.1 0 0 22.878 0 51.1s22.878 51.1 51.1 51.1Zm0-13.3c20.876 0 37.8-16.924 37.8-37.8 0-20.876-16.924-37.8-37.8-37.8-20.876 0-37.8 16.924-37.8 37.8 0 20.876 16.924 37.8 37.8 37.8Z" clip-rule="evenodd"/><mask id="a" width="72" height="72" x="15" y="15" maskUnits="userSpaceOnUse" style="mask-type:alpha"><circle cx="51.1" cy="51.1" r="35.7" fill="#C4C4C4"/></mask><g fill="#B4E300" mask="url(#a)"><path d="M74.31 21.7c.27.707.54 1.414.815 2.119a.343.343 0 0 1 0 .274 1516.76 1516.76 0 0 0-1.802 4.66 72778.85 72778.85 0 0 1-7.27 18.83l-.056.15c.137.045.264.087.391.127a19.952 19.952 0 0 1 5.955 3.057 20.305 20.305 0 0 1 5.683 6.534 20.16 20.16 0 0 1 1.989 5.23c.236 1.029.398 2.07.455 3.124.037.688.037 1.38.018 2.068-.127 4.524-1.647 8.536-4.449 12.06-1.878 2.362-4.19 4.192-6.89 5.523a19.191 19.191 0 0 1-4.268 1.516c-.708.162-1.423.287-2.143.376a18.67 18.67 0 0 1-3.655.106c-1.308-.099-2.6-.287-3.865-.633-4.181-1.14-7.63-3.42-10.358-6.794-1.55-1.919-2.694-4.065-3.466-6.411a18.863 18.863 0 0 1-.741-3.046c-.109-.714-.164-1.437-.242-2.156.001-.024.005-.047.01-.07h2.485c.023.222.049.445.068.67.066.734.183 1.462.35 2.18.684 2.994 2.03 5.65 4.064 7.943a17.201 17.201 0 0 0 6.613 4.641 17.19 17.19 0 0 0 7.268 1.176c3.817-.22 7.226-1.531 10.199-3.951 2.41-1.961 4.18-4.405 5.328-7.302.466-1.178.8-2.405.998-3.657.225-1.397.282-2.816.171-4.226a17.663 17.663 0 0 0-1.658-6.23 17.698 17.698 0 0 0-4.177-5.605 17.58 17.58 0 0 0-5.34-3.317 16.938 16.938 0 0 0-3.414-.96c-.261-.044-.523-.086-.799-.131l9.818-25.355c-.75-.003-1.473 0-2.196-.002H46.282c-.008-.068-.017-.114-.017-.16v-2.256a.956.956 0 0 1 .01-.102H74.31ZM18.2 33.037h2.74l12.03 31.465h-2.707l-.326-.84a10881.355 10881.355 0 0 1-3.961-10.371 8255.426 8255.426 0 0 1-3.575-9.346 25651.813 25651.813 0 0 0-3.93-10.274c-.054-.142-.102-.285-.162-.424-.026-.061-.072-.113-.109-.169v-.041Z"/><path d="M46.798 68.342h2.497c.037.26.062.512.11.761.667 3.615 2.548 6.371 5.758 8.175 1.025.576 2.13.94 3.285 1.139.8.138 1.607.179 2.418.145a11 11 0 0 0 3.675-.797 11.202 11.202 0 0 0 4.054-2.795 11.274 11.274 0 0 0 2.782-5.267 11.09 11.09 0 0 0 .247-3.267 11.38 11.38 0 0 0-8.904-10.34 11.42 11.42 0 0 0-2.428-.258c-1.667-.001-3.334 0-5.002.002h-.261c-.113-.292-.225-.578-.335-.866-.155-.404-.307-.81-.465-1.214a.301.301 0 0 1-.003-.235 57908.248 57908.248 0 0 0 5.898-15.448l1.933-5.07.87-2.275c.019-.05.036-.101.061-.176h-16.71v-2.493c.14-.038 20.076-.05 20.361-.008l-9.625 25.276c.109.002.195.006.28.006 1.215.005 2.429.004 3.643.014.68.005 1.352.103 2.018.232a13.524 13.524 0 0 1 5.788 2.623c2.19 1.7 3.743 3.866 4.657 6.496.651 1.877.877 3.81.692 5.785-.264 2.829-1.297 5.344-3.1 7.544a13.654 13.654 0 0 1-5.57 4.085 13.57 13.57 0 0 1-3.147.837c-.91.128-1.832.165-2.75.112a13.047 13.047 0 0 1-4.248-.96 13.36 13.36 0 0 1-5.008-3.56 13.801 13.801 0 0 1-2.763-4.772 14.816 14.816 0 0 1-.684-3.099c-.012-.102-.015-.206-.024-.332Z"/><path d="m44.898 47.454-6.536 17.049h-2.71L44.9 40.374l.046-.004c3.074 8.037 6.15 16.08 9.227 24.132h-2.709c-2.17-5.672-4.342-11.354-6.518-17.047l-.048-.001ZM34.3 57.152l-9.238-24.104h2.71l6.548 17.08 6.532-17.081h2.71l-9.22 24.113-.041-.008ZM48.974 33.05l.772 2.005 1.658 4.292 1.92 4.986c.27.7.54 1.398.814 2.095a.455.455 0 0 1 .001.356c-.406 1.052-.806 2.106-1.209 3.16-.02.05-.045.098-.087.19l-6.58-17.083h2.711ZM61.874 58.486l-2.31 6.021h-2.688a1.34 1.34 0 0 1 .039-.16c.667-1.74 1.336-3.481 2.005-5.221.084-.218.17-.436.25-.656.035-.097.09-.135.197-.135.781.002 1.563-.016 2.339.11.053.008.103.025.168.04Z"/></g><path fill="#16171A" d="M28.075 93.643a1.803 1.803 0 0 1-.905-1.117 1.798 1.798 0 0 1 .149-1.418l2.045-3.769a1.795 1.795 0 0 1 1.116-.902 1.81 1.81 0 0 1 1.425.147 1.8 1.8 0 0 1 .903 1.114 1.817 1.817 0 0 1-.153 1.422l-.426.786-1.076-.583.437-.805a.66.66 0 0 0 .053-.52.656.656 0 0 0-.329-.405.637.637 0 0 0-.515-.051.656.656 0 0 0-.403.33L28.35 91.66a.65.65 0 0 0-.055.516.645.645 0 0 0 .325.4.663.663 0 0 0 .518.056.648.648 0 0 0 .406-.326l.735-1.356-.574-.313.564-1.038 1.655.897-1.305 2.404a1.8 1.8 0 0 1-1.115.902 1.814 1.814 0 0 1-1.43-.158ZM35.813 88.442a1.8 1.8 0 0 1 1.022 1.011 1.808 1.808 0 0 1 0 1.435l-1.62 3.953a1.81 1.81 0 0 1-1.013 1.023 1.822 1.822 0 0 1-1.437 0 1.784 1.784 0 0 1-1.014-1.01 1.812 1.812 0 0 1 0-1.433l1.619-3.953a1.81 1.81 0 0 1 1.014-1.022 1.802 1.802 0 0 1 1.43-.004Zm-.107 1.959a.654.654 0 0 0 0-.516.656.656 0 0 0-.37-.363.671.671 0 0 0-.516 0 .641.641 0 0 0-.367.367l-1.626 3.966a.645.645 0 0 0 0 .516.646.646 0 0 0 .367.363.643.643 0 0 0 .518 0 .658.658 0 0 0 .362-.367l1.632-3.966ZM39.044 97.869l-3.094-.906 2.204-7.514 1.135.33-1.873 6.39 1.957.574-.329 1.126ZM44.231 97.01a1.813 1.813 0 0 1-.782 1.197 1.78 1.78 0 0 1-1.391.296l-1.824-.344 1.458-7.695 1.824.346a1.775 1.775 0 0 1 1.19.784 1.809 1.809 0 0 1 .287 1.395l-.762 4.021Zm-2.619.22.698.132a.63.63 0 0 0 .507-.11.679.679 0 0 0 .266-.433l.766-4.025a.654.654 0 0 0-.106-.507.63.63 0 0 0-.424-.282l-.699-.134-1.008 5.36ZM51.26 91.557l1.235.048-1.53 7.777-1.135-.044-.497-4.292-.794 4.243-1.13-.044-1.006-7.875 1.238.048.456 4.205.727-4.156 1.238.048.453 4.205.744-4.163ZM54.791 99.208l-1.178.077-.506-7.814 1.18-.076.504 7.813ZM56.357 91.18l2.32 4.97-.765-5.202 1.17-.174 1.147 7.746-1.253.192-2.344-4.723.737 4.969-1.17.174-1.147-7.745 1.305-.206ZM60.975 90.303l2.884 4.668-1.374-5.077 1.148-.307 2.045 7.56-1.222.328-2.88-4.415 1.31 4.84-1.147.309-2.046-7.56 1.282-.346ZM67.108 96.653l-2.86-7.288 3.133-1.227.43 1.1-2.031.796.782 1.997 1.485-.573.432 1.099-1.484.583.782 1.993 2.032-.795.43 1.1-3.132 1.215ZM69.442 87.117c.586-.302 1.096-.36 1.53-.177.433.2.778.552.97.988l.521 1.01a1.822 1.822 0 0 1 .084 1.53l2.346 2.641-1.133.574-1.995-2.294-.094.052-.603.31 1.353 2.626-1.05.54-3.59-6.96 1.661-.84Zm1.492 1.357c-.209-.405-.512-.505-.91-.3l-.634.325 1.148 2.225.632-.325a.644.644 0 0 0 .335-.395.657.657 0 0 0-.048-.515l-.523-1.015ZM21.912 12.648a1.806 1.806 0 0 1 1.391-.361 1.796 1.796 0 0 1 1.232.72l2.593 3.42a1.8 1.8 0 0 1 .361 1.387 1.805 1.805 0 0 1-.725 1.235 1.797 1.797 0 0 1-1.387.361 1.824 1.824 0 0 1-1.234-.726l-.54-.713.976-.738.553.728a.665.665 0 0 0 .452.266.662.662 0 0 0 .507-.134.635.635 0 0 0 .258-.445.658.658 0 0 0-.134-.505l-2.596-3.425a.663.663 0 0 0-.45-.265.662.662 0 0 0-.5.13.672.672 0 0 0-.265.449.65.65 0 0 0 .132.504l.931 1.23.525-.398.713.942-1.502 1.135-1.65-2.18a1.79 1.79 0 0 1-.364-1.388 1.816 1.816 0 0 1 .723-1.23ZM23.448 21.84a1.81 1.81 0 0 1-1.34.51 1.825 1.825 0 0 1-1.308-.593l-2.935-3.111a1.813 1.813 0 0 1-.509-1.338A1.81 1.81 0 0 1 17.95 16a1.792 1.792 0 0 1 1.34-.502 1.824 1.824 0 0 1 1.304.594l2.928 3.116a1.801 1.801 0 0 1 .51 1.338 1.795 1.795 0 0 1-.583 1.293Zm-1.74-.91a.652.652 0 0 0 .47.214.649.649 0 0 0 .482-.191.658.658 0 0 0 .216-.469.647.647 0 0 0-.182-.485l-2.937-3.125a.65.65 0 0 0-.472-.21.666.666 0 0 0-.484.19.646.646 0 0 0-.214.473.647.647 0 0 0 .19.481l2.93 3.122ZM13.524 20.851l2.105-2.433 5.922 5.13-.775.893-5.036-4.362-1.34 1.54-.876-.768ZM12.143 25.909a1.806 1.806 0 0 1-.765-1.21 1.764 1.764 0 0 1 .31-1.386l1.073-1.512 6.395 4.528-1.074 1.512a1.78 1.78 0 0 1-1.21.755 1.821 1.821 0 0 1-1.39-.321l-3.339-2.366Zm.89-2.47-.412.574a.626.626 0 0 0-.109.504.671.671 0 0 0 .28.434l3.344 2.37a.67.67 0 0 0 .505.117.642.642 0 0 0 .437-.27l.411-.573-4.456-3.156ZM14.192 34.569l-.556 1.103-6.447-4.62.511-1.011 4.118 1.338-3.534-2.485.509-1.007 7.588 2.359-.557 1.102-4.027-1.337 3.486 2.396-.557 1.105-4.028-1.338 3.494 2.395ZM5.752 34.615l.419-1.103 7.332 2.771-.42 1.103-7.331-2.771ZM12.426 39.359l-5.491.057 5.06 1.445-.323 1.136-7.538-2.15.348-1.216 5.273-.191-4.827-1.378.325-1.136 7.537 2.15-.364 1.283ZM11.322 43.927l-5.447.692 5.194.848-.19 1.166-7.736-1.265.204-1.246 5.216-.795-4.954-.809.192-1.166 7.735 1.266-.214 1.309ZM2.995 46.87l7.828.427-.192 3.356-1.18-.063.118-2.179-2.145-.117-.088 1.59-1.178-.062.086-1.59-2.141-.117-.119 2.177-1.18-.065.191-3.356ZM10.708 52.958c.03.657-.129 1.148-.477 1.47a1.968 1.968 0 0 1-1.303.468l-1.138.054a1.825 1.825 0 0 1-1.433-.564l-3.381 1.032-.06-1.271 2.924-.856a.97.97 0 0 1 0-.107l-.032-.677-2.955.138-.053-1.18 7.83-.365.078 1.858Zm-1.856.791c.455-.023.673-.256.652-.703l-.034-.711-2.503.117.034.71a.632.632 0 0 0 .222.467.65.65 0 0 0 .486.172l1.143-.052ZM99.399 50.257a1.798 1.798 0 0 1-.525 1.338 1.812 1.812 0 0 1-1.308.574l-4.294.082a1.798 1.798 0 0 1-1.34-.524 1.805 1.805 0 0 1-.573-1.311 1.79 1.79 0 0 1 .524-1.338 1.822 1.822 0 0 1 1.313-.574l.893-.017.025 1.224-.915.019a.658.658 0 0 0-.48.208.669.669 0 0 0-.191.487.65.65 0 0 0 .21.473.664.664 0 0 0 .486.19l4.301-.081a.655.655 0 0 0 .479-.209.652.652 0 0 0 .191-.48.665.665 0 0 0-.206-.48.652.652 0 0 0-.485-.19l-1.544.03.014.656-1.183.023-.036-1.88 2.738-.053a1.79 1.79 0 0 1 1.34.524 1.816 1.816 0 0 1 .566 1.31ZM91.055 46.09a1.808 1.808 0 0 1 .382-1.387 1.815 1.815 0 0 1 1.25-.71l4.242-.532a1.818 1.818 0 0 1 1.389.382 1.818 1.818 0 0 1 .71 1.248 1.793 1.793 0 0 1-.383 1.378 1.822 1.822 0 0 1-1.25.705l-4.243.534a1.8 1.8 0 0 1-1.387-.383 1.79 1.79 0 0 1-.71-1.235Zm1.76-.871a.66.66 0 0 0-.451.254.654.654 0 0 0-.134.499.667.667 0 0 0 .254.451.633.633 0 0 0 .5.138l4.257-.535a.646.646 0 0 0 .447-.259.65.65 0 0 0 .136-.498.645.645 0 0 0-.256-.451.651.651 0 0 0-.498-.134l-4.255.535ZM97.69 38.656l.729 3.136-7.638 1.766-.266-1.147 6.494-1.504-.462-1.986 1.143-.265ZM94.406 34.563a1.816 1.816 0 0 1 1.43.094 1.783 1.783 0 0 1 .94 1.065l.592 1.758-7.427 2.502-.594-1.757a1.78 1.78 0 0 1 .102-1.422 1.82 1.82 0 0 1 1.077-.932l3.88-1.308Zm1.477 2.171-.227-.674a.628.628 0 0 0-.345-.383.673.673 0 0 0-.516-.028l-3.884 1.307a.669.669 0 0 0-.383.34.641.641 0 0 0-.038.51l.228.674 5.165-1.745ZM86.195 31.123l-.574-1.101 7.531-2.485.519 1.008-3.5 2.545 4.09-1.395.517 1.004-6.373 4.744-.574-1.1 3.444-2.467-3.995 1.412-.574-1.099 3.444-2.467-3.955 1.4ZM91.118 24.28l.648.988-6.557 4.293-.647-.988 6.556-4.293ZM83.353 26.882l3.182-4.471-4.146 3.25-.727-.93 6.172-4.826.781.998-2.95 4.367 3.953-3.088.727.929-6.173 4.826-.819-1.055ZM80.306 23.302l2.644-4.81-3.743 3.697-.832-.839 5.574-5.506.89.9-2.425 4.68 3.568-3.526.83.84-5.573 5.506-.933-.942ZM82.817 14.844l-4.947 6.074-2.61-2.123.746-.916 1.691 1.378 1.357-1.664-1.236-1.006.746-.915 1.236 1.005 1.359-1.663-1.694-1.378.746-.915 2.606 2.123ZM73.354 17.499c-.55-.361-.853-.778-.91-1.25-.037-.474.099-.946.382-1.328l.628-.956a1.824 1.824 0 0 1 1.299-.826L75.9 9.8l1.064.701-1.026 2.867.092.056.574.373 1.626-2.468.988.65-4.311 6.54-1.554-1.02Zm.45-1.965c-.255.382-.192.696.191.94l.593.383 1.378-2.091-.593-.383a.643.643 0 0 0-.51-.095.663.663 0 0 0-.426.292l-.633.954Z"/></svg>