<svg xmlns="http://www.w3.org/2000/svg" width="103" height="103" fill="none"><g clip-path="url(#a)"><path fill="#B4E300" d="M74.8 20.846H7.867C3.522 20.846 0 24.374 0 28.726v56.359c0 4.352 3.522 7.88 7.867 7.88H74.8c4.345 0 7.867-3.528 7.867-7.88v-56.36c0-4.351-3.522-7.88-7.867-7.88Z"/><path fill="#16171A" d="M70.552 71.661c.095-.5.195-1 .283-1.502.149-.834.27-1.672.44-2.5.08-.396.24-.79.75-.796.512-.005.686.333.771.759l.735 3.606a.991.991 0 0 0 .226.507c.07-.282.166-.562.21-.847.158-1.044.294-2.088.447-3.13.106-.727.707-1.105 1.246-.807.399.227.452.593.367.993-.297 1.438-.604 2.874-.91 4.31-.09.423-.17.847-.279 1.265-.14.552-.435.77-1.009.78-.573.011-.96-.257-1.08-.784-.168-.724-.291-1.458-.444-2.185-.05-.24-.13-.472-.196-.707l-.153.014c-.088.413-.184.822-.265 1.236-.095.491-.163.989-.263 1.473-.12.605-.46.92-1.005.944-.544.024-.95-.184-1.103-.8a68.17 68.17 0 0 1-.76-3.385 38.012 38.012 0 0 1-.438-2.493c-.055-.392.195-.668.579-.736.384-.068.735 0 .919.414.078.173.136.354.173.54.161 1.058.305 2.119.468 3.177.047.225.108.447.184.663l.107-.009ZM43.411 71.661c.162-.963.32-1.928.49-2.89.065-.427.152-.85.262-1.267.096-.345.289-.648.715-.64.427.01.651.28.736.68l.753 3.754a.896.896 0 0 0 .212.468c.077-.17.139-.348.183-.53.166-1.076.316-2.153.473-3.23.014-.103.014-.208.036-.309.122-.602.51-.92 1-.823.454.09.7.517.583 1.105-.219 1.104-.465 2.196-.702 3.293-.16.737-.309 1.486-.491 2.223-.143.585-.44.79-1.048.793a.984.984 0 0 1-1.022-.793c-.167-.722-.29-1.457-.444-2.182-.055-.258-.148-.506-.221-.758l-.15.012c-.168.89-.34 1.779-.499 2.67-.158.891-.928 1.355-1.654.875-.276-.185-.474-.591-.551-.934-.368-1.56-.699-3.13-1.03-4.7a5.57 5.57 0 0 1-.084-.823.679.679 0 0 1 .606-.777c.41-.072.8.048.91.495.156.633.26 1.289.368 1.928.108.639.184 1.266.28 1.896.042.163.095.324.16.479l.13-.015ZM57.55 73.666c-.088.128-.182.25-.283.368a.774.774 0 0 1-1.307-.282 2.261 2.261 0 0 1-.09-.714c-.008-2.423-.008-4.846 0-7.27.007-.242.035-.482.084-.719.076-.423.368-.552.767-.532.399.02.717.184.735.643.02.5.015 1.002.02 1.504v.853c.258-.184.386-.284.519-.369 1.05-.723 2.488-.163 2.573 1.089.116 1.461.125 2.93.026 4.392-.127 1.657-1.482 2.173-2.833 1.173-.055-.044-.116-.075-.211-.136Zm1.47-3.13c-.027-.521-.053-1.057-.086-1.59-.026-.397-.17-.748-.612-.774a.638.638 0 0 0-.682.654 54.114 54.114 0 0 0 0 3.498.616.616 0 0 0 .702.615c.436-.028.566-.368.596-.726.05-.552.062-1.104.09-1.679l-.008.002ZM65.288 73.61c-.522.481-1.064.765-1.738.665-.978-.143-1.513-.974-1.416-2.139.078-.943.491-1.631 1.395-2.009a7.346 7.346 0 0 0 1.153-.598 1.49 1.49 0 0 0 .54-.587.61.61 0 0 0-.393-.87c-.465-.117-.777.063-.919.525-.2.68-.42.827-1.084.737a.59.59 0 0 1-.572-.617c-.057-.92.605-1.709 1.69-1.82a6.02 6.02 0 0 1 1.9.161c.678.153.998.63 1.014 1.333.031 1.331.035 2.664.06 3.995a5.36 5.36 0 0 0 .067.877c.077.412.055.767-.386.957a.901.901 0 0 1-1.143-.339c-.043-.07-.085-.143-.168-.27Zm-.062-3.004c-.981.342-1.404.908-1.345 1.718.022.318.119.648.457.648a.936.936 0 0 0 .706-.368c.351-.62.325-1.302.182-1.998ZM79.95 73.61c-.71.625-1.444.921-2.312.46a1.4 1.4 0 0 1-.746-1.067c-.25-1.58.079-2.235 1.503-2.98.31-.16.623-.308.92-.474.15-.083.367-.171.407-.3.089-.29.171-.637.08-.9-.054-.155-.478-.306-.679-.25a.957.957 0 0 0-.551.552c-.193.596-.476.8-1.13.664-.425-.088-.605-.427-.519-.975.108-.71.78-1.339 1.706-1.448a5.249 5.249 0 0 1 1.704.096c.843.184 1.198.69 1.215 1.576.024 1.212.013 2.423.025 3.635 0 .328.024.656.07.981.063.416.085.808-.367 1.024-.453.215-.839.066-1.177-.378-.051-.053-.079-.112-.149-.215Zm.035-2.085c0-.315.044-.505-.014-.652-.04-.103-.252-.238-.337-.208a1.625 1.625 0 0 0-1.103 1.574c0 .378.101.726.52.772.42.046.679-.232.78-.615.067-.287.119-.578.154-.871ZM49.923 68.253a1.42 1.42 0 0 1 1.175-1.243 6.012 6.012 0 0 1 1.803-.1c.787.104 1.298.621 1.458 1.424.07.268.118.54.145.816.06 1.522-.184 1.679-1.54 1.624-.243-.011-.488 0-.736 0-.845 0-.847 0-.809.819.005.208.023.415.056.62.073.407.206.834.711.809.505-.026.654-.428.67-.853a.697.697 0 0 1 .622-.714c.552-.118.954.213.972.788a1.904 1.904 0 0 1-1.286 1.872c-1.21.437-2.649.076-3.09-.847a4.455 4.455 0 0 1-.312-1.399c-.03-.432-.034-.865-.011-1.298.006-.775.064-1.55.172-2.318Zm2.156 1.41c.776 0 .798-.013.8-.567 0-.648-.25-1.012-.698-1.012-.449 0-.736.405-.765 1.042-.033.607.377.543.663.537Z"/><path fill="#B4E300" d="M90.616 73.793c-.45.193-.81.434-1.202.503-1.04.184-1.853-.394-1.936-1.527a25.82 25.82 0 0 1 0-4.396c.157-1.576 1.61-2.068 2.892-1.09.065.032.132.06.202.08 0-.638-.028-1.238.013-1.84.02-.295.084-.669.277-.847a.99.99 0 0 1 .848-.168 1.051 1.051 0 0 1 .527.67c.094.36.043.755.043 1.136v6.592c0 .208-.013.414-.02.622a.749.749 0 0 1-.593.76.837.837 0 0 1-.959-.353l-.092-.142Zm-1.5-3.202c.012.58.06 1.159.142 1.733.044.222.35.543.551.552.2.01.605-.3.612-.482.057-1.2.06-2.407 0-3.607-.01-.2-.388-.503-.632-.552-.38-.067-.513.309-.552.626-.066.565-.084 1.143-.12 1.73ZM84.733 67.874l.368-.58c.251-.405.626-.57 1.07-.42.442.15.532.552.536.968 0 .464-.184.816-.638.954-1.318.392-1.318.387-1.32 1.786 0 .932.011 1.865 0 2.797-.012.648-.308.948-.856.935-.504-.013-.792-.326-.798-.95-.013-1.865-.009-3.73 0-5.595 0-.656.22-.92.712-.941.571-.024.735.144.849.849.02.068.045.134.077.197ZM84.419 62.251h-2.086c-.507-.07-1.013-.153-1.522-.21-1.596-.184-3.057-.653-4.1-1.966-.824-1.035-1.313-2.252-1.637-3.511-.573-2.23-1.066-4.48-1.588-6.724-.89-3.83-1.777-7.66-2.661-11.49-.825-3.56-1.65-7.12-2.478-10.68-.16-.686-.33-1.369-.496-2.054a.595.595 0 0 0-.258.357c-.163.711-.321 1.42-.476 2.132l-1.762 8.127c-.519 2.37-1.054 4.736-1.57 7.105-.368 1.709-.717 3.424-1.088 5.133-.4 1.841-.789 3.692-1.237 5.523-.368 1.529-.748 3.066-1.258 4.552-.582 1.697-1.79 2.885-3.569 3.25a18.965 18.965 0 0 1-7.24.06 4.848 4.848 0 0 1-3.48-2.47c-.843-1.455-1.277-3.064-1.737-4.664a3008.53 3008.53 0 0 1-1.998-6.997c-.646-2.264-1.303-4.527-1.946-6.793-.871-3.066-1.728-6.137-2.599-9.206-.596-2.099-1.202-4.196-1.805-6.293-.382-1.331-.722-2.677-1.164-3.99-.6-1.788-1.135-3.588-.998-5.495.405-5.588 6.176-7.334 9.829-5.215 1.793 1.043 2.681 2.75 3.163 4.659.882 3.516 1.67 7.055 2.502 10.584.709 3.017 1.42 6.033 2.135 9.05.702 2.945 1.413 5.89 2.13 8.837.13.528.278 1.053.418 1.578h.15c.146-.759.285-1.521.44-2.278.533-2.614 1.079-5.225 1.605-7.841.45-2.24.878-4.485 1.316-6.73.536-2.761 1.04-5.523 1.615-8.263.43-2.052.871-4.113 1.46-6.125.571-1.963 1.838-3.404 3.887-3.929a15.127 15.127 0 0 1 6.726-.107c1.948.383 3.369 1.54 4.043 3.393a41.752 41.752 0 0 1 1.427 4.995c.551 2.416.987 4.86 1.492 7.288.38 1.83.798 3.654 1.19 5.483.457 2.135.904 4.273 1.358 6.408.386 1.813.774 3.626 1.165 5.437.158.737.327 1.46.49 2.19a1.24 1.24 0 0 0 .3-.586c.662-2.824 1.31-5.652 1.98-8.47 1.078-4.565 2.165-9.13 3.259-13.692.617-2.577 1.143-5.2 1.91-7.732.996-3.315 3.415-5.39 7.047-5.043 2.648.25 4.582 1.716 5.255 4.177.412 1.502.263 3.01-.149 4.485a2807.264 2807.264 0 0 1-4.334 15.403 5241.423 5241.423 0 0 1-5.123 17.936c-.632 2.186-1.287 4.367-2.068 6.501-.707 1.935-2.033 3.301-4.176 3.664-.562.083-1.127.159-1.69.247Z"/><path fill="#16171A" d="M82.667 44.073c-.053.232-.106.464-.162.696a1.24 1.24 0 0 1-.3.586c-.163-.737-.332-1.458-.49-2.19-.391-1.811-.78-3.623-1.165-5.436-.454-2.136-.901-4.273-1.359-6.41-.391-1.827-.808-3.652-1.189-5.482-.322-1.55-.616-3.104-.93-4.656a7.904 7.904 0 0 0-2.272-.335H58.864c-.531 2.577-1.009 5.168-1.51 7.75-.438 2.245-.866 4.49-1.317 6.73-.525 2.616-1.071 5.227-1.604 7.841-.155.757-.294 1.52-.44 2.278h-.15c-.14-.525-.289-1.05-.418-1.578-.713-2.946-1.423-5.892-2.13-8.837-.718-3.015-1.43-6.031-2.136-9.05-.402-1.71-.796-3.422-1.193-5.133H34.464c.064.201.13.402.197.6.44 1.313.78 2.66 1.163 3.99.603 2.098 1.21 4.194 1.805 6.293.871 3.066 1.728 6.137 2.599 9.206.643 2.267 1.3 4.53 1.947 6.794l1.998 6.996c.457 1.6.893 3.21 1.736 4.664a4.858 4.858 0 0 0 3.48 2.47c2.395.445 4.853.425 7.24-.06 1.78-.368 2.987-1.552 3.57-3.25.509-1.486.884-3.023 1.257-4.551.448-1.841.836-3.682 1.237-5.524.367-1.708.717-3.424 1.088-5.133.517-2.37 1.051-4.735 1.57-7.105.591-2.708 1.18-5.417 1.762-8.126.155-.713.313-1.422.477-2.132a.595.595 0 0 1 .257-.357c.165.684.336 1.367.496 2.054l2.478 10.679 2.661 11.49c.522 2.245 1.015 4.495 1.588 6.724.324 1.26.813 2.476 1.636 3.511 1.044 1.313 2.505 1.786 4.1 1.965.51.059 1.016.141 1.523.211h.334l.004-18.183Z"/></g><defs><clipPath id="a"><path fill="#fff" d="M0 0h102.2v102.2H0z"/></clipPath></defs></svg>