<svg width="200" height="140" viewBox="0 0 200 140" fill="none" xmlns="http://www.w3.org/2000/svg">
<g clip-path="url(#clip0_749_34622)">
<path d="M136.903 97.5789C136.887 97.562 136.873 97.5326 136.855 97.5284C135.386 97.2155 134.167 96.5434 133.634 95.0548C133.005 93.3011 132.994 91.5347 133.834 89.8328C134.252 88.9868 134.92 88.2867 135.838 88.1001C136.867 87.8896 137.974 87.7423 139 87.8896C140.779 88.1464 141.829 89.5887 142.078 91.7269C142.12 92.0874 142.125 92.4522 142.151 92.8872H134.759C134.509 94.286 135.359 95.8054 136.607 96.2741C138.021 96.8058 139.706 96.3582 140.389 95.1811C140.831 94.4193 141.461 94.9131 142.087 94.7251C141.784 95.9612 141.096 96.73 140.024 97.172C139.645 97.3277 139.251 97.4456 138.864 97.5817H136.901L136.903 97.5789ZM134.708 91.7718H140.524C140.576 90.0068 139.581 88.8914 137.945 88.8352C136.155 88.7735 134.766 90.0236 134.707 91.7718H134.708Z" fill="white"/>
<path d="M49.7243 97.5789C49.6879 97.5522 49.6528 97.5059 49.6135 97.4989C47.9509 97.2225 46.7443 96.3582 46.2729 94.7097C45.7201 92.7735 45.7201 90.8317 47.0474 89.1888C48.3129 87.623 50.1088 87.5262 51.9215 87.9078C53.6584 88.274 54.4034 89.5957 54.7486 91.1951C54.8608 91.7128 54.8875 92.2474 54.966 92.8801H47.5202C47.3322 94.4136 48.1361 95.8181 49.4002 96.2797C50.8538 96.8114 52.4294 96.3302 53.2137 95.0983C53.6444 94.4207 54.2533 94.9047 54.8496 94.7307C54.5002 96.1141 53.6738 96.8816 52.4715 97.2955C52.167 97.4007 51.8555 97.4849 51.5469 97.5789H49.7243ZM53.3343 91.7858C53.194 89.7065 52.1417 88.6963 50.3459 88.8423C48.6609 88.9783 47.4023 90.2761 47.5202 91.7858H53.3329H53.3343Z" fill="white"/>
<path d="M100.462 97.5789C100.427 97.5494 100.396 97.5045 100.356 97.4933C96.971 96.5434 95.5174 92.9784 97.2628 89.9057C98.2098 88.239 100.271 87.3957 102.356 87.8237C104.334 88.2291 105.75 89.743 105.896 91.797C105.96 92.7062 105.876 93.6658 105.646 94.5469C105.266 96.0005 104.227 96.9082 102.786 97.3488C102.569 97.4147 102.357 97.5003 102.142 97.576H100.46L100.462 97.5789ZM97.9559 92.6122C98.1116 93.2912 98.1804 93.9759 98.4301 94.589C98.9366 95.8321 99.9215 96.4592 101.277 96.4592C102.624 96.4592 103.618 95.87 104.143 94.6171C104.7 93.2884 104.696 91.9331 104.111 90.6129C103.572 89.3992 102.583 88.8324 101.27 88.8394C99.9538 88.8451 98.9618 89.4301 98.4554 90.6507C98.2014 91.2625 98.12 91.9443 97.9559 92.6136V92.6122Z" fill="white"/>
<path d="M66.6838 97.5789C66.6277 97.541 66.5758 97.4807 66.5141 97.4695C62.2124 96.7245 62.0412 91.1166 64.1289 89.0654C65.5768 87.6427 67.3489 87.4365 69.1966 88.0145C71.0093 88.5813 71.9437 89.9647 72.1303 91.8069C72.2089 92.5813 72.1668 93.4007 72.0027 94.1611C71.6519 95.7915 70.6263 96.8662 69.01 97.353C68.7926 97.419 68.5807 97.5031 68.366 97.5775H66.6838V97.5789ZM64.2159 92.4649C64.3127 93.1033 64.3464 93.5957 64.4656 94.0657C64.829 95.5137 65.9472 96.42 67.3643 96.4593C68.9343 96.5028 70.0609 95.7213 70.5239 94.2285C70.8718 93.1061 70.8578 91.9767 70.4579 90.8669C70.0048 89.6069 68.9932 88.8872 67.6421 88.8353C66.2938 88.7848 65.1966 89.4175 64.6915 90.6508C64.4404 91.2639 64.3478 91.9416 64.2145 92.4635L64.2159 92.4649Z" fill="white"/>
<path d="M156.245 97.5789C155.091 97.1117 154.826 96.1703 154.837 95.0436C154.857 93.1145 154.843 91.1853 154.843 89.1874H153.596V88.1183C154.001 88.0973 154.387 88.079 154.833 88.0566V85.1467H156.257V88.0678H158.439V89.1748H156.282C156.282 91.2835 156.243 93.3067 156.301 95.327C156.326 96.2474 156.856 96.5196 157.75 96.2236C157.969 96.1506 158.182 96.0608 158.4 95.978C158.677 97.0696 158.642 97.1327 157.506 97.5789H156.245Z" fill="white"/>
<path d="M62.537 60.4578H74.342V67.9106H73.6138C68.8267 67.9106 64.0396 67.9176 59.2525 67.8994C58.7741 67.898 58.4991 68.0257 58.2816 68.4648C57.6937 69.6546 57.068 70.8247 56.4394 71.9934C55.2763 74.1541 53.4468 75.3087 51.0013 75.3228C44.8856 75.3593 38.7684 75.3354 32.5039 75.3354C32.8392 74.9201 33.1002 74.5848 33.3738 74.2607C40.6526 65.6013 47.982 56.9853 55.1851 48.2641C57.9014 44.9755 61.263 43.2946 65.4608 43.1291C66.906 43.0716 68.3525 43.0098 69.799 43.007C77.6461 42.9958 85.4918 43.0014 93.3389 43.0014H94.2214V75.3003H76.8716V50.6268C76.6934 50.5875 76.584 50.5412 76.4746 50.5412C74.9565 50.537 73.4384 50.5314 71.9204 50.5412C69.2939 50.5567 67.369 51.8222 66.074 54.0151C64.8561 56.0776 63.7618 58.2144 62.5356 60.4592L62.537 60.4578Z" fill="white"/>
<path d="M158.471 43.021C156.9 44.8969 155.425 46.6661 153.942 48.4283C147.968 55.5346 141.887 62.5553 136.059 69.778C132.961 73.6167 129.083 75.3031 124.32 75.32C115.282 75.3522 106.244 75.3424 97.204 75.3494C97.0665 75.3494 96.9304 75.327 96.7466 75.3101V43.0435H114.096V68.0214C116.435 67.8713 118.659 67.8811 120.829 67.543C122.795 67.2372 124.076 65.7682 125.024 64.1028C126.223 61.9983 127.344 59.8503 128.481 57.7121C130.463 53.9912 132.442 50.269 134.402 46.5384C135.598 44.2627 137.472 43.0491 140.03 43.0337C146.124 42.9972 152.218 43.0224 158.47 43.0224L158.471 43.021Z" fill="white"/>
<path d="M32 97.1819C32.7436 95.4688 33.4367 93.8721 34.127 92.2769C35.3757 89.3951 36.637 86.5189 37.8548 83.6245C38.0625 83.1292 38.3823 83.1306 38.7878 83.139C39.1582 83.146 39.4697 83.0997 39.6675 83.5852C41.4704 88.0257 43.3069 92.4509 45.1337 96.8816C45.1589 96.9433 45.1702 97.0121 45.215 97.1819C44.8208 97.1819 44.4602 97.1566 44.1039 97.1889C43.718 97.2225 43.5188 97.0921 43.3869 96.7147C43.1175 95.9472 42.8159 95.1868 42.4707 94.4502C42.3795 94.2552 42.0849 94.0335 41.8801 94.0307C39.7334 93.9998 37.5854 93.9998 35.4388 94.0307C35.2354 94.0335 34.9463 94.258 34.8481 94.4544C34.5268 95.0984 34.2364 95.7634 34.0091 96.4467C33.8197 97.0163 33.5293 97.2997 32.9049 97.1903C32.658 97.1468 32.3957 97.1833 32.0014 97.1833L32 97.1819ZM38.7092 84.9307C37.6191 87.5936 36.5977 90.0896 35.5595 92.6263H41.7861C40.7633 90.0685 39.7657 87.574 38.7092 84.9307Z" fill="white"/>
<path d="M131.084 97.1412H129.684C129.684 96.0286 129.691 94.9356 129.683 93.8441C129.674 92.7259 129.712 91.602 129.618 90.4894C129.492 88.9868 128.264 88.3681 126.943 89.1061C125.83 89.7276 125.426 90.7701 125.415 91.9851C125.399 93.6841 125.411 95.3832 125.411 97.1313H123.986C123.986 96.8802 123.986 96.6333 123.986 96.3849C123.986 94.7055 123.986 93.0261 123.985 91.3467C123.985 91.1138 123.978 90.8795 123.949 90.6494C123.849 89.889 123.703 89.1313 122.814 88.9068C121.888 88.6725 121.105 88.9882 120.492 89.6953C119.899 90.3786 119.689 91.2078 119.688 92.0959C119.686 93.7501 119.688 95.4056 119.688 97.1201H118.315V88.1282H119.655C119.672 88.4733 119.689 88.7932 119.713 89.2814C120.479 88.2657 121.353 87.696 122.579 87.7451C123.828 87.7956 124.583 88.4958 125.179 89.5101C125.446 89.2169 125.669 88.9461 125.916 88.702C126.962 87.6708 128.218 87.5038 129.541 87.9696C130.477 88.2993 131.041 89.078 131.066 90.0545C131.125 92.4018 131.086 94.7504 131.086 97.1398L131.084 97.1412Z" fill="white"/>
<path d="M72.1557 83.1418C72.5289 83.1418 72.8572 83.1755 73.1757 83.1334C73.6597 83.0688 73.8604 83.2849 74.0329 83.717C75.4851 87.3453 76.9624 90.9636 78.4342 94.5848C78.5114 94.7742 78.5956 94.9594 78.7317 95.2723C78.8916 94.9342 79.0151 94.7027 79.1147 94.46C80.5317 90.9931 81.9712 87.5347 83.3364 84.0468C83.6254 83.3088 83.9902 82.9987 84.7534 83.1376C84.9106 83.1657 85.0761 83.1418 85.3006 83.1418C85.2515 83.3368 85.2332 83.4869 85.1757 83.623C83.3518 87.9794 81.5152 92.3316 79.7124 96.6964C79.5075 97.1916 79.1904 97.2071 78.785 97.1832C78.3921 97.1608 77.9937 97.2997 77.7622 96.7371C75.9579 92.3484 74.1171 87.9738 72.2904 83.5936C72.2385 83.4701 72.2118 83.3354 72.1543 83.1432L72.1557 83.1418Z" fill="white"/>
<path d="M145.607 89.5368C146.415 88.3428 147.328 87.7269 148.632 87.7535C150.253 87.7858 151.492 88.7202 151.576 90.3323C151.693 92.5827 151.606 94.843 151.606 97.1411H150.217C150.217 96.1674 150.217 95.2176 150.217 94.2677C150.217 93.1944 150.216 92.1225 150.217 91.0492C150.218 90.1541 149.995 89.3698 149.1 88.9713C148.328 88.6276 147.189 88.918 146.524 89.6013C145.891 90.2523 145.612 91.0618 145.594 91.9485C145.565 93.4175 145.574 94.8865 145.569 96.3554C145.569 96.6066 145.569 96.8577 145.569 97.1439H144.159V88.1351H145.532C145.555 88.549 145.576 88.9517 145.608 89.5368H145.607Z" fill="white"/>
<path d="M108.061 88.124H109.43V89.5368C109.706 89.2001 109.869 88.9868 110.049 88.789C111.004 87.7395 112.212 87.5291 113.504 87.8967C114.777 88.2586 115.424 89.2464 115.463 90.5077C115.533 92.6922 115.483 94.8809 115.483 97.1257H114.08C114.08 96.8942 114.08 96.6501 114.08 96.4046C114.08 94.6326 114.082 92.862 114.08 91.0899C114.077 89.9324 113.66 89.1832 112.888 88.9251C112.021 88.6347 110.881 88.9938 110.241 89.7725C109.615 90.5329 109.437 91.4365 109.433 92.3891C109.427 93.9493 109.433 95.508 109.433 97.1243H108.062V88.1226L108.061 88.124Z" fill="white"/>
<path d="M57.0552 88.1225H58.4161V89.7346C59.4698 88.3975 60.7241 87.675 62.4428 87.7816V88.8872C62.1944 88.9236 61.9475 88.9629 61.6992 88.9938C59.5371 89.2674 58.4708 90.4417 58.4414 92.6248C58.4217 94.112 58.4371 95.5992 58.4371 97.1341H57.0552V88.1239V88.1225Z" fill="white"/>
<path d="M92.1814 97.1481H90.8457V88.1351H92.1996V89.7121C93.235 88.3821 94.502 87.682 96.2151 87.7746V88.8844C95.9401 88.9264 95.651 88.977 95.3592 89.0148C93.3276 89.2758 92.2417 90.4796 92.2193 92.5252C92.2052 93.83 92.2193 95.1334 92.215 96.4382C92.215 96.6641 92.194 96.8914 92.1814 97.1495V97.1481Z" fill="white"/>
<path d="M86.416 88.1212H87.7349V97.1271H86.416V88.1212Z" fill="white"/>
<path d="M166.822 85.172C166.714 85.0078 166.523 84.8479 166.515 84.6781C166.478 84.0075 166.499 83.334 166.374 82.6283C166.142 83.1937 165.923 83.7662 165.669 84.3232C165.541 84.6024 165.352 84.8521 165.189 85.1145C165.012 84.8395 164.803 84.5785 164.668 84.2853C164.419 83.7437 164.211 83.1825 163.859 82.6508V85.0345C163.79 85.0766 163.721 85.1187 163.653 85.1608C163.543 85.0247 163.343 84.8914 163.338 84.7539C163.312 83.7311 163.324 82.7083 163.324 81.7079C163.9 81.5003 164.197 81.6574 164.372 82.2004C164.579 82.8345 164.872 83.4407 165.185 84.1969C165.495 83.4617 165.791 82.8612 166 82.2312C166.17 81.7177 166.432 81.4961 167 81.6785V85.0654L166.822 85.1734V85.172Z" fill="white"/>
<path d="M160.986 82.3042C160.62 81.9044 159.945 82.4375 159.792 81.6686H162.541C162.527 81.8987 162.209 82.0774 161.587 82.2046C161.504 83.1713 161.423 84.138 161.327 85.1018C161.327 85.1102 161.156 85.1018 160.986 85.1018V82.3028V82.3042Z" fill="white"/>
<path d="M86.3389 84.7118H87.7966V86.1906H86.3389V84.7118Z" fill="white"/>
</g>
<defs>
<clipPath id="clip0_749_34622">
<rect width="135" height="54.5789" fill="white" transform="translate(32 43)"/>
</clipPath>
</defs>
</svg>
