<svg width="200" height="140" viewBox="0 0 200 140" fill="none" xmlns="http://www.w3.org/2000/svg">
<path fill-rule="evenodd" clip-rule="evenodd" d="M102.29 72.095C102.585 72.2519 102.964 72.2366 103.226 72.0043L103.236 72.013C104.027 71.3186 105.466 70.0873 106.276 69.4178C106.599 69.1575 106.542 68.7356 106.288 68.3792C106.211 68.2733 106.132 68.1695 106.054 68.0663C105.407 67.2088 104.792 66.3935 104.792 64.758V58.6717C104.792 58.4624 104.793 58.2546 104.795 58.0483L104.795 58.0454C104.809 55.709 104.821 53.5774 103.049 51.9458C101.529 50.5071 99.0073 50 97.0779 50C93.3059 50 89.0966 51.3879 88.2125 55.9822C88.1193 56.4707 88.4794 56.7274 88.8042 56.7996L92.647 57.21C93.0062 57.1923 93.2667 56.8434 93.3355 56.4909C93.6663 54.9086 95.0096 54.1448 96.5222 54.1448C97.3379 54.1448 98.2648 54.4409 98.7472 55.1601C99.2462 55.8811 99.2386 56.8389 99.2317 57.7006L99.2316 57.7016C99.2309 57.8005 99.2301 57.8981 99.2301 57.9939V58.501C98.8731 58.5404 98.4992 58.5778 98.1142 58.6164C96.018 58.8261 93.5918 59.0689 91.7749 59.8554C89.2903 60.9125 87.5469 63.0696 87.5469 66.2417C87.5469 70.3014 90.1435 72.332 93.4807 72.332C96.3002 72.332 97.8411 71.6763 100.017 69.4915C100.127 69.6479 100.225 69.7921 100.318 69.9279L100.318 69.9284C100.834 70.6838 101.174 71.1811 102.29 72.095ZM99.2301 62.6723L99.23 62.4771V61.6313C96.3613 61.6313 93.333 62.2366 93.333 65.5644C93.333 67.2563 94.2227 68.3986 95.7433 68.3986C96.8554 68.3986 97.8571 67.7216 98.4871 66.6227C99.2329 65.3266 99.2316 64.1095 99.2301 62.6723V62.6723ZM109.737 54.4321V51.6055C109.74 51.175 110.088 50.8887 110.507 50.8903L124.103 50.8887C124.538 50.8887 124.887 51.1831 124.887 51.602V54.0261C124.883 54.4329 124.515 54.9629 123.864 55.8053L116.821 65.1749C119.434 65.1181 122.2 65.4833 124.576 66.7271C125.111 67.0075 125.255 67.4224 125.297 67.83V70.8464C125.297 71.2614 124.808 71.7428 124.295 71.492C120.111 69.4494 114.557 69.2266 109.929 71.5177C109.457 71.7518 108.962 71.2777 108.962 70.8616V67.9949C108.962 67.5356 108.972 66.7516 109.468 66.0523L117.628 55.1446L110.523 55.1438C110.089 55.1438 109.74 54.8556 109.737 54.4321ZM109.606 75.8643C112.072 75.5646 117.533 74.9009 118.508 76.1677C119.485 77.4373 117.423 82.6647 116.502 85.0016L116.502 85.0016L116.502 85.0018L116.501 85.003C116.222 85.709 116.821 85.9943 117.451 85.4599C121.544 81.9825 122.602 74.6957 121.764 73.6436C120.933 72.6007 113.775 71.701 109.406 74.8165C108.734 75.2951 108.85 75.9565 109.595 75.8657L109.606 75.8643ZM88.4785 89.0037C97.7814 89.0037 108.585 86.044 116.037 80.4783C117.27 79.5565 116.213 78.1753 114.954 78.7161C106.599 82.3026 97.5206 84.0373 89.2612 84.0373C77.0178 84.0373 65.1633 80.6377 55.5772 74.9922C54.7384 74.4984 54.1164 75.3688 54.8141 76.0069C63.6989 84.1261 75.44 89.0037 88.4785 89.0037ZM58.4735 72.6687H62.3535C62.7669 72.6687 63.1021 72.3486 63.1021 71.9498L63.1036 61.358L63.1033 61.1056C63.0995 58.82 63.0946 55.8507 65.7836 55.8507C68.2569 55.8507 68.2153 58.4985 68.1814 60.6523C68.1776 60.8953 68.1739 61.1321 68.1739 61.358L68.1774 71.9514C68.1774 72.3344 68.4847 72.644 68.8743 72.6687H72.75C73.1634 72.6687 73.4978 72.3486 73.4978 71.9498V61.358C73.4978 61.2742 73.4976 61.1874 73.4974 61.0982C73.4949 59.9779 73.4915 58.4668 73.86 57.5317C74.2589 56.5225 75.237 55.892 76.179 55.892C77.3011 55.892 78.1703 56.2707 78.46 57.617C78.6069 58.2626 78.5876 59.7605 78.5749 60.7544V60.7545V60.7546V60.7548V60.755V60.7552C78.5719 60.9903 78.5692 61.1973 78.5692 61.358L78.5704 71.9514C78.5704 72.3344 78.8766 72.644 79.2661 72.6687H83.1414C83.5553 72.6687 83.89 72.3486 83.89 71.9498L83.8939 59.34C83.8939 59.031 83.8992 58.716 83.9045 58.3979V58.3979C83.9359 56.5086 83.9691 54.5151 82.9151 53.0753C81.8287 51.5617 80.0539 50.8887 78.424 50.8887C76.1426 50.8887 74.0056 52.0665 73.0632 54.5893C71.9771 52.0665 70.4553 50.8887 68.029 50.8887C65.6391 50.8887 63.864 52.0665 62.9227 54.5893H62.8495V51.9808C62.826 51.6155 62.5226 51.3287 62.1444 51.3095L58.531 51.3106C58.1172 51.3106 57.7824 51.6292 57.7824 52.0295L57.7793 72.0103C57.8094 72.3663 58.1043 72.6444 58.4735 72.6687ZM152.896 73.5299H149.056C148.67 73.5042 148.364 73.1824 148.364 72.7842L148.357 52.0053C148.39 51.6247 148.71 51.3274 149.098 51.3274L152.673 51.3262C153.01 51.3449 153.287 51.5855 153.358 51.9077V55.0848H153.431C154.51 52.243 156.02 50.8888 158.683 50.8888C160.41 50.8888 162.101 51.5438 163.181 53.337C164.188 54.9975 164.188 57.7944 164.188 59.8057V72.8761C164.145 73.2441 163.83 73.5299 163.449 73.5299H159.586C159.229 73.5058 158.941 73.2306 158.9 72.8761V61.5984C158.9 61.4224 158.901 61.24 158.903 61.0534L158.903 61.0515C158.921 58.829 158.945 56.0029 156.489 56.0029C155.553 56.0029 154.69 56.6587 154.258 57.6633C153.718 58.9317 153.646 60.1981 153.646 61.5984V72.7826C153.639 73.1971 153.307 73.5299 152.896 73.5299ZM51.1163 72.0044C50.8636 72.2366 50.498 72.252 50.2134 72.0951C49.1358 71.1804 48.8088 70.683 48.3115 69.9266C48.2224 69.7912 48.1279 69.6475 48.0227 69.4915C45.9237 71.6763 44.4381 72.332 41.7209 72.332C38.5027 72.332 36 70.3014 36 66.2418C36 63.0697 37.6801 60.9125 40.0759 59.8554C41.8273 59.0691 44.166 58.8263 46.1859 58.6166C46.5574 58.578 46.9182 58.5405 47.2625 58.501V57.994C47.2625 57.8969 47.2632 57.7981 47.264 57.6979C47.2708 56.8369 47.2784 55.8804 46.7981 55.1602C46.333 54.441 45.4389 54.1449 44.6529 54.1449C43.195 54.1449 41.8983 54.9086 41.5805 56.4909C41.5142 56.8434 41.2631 57.1924 40.9164 57.2101L37.2122 56.7996C36.899 56.7275 36.5511 56.4708 36.6414 55.9823C37.4926 51.388 41.5508 50 45.189 50C47.0484 50 49.4798 50.5071 50.9458 51.9459C52.654 53.5785 52.6421 55.7116 52.6289 58.0497C52.6278 58.2555 52.6266 58.4629 52.6266 58.6717V64.7581C52.6266 66.3942 53.2196 67.2095 53.8436 68.0674L53.8437 68.0676C53.9184 68.1704 53.9936 68.2738 54.0683 68.3792C54.3121 68.7357 54.368 69.1576 54.0567 69.4178C53.2757 70.0873 51.8876 71.3187 51.1251 72.0131L51.1163 72.0044ZM47.2612 62.4772L47.2613 62.6763C47.2628 64.1118 47.2641 65.3278 46.5461 66.6228C45.9391 67.7217 44.9729 68.3987 43.9003 68.3987C42.4347 68.3987 41.5762 67.2564 41.5762 65.5645C41.5762 62.2366 44.497 61.6314 47.2612 61.6314V62.4772ZM132.404 61.6301C132.404 59.1176 132.595 55.0909 135.603 55.0909C136.899 55.0909 137.814 55.6533 138.271 57.083C138.804 58.7287 138.88 60.8082 138.88 62.5405C138.88 65.1817 138.729 69.5127 135.566 69.5127C132.403 69.5127 132.404 64.2629 132.404 61.7164L132.404 61.6301ZM144.9 62.4966C144.9 56.0003 141.624 50.8887 135.567 50.8887C129.662 50.8887 126.387 55.8696 126.387 62.2801C126.387 68.6457 129.625 73.7577 135.567 73.7577C141.282 73.7577 144.9 68.7756 144.9 62.4966Z" fill="#16171A"/>
</svg>
