<svg width="200" height="140" viewBox="0 0 200 140" fill="none" xmlns="http://www.w3.org/2000/svg">
<path fill-rule="evenodd" clip-rule="evenodd" d="M86.8006 25.977C91.0678 24.6974 95.5914 24 100.283 24C125.843 24 146.565 44.4782 146.565 69.7374C146.565 94.9967 125.843 115.476 100.283 115.476C74.7216 115.476 54 94.9967 54 69.7374C54 53.2913 62.7847 38.8797 75.9691 30.8205V68.405V69.8286C75.9691 82.9906 86.769 93.663 100.087 93.663C113.41 93.663 124.206 82.9906 124.206 69.8286C124.206 56.6643 113.41 45.9942 100.087 45.9942C95.1759 45.9942 90.6111 47.4551 86.8006 49.947V25.977ZM114.184 69.7379C114.184 77.3242 107.96 83.4749 100.283 83.4749C92.6047 83.4749 86.3818 77.3242 86.3818 69.7379C86.3818 62.1504 92.6047 56.001 100.283 56.001C107.96 56.001 114.184 62.1504 114.184 69.7379Z" fill="#16171A"/>
</svg>
