<svg width="200" height="140" viewBox="0 0 200 140" fill="none" xmlns="http://www.w3.org/2000/svg">
<path fill-rule="evenodd" clip-rule="evenodd" d="M146.725 79.3603C151.969 79.3603 156.183 75.1459 156.183 69.8543C156.183 64.6488 151.969 60.3887 146.725 60.3887C141.477 60.3887 137.223 64.6488 137.223 69.8543C137.223 75.1459 141.477 79.3603 146.725 79.3603ZM146.726 80.2214C138.642 80.2214 132.794 75.1023 130.3 69.8542C132.794 64.6908 138.642 59.5718 146.726 59.5718C154.765 59.5718 160.654 64.6908 163.148 69.8542C160.654 75.1023 154.765 80.2214 146.726 80.2214ZM146.726 87.7924C156.614 87.7924 164.352 79.7491 164.352 69.854C164.352 60.045 156.614 52 146.726 52C136.878 52 129.056 60.045 129.056 69.854C129.056 79.7491 136.878 87.7924 146.726 87.7924ZM52.2987 54.0332C42.4481 54.0332 35 60.6137 35 70.3673C35 80.0747 42.4481 86.7032 52.2987 86.7032C60.5479 86.7032 64.7427 81.6846 66.581 77.4693L58.3783 73.6818C57.5794 76.144 55.1268 78.2754 52.2987 78.2754C47.727 78.2754 44.6619 74.7715 44.6619 70.3673C44.6619 65.9649 47.727 62.461 52.2987 62.461C55.1268 62.461 57.5794 64.5911 58.3783 67.0528L66.581 63.2186C64.6944 58.8629 60.5479 54.0332 52.2987 54.0332ZM87.2228 74.7261C88.6069 74.7261 89.4685 75.6246 89.4685 76.7609C89.4685 77.9458 88.6069 78.7496 87.2228 78.7496H79.4904V74.7261H87.2228ZM86.9381 63.0766C87.94 63.0766 88.8464 63.7879 88.8464 64.8758C88.8464 66.0122 87.94 66.7697 86.9381 66.7697H79.4904V63.0766H86.9381ZM69.8487 55.1225V86.7035H89.8492C94.3316 86.7035 97.1492 84.6573 98.434 81.9179C101.77 84.8166 106.298 86.7032 112.839 86.7032C121.317 86.7032 126.476 82.6739 126.476 75.7029C126.476 67.8846 118.711 66.3962 113.507 65.3986C110.884 64.8957 108.911 64.5175 108.911 63.5161C108.911 62.7112 109.431 62.0936 111.324 62.0936C114.31 62.0936 117.861 63.1368 120.605 65.2231L125.72 58.4436C122.121 55.5038 117.482 54.0332 112.32 54.0332C103.656 54.0332 99.2027 59.1538 99.2027 64.513C99.2027 72.8642 107.102 74.2403 112.32 75.1495C114.895 75.598 116.817 75.9329 116.817 76.9353C116.817 78.1682 115.113 78.6423 113.315 78.6423C109.052 78.6423 105.501 76.8405 103.134 74.5649L98.9253 80.5854C99.1438 79.7949 99.2517 78.9692 99.2517 78.135C99.2517 74.0609 96.6258 70.9359 93.1909 70.4162C96.2926 69.7533 98.6338 67.1023 98.6338 63.1712C98.6338 59.4785 95.7697 55.1225 89.1805 55.1225H69.8487Z" fill="#16171A"/>
</svg>
