<svg width="200" height="140" viewBox="0 0 200 140" fill="none" xmlns="http://www.w3.org/2000/svg">
<g clip-path="url(#clip0_749_34636)">
<path d="M96.1696 80.3777H92.1764V68.2072C92.1561 68.202 92.1362 68.1962 92.1158 68.191C92.0902 68.2443 92.0594 68.296 92.0406 68.3519C91.1874 70.8681 90.3322 73.3831 89.4889 75.9024C89.4168 76.1182 89.3171 76.1772 89.1018 76.1736C88.3709 76.161 87.6389 76.1621 86.908 76.173C86.7199 76.1757 86.6348 76.1182 86.5742 75.9374C85.7398 73.4479 84.8976 70.961 84.057 68.4736C84.0283 68.3895 83.9933 68.3075 83.9614 68.2244C83.9389 68.2286 83.9159 68.2328 83.8935 68.237C83.8935 68.3268 83.8935 68.4167 83.8935 68.5066C83.8935 72.3544 83.8935 76.2028 83.893 80.0507C83.893 80.2778 83.7808 80.3913 83.5565 80.3913C82.4249 80.3913 81.2927 80.3913 80.1611 80.3913C80.0749 80.3913 79.9892 80.3913 79.8784 80.3913V59.6421C79.9646 59.6374 80.0404 59.6296 80.1167 59.629C81.2922 59.628 82.4672 59.6332 83.6427 59.6233C83.8402 59.6217 83.9311 59.6839 84.0016 59.8662C85.2858 63.1802 86.5768 66.492 87.8662 69.8038C87.907 69.9083 87.9514 70.0112 88.0198 70.1763C88.0762 70.0525 88.1128 69.9809 88.1421 69.9067C89.4456 66.563 90.7502 63.2193 92.0469 59.873C92.1174 59.6907 92.1968 59.6212 92.398 59.6228C93.5646 59.6332 94.7312 59.628 95.8979 59.6285C95.983 59.6285 96.0677 59.6364 96.1701 59.6411V80.3772L96.1696 80.3777Z" fill="white"/>
<path d="M147.803 80.3333V79.9885C147.803 73.3805 147.804 66.772 147.799 60.164C147.799 59.9415 147.848 59.8542 148.086 59.8166C150.236 59.4744 152.392 59.3239 154.555 59.6369C155.89 59.8302 157.107 60.2988 158.057 61.3202C158.705 62.0182 159.091 62.8374 159.246 63.7695C159.428 64.8525 159.447 65.9335 159.155 67.0024C158.747 68.493 157.865 69.6225 156.535 70.4036C156.438 70.4605 156.341 70.518 156.245 70.576C156.24 70.5791 156.24 70.5922 156.232 70.6241C156.33 70.6758 156.434 70.7291 156.538 70.785C157.474 71.2881 158.002 72.124 158.279 73.0989C158.556 74.0733 158.731 75.0774 158.939 76.0706C159.237 77.498 159.498 78.9337 159.994 80.3375C159.917 80.3427 159.852 80.35 159.788 80.35C158.543 80.3506 157.298 80.3459 156.053 80.3547C155.861 80.3563 155.769 80.2988 155.73 80.1118C155.477 78.9044 155.207 77.7002 154.964 76.4912C154.789 75.6224 154.668 74.7431 154.48 73.8774C154.408 73.5446 154.245 73.2233 154.08 72.9202C153.749 72.3121 153.2 72.0561 152.524 72.0477C151.812 72.0389 151.813 72.0409 151.813 72.7483C151.813 75.1689 151.813 77.5889 151.813 80.0094C151.813 80.1118 151.813 80.2142 151.813 80.3333H147.802H147.803ZM151.814 65.8091C151.814 66.6184 151.814 67.4277 151.814 68.2375C151.814 68.9663 151.814 68.9684 152.537 68.9564C153.333 68.9438 154.021 68.6774 154.543 68.0588C155.22 67.2558 155.38 66.2997 155.312 65.2914C155.267 64.6148 155.127 63.9544 154.663 63.4267C153.94 62.6034 153.003 62.4936 151.988 62.6728C151.805 62.7052 151.812 62.827 151.813 62.9628C151.814 63.9116 151.814 64.8603 151.814 65.8086V65.8091Z" fill="white"/>
<path d="M128.26 71.7421C127.941 72.3283 127.65 72.8518 127.373 73.3821C127.324 73.4756 127.323 73.601 127.323 73.7112C127.32 75.8005 127.321 77.8898 127.321 79.9791V80.3318H123.335V59.5966H127.339V68.7913L127.43 68.8075C127.462 68.7448 127.5 68.6842 127.527 68.6194C128.72 65.6817 129.914 62.7439 131.102 59.8046C131.169 59.6395 131.246 59.5674 131.439 59.5684C132.744 59.5789 134.05 59.5737 135.356 59.5742C135.431 59.5742 135.507 59.581 135.618 59.5862C135.292 60.2194 134.98 60.8275 134.667 61.4352C133.485 63.7292 132.304 66.0244 131.115 68.3153C131.01 68.5175 131 68.6826 131.087 68.8968C132.585 72.6083 134.076 76.3235 135.568 80.0382C135.603 80.1254 135.635 80.2142 135.68 80.3323C135.578 80.3396 135.498 80.3501 135.417 80.3501C134.128 80.3511 132.84 80.3459 131.552 80.3568C131.347 80.3584 131.269 80.2842 131.206 80.104C130.267 77.4149 129.322 74.7279 128.378 72.0404C128.35 71.9615 128.317 71.8847 128.261 71.7426L128.26 71.7421Z" fill="white"/>
<path d="M101.789 59.5742C102.442 59.5742 103.067 59.5742 103.693 59.5742C104.582 59.5742 105.47 59.5804 106.357 59.5695C106.563 59.5669 106.638 59.6285 106.677 59.8328C107.329 63.212 107.989 66.5892 108.646 69.9673C109.308 73.3711 109.968 76.776 110.628 80.1803C110.637 80.2221 110.636 80.2654 110.641 80.3307H106.76C106.616 79.5711 106.471 78.8062 106.327 78.0413C106.185 77.2906 106.042 76.5403 105.907 75.7885C105.882 75.6511 105.828 75.5963 105.687 75.5968C104.555 75.6004 103.423 75.6004 102.291 75.5968C102.148 75.5968 102.098 75.6563 102.072 75.7911C101.798 77.2148 101.518 78.6369 101.24 80.0596C101.222 80.1515 101.198 80.2424 101.176 80.3412H97.2881C98.788 73.4192 100.285 66.5118 101.789 59.5752V59.5742ZM105.501 72.4579C105.028 69.4538 104.561 66.4904 104.094 63.5271C104.073 63.5307 104.053 63.5339 104.032 63.5375C103.535 66.5071 103.036 69.4773 102.537 72.4584H105.501V72.4579Z" fill="white"/>
<path d="M56.2102 80.3391H52.2097C52.2045 80.2403 52.1956 80.1484 52.1956 80.0559C52.1951 73.4218 52.1956 66.7872 52.1909 60.1531C52.1909 59.943 52.2364 59.8558 52.4636 59.8166C54.1245 59.5277 55.7932 59.4112 57.4776 59.5057C58.2953 59.5517 59.1045 59.6416 59.8919 59.8803C61.8203 60.4655 63.0903 61.7131 63.5814 63.6723C64.071 65.6242 63.932 67.5395 62.9963 69.3519C62.1766 70.9396 60.8083 71.8262 59.1328 72.3043C58.2707 72.5503 57.3888 72.6214 56.4985 72.5995C56.2687 72.5937 56.2049 72.6658 56.206 72.8952C56.2138 75.2546 56.2107 77.614 56.2112 79.9734C56.2112 80.0857 56.2112 80.198 56.2112 80.3391H56.2102ZM56.2102 66.0939C56.2102 66.5897 56.2102 67.086 56.2102 67.5818C56.2102 68.0865 56.2175 68.5912 56.2065 69.0959C56.2028 69.2704 56.2603 69.3592 56.4322 69.3676C56.6229 69.377 56.8141 69.3906 57.0048 69.3869C58.2597 69.3634 59.2305 68.6701 59.6134 67.5097C59.9185 66.586 59.9159 65.6451 59.7022 64.7047C59.5847 64.189 59.36 63.7172 58.9614 63.3536C58.2106 62.6681 57.323 62.6363 56.3894 62.828C56.2149 62.8641 56.2081 62.979 56.2086 63.1185C56.2112 64.1106 56.2096 65.1023 56.2096 66.0944L56.2102 66.0939Z" fill="white"/>
<path d="M146.239 80.3396H136.892V59.5914H145.869V63.0531H140.909C140.901 63.1613 140.891 63.2444 140.891 63.3274C140.89 65.0343 140.895 66.7406 140.886 68.4475C140.885 68.6784 140.95 68.7411 141.179 68.7395C142.564 68.7291 143.948 68.7395 145.333 68.728C145.584 68.7259 145.656 68.7949 145.652 69.0473C145.637 69.9349 145.646 70.8236 145.646 71.7118C145.646 71.8147 145.646 71.9181 145.646 72.0655H140.904V76.8443H146.239V80.3401V80.3396Z" fill="white"/>
<path d="M68.2485 76.2665C69.3331 76.7785 70.4626 77.0251 71.6444 77.0345C72.2526 77.0392 72.8419 76.9515 73.3816 76.6495C74.1903 76.1965 74.5921 75.3293 74.4866 74.3753C74.3842 73.4469 73.8748 72.7771 73.1658 72.2457C72.5122 71.7557 71.8189 71.3194 71.1491 70.8508C69.9078 69.9819 68.8859 68.9219 68.295 67.5003C67.1513 64.747 68.3044 60.455 72.5885 59.5747C74.0555 59.2732 75.508 59.3155 76.939 59.78C77.7164 60.0323 77.7179 60.0355 77.5748 60.8296C77.4186 61.6937 77.2582 62.5568 77.0978 63.4199C77.0905 63.4607 77.0701 63.4988 77.0696 63.5004C76.5403 63.3243 76.0346 63.1138 75.508 62.9915C74.8345 62.8353 74.1444 62.8186 73.4662 63.0056C71.6345 63.5108 71.4292 65.5829 72.4511 66.6445C73.124 67.3436 73.9521 67.8247 74.7656 68.3279C75.9191 69.0415 76.9254 69.9041 77.6354 71.0843C79.0607 73.4526 78.6625 76.7838 76.6971 78.6975C75.7331 79.6364 74.5493 80.1651 73.2363 80.3887C71.5065 80.6834 69.807 80.5324 68.1513 79.942C67.6414 79.7602 67.6351 79.7518 67.7187 79.2335C67.8728 78.2743 68.0385 77.3167 68.2004 76.3585C68.2046 76.3345 68.2234 76.313 68.248 76.2671L68.2485 76.2665Z" fill="white"/>
<path d="M121.221 63.2324C120.757 63.132 120.316 63.0014 119.865 62.9455C118.395 62.7632 117.223 63.3024 116.35 64.4878C115.657 65.4298 115.33 66.5212 115.159 67.657C114.881 69.496 114.89 71.3356 115.301 73.1579C115.501 74.0477 115.831 74.8857 116.414 75.6067C117.112 76.4708 118.021 76.9468 119.123 76.9567C119.751 76.9624 120.38 76.824 121.008 76.7477C121.091 76.7378 121.172 76.7096 121.279 76.684C121.341 77.2059 121.4 77.7038 121.46 78.2017C121.523 78.7283 121.574 79.257 121.653 79.7811C121.683 79.9822 121.642 80.0804 121.442 80.1463C120.495 80.4561 119.518 80.5261 118.533 80.5287C116.867 80.5329 115.333 80.1149 114.008 79.0674C112.818 78.1265 112.058 76.8851 111.544 75.4792C111.046 74.1203 110.822 72.7107 110.746 71.2693C110.66 69.6345 110.758 68.0165 111.13 66.4214C111.558 64.5845 112.322 62.9163 113.692 61.5767C115.038 60.2601 116.657 59.5407 118.536 59.4106C119.472 59.3458 120.396 59.3991 121.299 59.6682C121.907 59.8495 121.905 59.8531 121.783 60.4618C121.606 61.3473 121.43 62.2334 121.253 63.1195C121.243 63.1681 121.226 63.2151 121.221 63.2324H121.221Z" fill="white"/>
<path d="M38.9999 59.5862C38.9999 60.4367 39.0041 61.2617 38.9989 62.0872C38.9931 63.0527 38.9722 64.0187 38.9696 64.9842C38.9628 67.2474 38.9665 69.5102 38.9592 71.7735C38.9544 73.2703 38.9372 74.7666 38.9273 76.2634C38.9252 76.6014 38.9283 76.6025 39.2758 76.6025C40.7642 76.6025 42.2527 76.6088 43.7406 76.5967C43.9966 76.5946 44.0567 76.6715 44.0588 76.9191C44.0661 77.9541 44.098 78.9891 44.1189 80.0246C44.121 80.1264 44.1074 80.2288 44.1006 80.3406H35V59.5862H38.9999Z" fill="white"/>
<path d="M49.8108 80.3359H45.8354V65.2992H49.8108V80.3364V80.3359Z" fill="white"/>
<path d="M164 78.5361C164.001 79.5475 163.198 80.3584 162.205 80.3484C161.215 80.3385 160.431 79.5423 160.427 78.5418C160.423 77.5314 161.208 76.7592 162.239 76.7587C163.227 76.7587 163.998 77.5371 163.999 78.5361H164ZM162.207 80.0068C163.018 80.0088 163.688 79.3396 163.684 78.5324C163.68 77.756 163.014 77.0852 162.237 77.0748C161.435 77.0638 160.748 77.7404 160.749 78.5413C160.749 79.3412 161.409 80.0041 162.207 80.0062V80.0068Z" fill="white"/>
<path d="M161.415 79.4686V77.6024C161.71 77.6024 161.993 77.5993 162.276 77.603C162.648 77.6082 162.866 77.7446 162.929 78.0037C162.997 78.2806 162.865 78.4938 162.529 78.6615C162.696 78.9237 162.862 79.1876 163.041 79.4702C162.742 79.5475 162.564 79.4963 162.441 79.2268C162.249 78.803 162.131 78.7304 161.781 78.7435C161.781 78.8924 161.782 79.0444 161.781 79.1965C161.78 79.5219 161.774 79.5261 161.414 79.4681L161.415 79.4686ZM161.784 77.8992C161.784 78.0371 161.768 78.1505 161.791 78.256C161.804 78.3198 161.871 78.4107 161.925 78.4206C162.05 78.4431 162.197 78.4572 162.308 78.4096C162.406 78.3678 162.528 78.2383 162.527 78.1489C162.526 78.0648 162.391 77.9384 162.291 77.9096C162.149 77.8684 161.985 77.8992 161.784 77.8992Z" fill="white"/>
<path d="M47.8017 63.4649C48.9478 63.4649 49.8769 62.4654 49.8769 61.2324C49.8769 59.9995 48.9478 59 47.8017 59C46.6557 59 45.7266 59.9995 45.7266 61.2324C45.7266 62.4654 46.6557 63.4649 47.8017 63.4649Z" fill="white"/>
</g>
<defs>
<clipPath id="clip0_749_34636">
<rect width="129" height="21.535" fill="white" transform="translate(35 59)"/>
</clipPath>
</defs>
</svg>
