<svg width="200" height="140" viewBox="0 0 200 140" fill="none" xmlns="http://www.w3.org/2000/svg">
<path fill-rule="evenodd" clip-rule="evenodd" d="M117.898 31.807C117.925 31.8697 117.952 31.9323 117.97 31.986C118.762 34.2768 118.69 36.4596 117.826 38.4281L105.077 67.4542L101.296 41.041C101.26 40.8262 101.26 40.6829 101.26 40.5041C101.223 40.0745 101.26 39.7168 101.332 39.3587C101.44 38.8577 101.62 38.4281 101.944 38.1419L102.7 37.5335L103.313 37.1399C104.104 36.8177 104.465 36.5315 104.285 36.3522C104.177 36.1734 103.708 36.066 102.988 35.9945H100.576V35.8157C100.431 34.527 100.576 33.2742 101.008 31.986C101.053 31.8669 101.104 31.7477 101.156 31.6259L101.156 31.6259C101.229 31.4551 101.305 31.2792 101.368 31.0914C102.304 29.0155 103.996 27.4765 106.446 26.5454C106.698 26.4386 106.95 26.3671 107.238 26.2952C108.714 25.9016 110.191 25.9016 111.667 26.2952C112.171 26.4386 112.676 26.6174 113.18 26.8322C115.413 27.8342 116.961 29.4091 117.826 31.6279C117.844 31.6816 117.871 31.7443 117.898 31.807ZM92.221 26.2957C92.509 26.3671 92.7613 26.4385 93.0131 26.5459C95.4619 27.4765 97.1547 28.9795 98.0911 31.0914C98.1354 31.2237 98.1859 31.3499 98.235 31.4726C98.3054 31.6487 98.3729 31.8175 98.4153 31.9865C98.7033 32.8452 98.8832 33.6324 98.9194 34.4201C98.9556 35.2433 98.8475 36.4955 98.5952 38.1419L94.3818 67.4542L81.6691 38.4286C80.7684 36.3881 80.7327 34.2413 81.4892 31.9865C81.5073 31.9316 81.5349 31.8676 81.5623 31.8039C81.5888 31.7424 81.6151 31.6811 81.6329 31.6284C82.4612 29.445 84.0098 27.8347 86.2786 26.8327C86.7827 26.6179 87.2868 26.4385 87.7915 26.2957C89.2676 25.9021 90.7443 25.9021 92.221 26.2957ZM78.9679 39.3589C78.7156 39.2161 78.4994 39.0727 78.2833 38.8934C76.4106 37.6411 74.178 37.247 71.585 37.7126C70.1807 37.9988 68.9563 38.5357 67.9119 39.3589C67.4796 39.7171 67.0835 40.0747 66.7232 40.5043C66.5462 40.7054 66.3869 40.9242 66.2329 41.1359C66.1677 41.2255 66.1034 41.3138 66.0391 41.3989C65.4988 42.1861 65.0665 42.9738 64.8147 43.833C64.3825 45.1212 64.3106 46.5168 64.5986 47.9843C64.8504 49.2371 65.2832 50.3824 65.8592 51.313C66.4714 52.279 67.2635 53.0662 68.1998 53.6752L94.1655 71.3196L82.4611 44.6556C82.3594 44.454 82.276 44.2524 82.1978 44.0633C82.165 43.984 82.1331 43.9069 82.1012 43.833C81.6328 42.6876 81.2005 41.8285 80.8044 41.2201C80.7265 41.127 80.6484 41.0272 80.5674 40.9236L80.5673 40.9235L80.5673 40.9234L80.5672 40.9234C80.4613 40.7879 80.3503 40.646 80.2279 40.5043C79.8681 40.1101 79.4358 39.7171 78.9679 39.3589ZM69.1367 56.7527C68.1641 56.3946 67.0478 56.2158 65.7154 56.2158C64.0587 56.2158 62.5102 56.6808 61.0335 57.6833C60.4932 58.0409 59.9891 58.4351 59.4849 58.9355C57.8283 60.6538 57 62.7298 57 65.1993C57 67.5969 57.8283 69.6729 59.4849 71.3906C60.2409 72.1424 61.0335 72.7148 61.898 73.1089C63.0862 73.7528 64.3824 74.0755 65.7154 74.0755H95.4622L72.4137 58.6498C72.2072 58.5215 72.0099 58.3933 71.8203 58.27L71.8202 58.2699C71.4805 58.0491 71.1654 57.8442 70.8652 57.6833C70.1811 57.2537 69.6046 56.9315 69.1367 56.7527ZM128.595 57.6833C128.293 57.8445 127.976 58.0506 127.635 58.2725C127.447 58.3951 127.251 58.5225 127.046 58.6498L103.997 74.075H133.744C135.509 74.075 137.166 73.538 138.75 72.4286C139.146 72.1419 139.543 71.7842 139.974 71.3906C140.047 71.3192 140.119 71.2478 140.227 71.1399C141.199 70.1024 141.848 68.9216 142.207 67.5609C142.316 67.1673 142.424 66.7383 142.46 66.3087C142.495 65.9506 142.495 65.557 142.495 65.1993C142.495 63.1948 141.956 61.4411 140.839 59.974C140.586 59.6159 140.299 59.2582 139.974 58.9355C139.47 58.4345 138.93 58.0409 138.39 57.6833C137.778 57.2178 137.093 56.8956 136.409 56.6453C135.545 56.3586 134.645 56.2158 133.744 56.2158C132.411 56.2158 131.295 56.3946 130.359 56.7527C129.891 56.9315 129.279 57.2537 128.595 57.6833ZM135.041 45.9804C134.969 44.4054 134.465 42.9024 133.456 41.3989C133.392 41.3138 133.327 41.2255 133.262 41.1358C133.108 40.9242 132.949 40.7054 132.772 40.5043C132.412 40.0748 132.016 39.7171 131.584 39.359C130.503 38.5358 129.279 37.9634 127.874 37.7131C125.281 37.2476 123.048 37.6412 121.176 38.8939C121.019 39.0235 120.844 39.1345 120.677 39.2401L120.677 39.2402C120.613 39.2803 120.551 39.3197 120.492 39.359C120.024 39.7531 119.627 40.1107 119.267 40.5043C119.015 40.7551 118.835 41.0053 118.691 41.2201C118.222 41.9359 117.647 43.0813 116.998 44.6557L105.294 71.3196L131.26 53.6752C132.232 53.0308 132.988 52.2796 133.6 51.3131C133.673 51.2416 133.708 51.1697 133.744 51.0628C134.068 50.5259 134.321 49.9175 134.537 49.2726C134.558 49.1936 134.582 49.1116 134.605 49.0276L134.605 49.0271C134.7 48.6934 134.803 48.3274 134.861 47.9844C135.005 47.3046 135.077 46.6247 135.041 45.9804ZM91.2129 81.2692V112.013H104.538C106.951 111.834 108.968 110.868 110.552 109.078C112.137 107.289 112.929 105.141 112.929 102.672C112.749 99.0569 110.948 96.5155 107.599 95.1204C110.012 93.6169 111.2 91.2907 111.2 88.1054C111.056 86.2437 110.372 84.7053 109.147 83.4525C107.923 82.1997 106.374 81.484 104.538 81.2692H91.2129ZM62.9062 112.013H69.5689V95.7995L88.1516 113.015V81.269H81.309V96.4444L62.9062 79.9448V112.013ZM137.31 88.0693V81.2691C135.114 80.3745 132.593 79.9449 129.712 79.9449C126.722 80.0882 123.949 80.8754 121.429 82.271C118.908 83.6317 116.891 85.5283 115.378 87.8905C113.866 90.2526 113.038 92.901 112.93 95.7996C112.93 98.9494 113.686 101.741 115.162 104.282C116.603 106.823 118.62 108.828 121.141 110.331C123.661 111.834 126.435 112.729 129.496 113.015C129.964 113.087 130.648 113.087 131.512 113.087C133.457 113.087 135.366 112.729 137.31 112.013V104.569C135.69 105.535 133.925 106.072 131.945 106.179C130.9 106.179 130.108 106.107 129.496 105.964C127.047 105.463 125.066 104.318 123.553 102.6C122.005 100.882 121.213 98.842 121.213 96.4445C121.213 93.903 122.077 91.7556 123.733 89.9664C125.426 88.1762 127.551 87.0673 130.108 86.7091C131.188 86.5658 131.908 86.4949 132.233 86.4949C133.673 86.4949 135.366 87.0313 137.31 88.0693ZM97.9473 105.964V98.5562H101.801C104.898 98.7344 106.482 100.095 106.482 102.564C106.482 103.745 105.978 104.604 105.042 105.141C104.07 105.713 102.989 105.964 101.801 105.964H97.9473ZM97.9473 93.5097V86.7095H101.189C102.053 86.7095 102.809 86.9962 103.457 87.64C104.142 88.2484 104.502 88.9642 104.538 89.7874C104.538 90.8254 104.25 91.6486 103.637 92.4003C103.025 93.1516 102.233 93.5097 101.297 93.5097H97.9473Z" fill="#16171A"/>
</svg>
