<svg width="200" height="140" viewBox="0 0 200 140" fill="none" xmlns="http://www.w3.org/2000/svg">
<g clip-path="url(#clip0_749_34607)">
<path d="M55.4334 88.4586C54.848 88.3332 54.2601 88.2221 53.6799 88.0787C47.8778 86.6534 45.1978 80.3073 48.2203 75.1398C49.4065 73.1123 51.2402 71.9415 53.4653 71.3613C55.7965 70.7527 58.1522 70.7359 60.4898 71.3252C65.0177 72.4675 67.4987 76.0585 67.0025 80.6937C66.5516 84.9102 63.7914 87.6328 59.2803 88.3151C59.0709 88.3461 58.8681 88.4095 58.6613 88.4586H55.4334ZM65.019 79.7568C64.9841 79.7491 64.9492 79.7426 64.9143 79.7349C64.8936 79.3071 64.8859 78.8781 64.851 78.4504C64.5577 74.7999 62.4927 72.24 59.1627 71.5423C58.1871 71.3381 57.152 71.298 56.1531 71.3549C52.8399 71.5448 50.4635 73.4961 49.5978 76.6917C49.0305 78.7864 49.0473 80.9004 49.6779 82.9783C50.4338 85.4645 52.0672 87.1056 54.6064 87.7789C56.1273 88.182 57.6689 88.195 59.204 87.8474C61.8957 87.2361 63.6557 85.5873 64.4336 82.9667C64.7412 81.9303 64.8303 80.8281 65.0177 79.7568H65.019Z" fill="white"/>
<path d="M119.852 88.4586C119.434 88.3694 119.016 88.2802 118.598 88.1898C115.943 87.607 114.387 85.9478 114.053 83.26C113.944 82.3697 113.941 81.4626 113.937 80.5632C113.924 77.7539 113.935 74.9446 113.935 72.1354C113.935 71.9015 113.935 71.6689 113.935 71.3807H115.878C115.851 71.8692 115.804 72.3512 115.799 72.8358C115.763 75.9668 115.727 79.0965 115.715 82.2275C115.714 82.6721 115.813 83.1243 115.914 83.5611C116.476 86.006 117.915 87.3667 120.411 87.6923C121.361 87.8163 122.349 87.828 123.299 87.7194C125.729 87.439 127.268 86.0305 127.83 83.6813C128.101 82.5454 128.217 81.3514 128.241 80.1794C128.297 77.2629 128.259 74.3438 128.259 71.3704H129.439C129.371 72.6277 129.291 73.8618 129.242 75.0971C129.157 77.1983 129.078 79.2994 129.019 81.4005C128.98 82.7509 128.755 84.0508 128.069 85.2332C127.035 87.0126 125.406 87.9146 123.44 88.3048C123.232 88.3462 123.028 88.4082 122.821 88.4612H119.852V88.4586Z" fill="white"/>
<path d="M164 87.4287C163.861 87.5889 163.745 87.7763 163.581 87.9016C163.175 88.2105 162.574 88.1278 162.264 87.722C161.939 87.2943 161.952 86.8498 162.307 86.444C162.642 86.0602 163.237 86.0202 163.631 86.351C163.775 86.4711 163.878 86.6391 164.001 86.7852V87.4287H164Z" fill="white"/>
<path d="M98.291 85.1479C101.082 80.39 103.773 75.8027 106.463 71.2166C106.511 71.2205 106.557 71.2244 106.605 71.227C107.298 76.8222 107.992 82.4175 108.695 88.0916C108.132 88.0916 107.576 88.1226 107.028 88.0683C106.901 88.0554 106.725 87.7556 106.707 87.5747C106.469 85.2268 106.272 82.8749 106.033 80.527C105.85 78.7373 105.624 76.9515 105.418 75.1643C105.359 75.123 105.301 75.0816 105.244 75.0403C105.058 75.2031 104.81 75.331 104.696 75.5339C102.473 79.4777 100.264 83.4306 98.0532 87.3822C97.9809 87.5101 97.915 87.6419 97.7935 87.8706C97.6449 87.6057 97.5338 87.4106 97.4252 87.2129C95.2931 83.3156 93.1635 79.4157 91.0197 75.5236C90.9215 75.3465 90.6967 75.2393 90.5313 75.0984C90.4447 75.2936 90.3013 75.4835 90.2793 75.6864C89.8451 79.7168 89.4265 83.7498 89.0026 87.7815C88.9936 87.8629 88.9729 87.9443 88.9535 88.0528H87.7466C88.6059 82.3774 89.4588 76.7447 90.3155 71.0939C92.9503 75.7342 95.5851 80.3784 98.2936 85.1479H98.291Z" fill="white"/>
<path d="M84.2398 88.0955C83.4347 88.0955 82.7873 88.1342 82.1503 88.0748C81.9254 88.0541 81.6786 87.8305 81.5158 87.638C79.4909 85.2461 77.4634 82.8568 75.4721 80.4365C74.8945 79.7349 74.2122 79.6573 73.4123 79.7969V88.0541H71.5244V71.3045C71.6355 71.3045 71.7984 71.3045 71.9612 71.3045C73.4873 71.2903 75.0147 71.2308 76.5382 71.2773C77.7335 71.3135 78.9482 71.3743 80.1124 71.6198C81.4266 71.8963 82.4061 72.6949 82.702 74.1008C83.0057 75.5416 82.6154 76.7834 81.53 77.781C80.5014 78.7269 79.2363 79.1908 77.8847 79.448C77.612 79.4997 77.3368 79.5423 76.9388 79.6095C79.3746 82.4407 81.7574 85.2112 84.2398 88.0955ZM73.4459 71.7865C73.4059 74.1835 73.3581 76.5173 73.3451 78.8497C73.3451 78.9892 73.6152 79.2361 73.7767 79.2503C74.481 79.3162 75.1917 79.3524 75.8985 79.3317C77.2347 79.2929 78.5049 78.9905 79.5749 78.1403C80.7275 77.2241 81.0842 75.9887 80.8736 74.5751C80.681 73.2816 79.8902 72.4533 78.6962 72.0113C77.0047 71.3846 75.2718 71.6573 73.4446 71.7865H73.4459Z" fill="white"/>
<path d="M63.4168 68.3337C62.9413 68.3337 62.4502 68.3376 61.9605 68.3311C61.8145 68.3298 61.6684 68.3027 61.5431 68.2898V59.5712H49.7233V68.2911H47.8418V51.5569H49.7233V58.8941H61.671C61.6038 56.426 61.5379 54.0315 61.4707 51.5789H63.4168V68.3337Z" fill="white"/>
<path d="M134.298 51.3243C138.924 55.8988 143.564 60.4874 148.325 65.1949V51.5569H149.239C149.147 57.1871 149.055 62.8147 148.969 68.1011C144.454 63.7283 139.723 59.1448 134.901 54.4735C134.721 59.0944 134.798 63.6417 134.987 68.2497H133.856C134.004 62.6105 134.151 56.97 134.298 51.3243Z" fill="white"/>
<path d="M36.8865 60.4551V68.2639H35.0102V51.5518C34.9818 51.5725 35.0154 51.5272 35.0477 51.5272C37.2186 51.5143 39.3882 51.491 41.5591 51.5027C42.0928 51.5053 42.633 51.5854 43.1563 51.6965C44.6579 52.0157 45.8855 52.7199 46.2434 54.3365C46.6375 56.1159 46.2783 57.7182 44.8091 58.9303C43.7107 59.8361 42.3874 60.2432 41.0009 60.3685C39.8495 60.4732 38.684 60.4318 37.5249 60.4538C37.3142 60.4577 37.1036 60.4538 36.8852 60.4538L36.8865 60.4551ZM36.7973 51.9045C36.7973 54.5846 36.7883 56.9816 36.8167 59.4859C36.818 59.6462 37.0868 59.9072 37.2664 59.9434C38.5005 60.1837 39.7397 60.1928 40.9725 59.8891C43.4432 59.2818 44.685 57.4972 44.3762 54.9878C44.1681 53.2963 43.3165 52.2715 41.6315 52.0557C40.0679 51.8542 38.4759 51.986 36.7961 51.9058L36.7973 51.9045Z" fill="white"/>
<path d="M145.335 88.0283C148.086 82.3244 150.831 76.6361 153.648 70.7953C156.317 76.6064 158.932 82.296 161.592 88.0864C160.907 88.0864 160.257 88.1071 159.611 88.067C159.494 88.0593 159.357 87.8163 159.288 87.6574C158.457 85.7268 157.626 83.7963 156.823 81.8554C156.666 81.4768 156.456 81.3475 156.055 81.3514C153.991 81.3669 151.928 81.3682 149.864 81.3514C149.465 81.3475 149.244 81.4651 149.094 81.8502C148.398 83.627 147.656 85.3857 146.964 87.1651C146.561 88.204 146.59 88.2156 145.335 88.0295V88.0283ZM152.993 73.416C151.831 75.9164 150.734 78.2772 149.601 80.7156H156.449C155.281 78.2501 154.166 75.8957 152.991 73.416H152.993Z" fill="white"/>
<path d="M116.311 68.2161C119.072 62.4929 121.811 56.8162 124.617 51C127.278 56.7917 129.893 62.4826 132.567 68.3027C131.886 68.3027 131.255 68.3234 130.627 68.2846C130.501 68.2768 130.342 68.0636 130.277 67.9111C129.445 65.9806 128.619 64.0474 127.813 62.1065C127.654 61.7228 127.46 61.538 127.013 61.5418C124.948 61.5638 122.885 61.5599 120.82 61.5431C120.41 61.5393 120.204 61.693 120.058 62.0665C119.352 63.8627 118.606 65.6433 117.906 67.4421C117.527 68.4138 117.487 68.4603 116.312 68.2148L116.311 68.2161ZM120.565 60.9332H127.425C126.255 58.4638 125.137 56.1016 123.961 53.6219C122.797 56.1301 121.7 58.4896 120.565 60.9332Z" fill="white"/>
<path d="M160.489 52.1682C160.31 52.6708 160.144 53.1335 159.953 53.6671C159.733 53.3583 159.555 53.0818 159.351 52.8259C158.353 51.5763 156.598 51.1783 154.952 51.8193C153.502 52.3853 152.676 53.6555 152.767 55.1894C152.828 56.227 153.299 57.0579 154.162 57.6045C154.828 58.027 155.559 58.3566 156.284 58.6744C157.091 59.0272 157.94 59.2844 158.741 59.6462C161.443 60.8647 162.232 63.5668 160.577 66.0387C160.193 66.6125 159.676 67.1733 159.091 67.5261C156.583 69.038 153.983 69.1142 151.347 67.8142C150.923 67.6049 150.711 67.3646 150.942 66.8632C151.081 66.5634 151.106 66.2132 151.205 65.7945C151.395 66.022 151.525 66.1783 151.656 66.336C152.959 67.9125 155.057 68.5586 157.009 67.9848C158.953 67.4137 160.087 65.5981 159.737 63.6042C159.561 62.6002 158.963 61.8701 158.091 61.4165C157.16 60.9319 156.168 60.5675 155.212 60.1308C154.452 59.7832 153.656 59.4795 152.962 59.0272C150.964 57.7234 150.565 54.8909 152.063 53.0378C153.77 50.9264 158.312 50.4444 160.488 52.1695L160.489 52.1682Z" fill="white"/>
<path d="M79.6083 65.7829C79.8176 66.0374 79.9624 66.2183 80.1123 66.3941C81.4329 67.9486 83.5547 68.5663 85.4892 67.9628C87.4158 67.3607 88.5336 65.474 88.1266 63.5306C87.9276 62.5808 87.3629 61.8869 86.5423 61.4423C85.714 60.9952 84.825 60.6606 83.9669 60.2677C83.1089 59.8749 82.1992 59.5596 81.4135 59.0543C79.0294 57.5244 78.9286 54.1065 81.168 52.3581C82.9939 50.9315 86.5255 50.7067 88.5297 51.8761C88.8179 52.0441 88.9445 52.1888 88.7727 52.53C88.6047 52.8659 88.509 53.2381 88.3553 53.6723C88.2377 53.5082 88.1653 53.4126 88.1007 53.3131C86.8847 51.4381 84.498 50.9496 82.6308 52.1927C80.7674 53.4332 80.6201 56.112 82.3982 57.4688C83.0352 57.9547 83.808 58.2803 84.5471 58.6137C85.369 58.9833 86.2386 59.2443 87.0618 59.6113C90.0985 60.9629 90.7523 64.3085 88.4535 66.7378C87.0049 68.2678 85.1325 68.7175 83.1076 68.6891C81.9084 68.6723 80.7674 68.4035 79.7156 67.7936C79.3395 67.5752 79.1005 67.38 79.3318 66.8942C79.4752 66.5918 79.5011 66.2339 79.607 65.7829H79.6083Z" fill="white"/>
<path d="M110.982 66.5298C111.073 67.1901 110.812 67.5002 110.311 67.7044C107.139 68.9953 103.939 69.0922 100.765 67.7948C97.3837 66.4122 95.4816 63.1287 95.7633 59.3645C96.0902 54.9968 98.694 52.1552 103.069 51.3734C105.622 50.9173 108.122 51.1253 110.584 51.9019C110.806 51.9717 111.02 52.0648 111.278 52.1604C111.156 52.6256 111.044 53.0546 110.905 53.5844C110.686 53.4177 110.511 53.2859 110.337 53.1528C107.149 50.726 102.315 51.0762 99.8312 53.9152C98.8853 54.9955 98.3503 56.2709 98.0918 57.6652C97.7791 59.3515 97.7959 61.0405 98.2081 62.71C99.1256 66.4212 102.213 68.574 106.162 68.2988C107.679 68.1928 109.054 67.6915 110.341 66.911C110.537 66.7921 110.737 66.6771 110.983 66.5311L110.982 66.5298Z" fill="white"/>
<path d="M73.2053 68.2717H71.4725C71.4725 67.066 71.3652 65.8837 71.4957 64.7259C71.7516 62.4412 71.1895 60.4913 69.8029 58.6266C68.2445 56.5307 66.9239 54.2577 65.5012 52.0609C65.412 51.9226 65.3345 51.7766 65.1846 51.5195C65.9341 51.5195 66.5905 51.4833 67.2392 51.5427C67.4227 51.5595 67.6217 51.8348 67.7419 52.0338C69.3016 54.6246 70.8483 57.2233 72.399 59.8193C72.5062 59.999 72.629 60.1695 72.7931 60.4189C73.3578 59.5596 73.9057 58.7907 74.3864 57.9831C75.4731 56.1598 76.5379 54.3223 77.5885 52.4783C78.1648 51.4665 78.1441 51.4536 79.4764 51.5389C79.3317 51.7663 79.2206 51.9511 79.1004 52.1307C77.2809 54.8611 75.4408 57.5786 73.6576 60.3336C73.3759 60.7678 73.2363 61.3635 73.2247 61.8882C73.1769 63.9854 73.2053 66.084 73.2053 68.2704V68.2717Z" fill="white"/>
<path d="M37.0066 88.067H35.0645V71.3135H44.4188V72.1328C41.9351 72.0359 39.458 71.939 36.9046 71.8395V78.8303H43.7649V79.5113H36.8115C36.8761 82.3245 36.9407 85.1609 37.0066 88.067Z" fill="white"/>
<path d="M144.478 87.3279V88.0502H135.196V71.3639H137.122C137.122 71.8498 137.124 72.315 137.122 72.7815C137.098 77.4993 137.078 82.2172 137.042 86.935C137.038 87.4028 137.224 87.514 137.654 87.501C139.909 87.4325 142.164 87.3847 144.48 87.3279H144.478Z" fill="white"/>
<path d="M94.063 68.2717H92.1738V51.5427H94.063V68.2717Z" fill="white"/>
<path d="M113.377 51.5259H115.25V68.2652H113.377V51.5259Z" fill="white"/>
</g>
<defs>
<clipPath id="clip0_749_34607">
<rect width="129" height="37.4586" fill="white" transform="translate(35 51)"/>
</clipPath>
</defs>
</svg>
