<svg width="200" height="140" viewBox="0 0 200 140" fill="none" xmlns="http://www.w3.org/2000/svg">
<path fill-rule="evenodd" clip-rule="evenodd" d="M164.7 66.7091H160.405V50H164.7V66.7091ZM58.1192 66.7088H62.4129V53.0132H58.1192V66.7088ZM58.1192 52.1779H62.4129V50.0005H58.1192V52.1779ZM41.4085 56.7395C41.4085 56.1345 41.3621 55.7245 41.2692 55.5114C41.1763 55.2983 41.0096 55.1915 40.7686 55.1915C40.5346 55.1915 40.3766 55.2844 40.2936 55.4702C40.2112 55.656 40.1699 56.0793 40.1699 56.7395V62.8391C40.1699 63.5754 40.2112 64.0416 40.2936 64.2379C40.3766 64.4336 40.5451 64.5317 40.7994 64.5317C41.0404 64.5317 41.2024 64.4307 41.2849 64.2274C41.3673 64.0242 41.4085 63.5824 41.4085 62.9013V56.7395ZM45.5786 53.0135V68.66H41.4086V65.6024C41.0027 66.1958 40.6293 66.5691 40.2884 66.7248C39.9481 66.8792 39.5266 66.957 39.0243 66.957C38.2949 66.957 37.691 66.7846 37.2125 66.4408C36.7346 66.0971 36.4129 65.6511 36.248 65.1048C36.0825 64.5572 36 63.7199 36 62.5917V56.5536C36 55.6252 36.0621 54.9319 36.1858 54.4744C36.3095 54.0168 36.6074 53.6179 37.0784 53.2771C37.5499 52.9362 38.1091 52.7661 38.756 52.7661C39.2792 52.7661 39.7606 52.8834 40.2007 53.118C40.6415 53.3526 41.0439 53.7073 41.4086 54.1829L41.4812 53.0135H45.5786ZM77.2705 88.7804H81.5647V72.0713H77.2705V88.7804ZM60.8282 88.7801H65.1225V75.0845H60.8282V88.7801ZM60.8282 74.2492H65.1225V72.0718H60.8282V74.2492ZM51.2198 75.4154V73.2584H47.0399V75.4154H46.1416V77.583H47.0399V84.5391C47.0399 85.9013 47.0771 86.7664 47.1532 87.1346C47.2287 87.5027 47.4215 87.8296 47.731 88.1147C48.0405 88.4009 48.3988 88.5827 48.8047 88.6622C49.2106 88.7412 49.8882 88.7807 50.8383 88.7807H52.52V86.5719C51.8388 86.5719 51.4521 86.5202 51.3591 86.4175C51.2662 86.3141 51.2198 85.8118 51.2198 84.9101V77.583H52.3446V75.4154H51.2198ZM57.2683 76.886L57.4332 75.0849H53.2627V88.7805H57.4332V83.3724C57.4332 82.0445 57.4745 81.1967 57.5569 80.8286C57.6394 80.4605 57.8595 80.173 58.2178 79.9669C58.5755 79.7602 59.1364 79.6569 59.9 79.6569V74.8375C58.7508 74.9136 57.8734 75.5958 57.2683 76.886ZM70.5053 83.4963C70.6121 83.1659 70.9995 82.7571 71.6667 82.2682V85.0861C71.6667 85.7741 71.6272 86.1992 71.5476 86.3606C71.4687 86.522 71.2985 86.6033 71.0372 86.6033C70.7614 86.6033 70.5779 86.4999 70.485 86.2938C70.3921 86.0871 70.3456 85.6296 70.3456 84.9206C70.3456 84.301 70.3984 83.8267 70.5053 83.4963ZM66.4335 80.3897H70.3456V78.9549C70.3456 78.1913 70.3799 77.7187 70.4484 77.5364C70.5175 77.3541 70.6929 77.2623 70.9751 77.2623C71.2225 77.2623 71.3996 77.3709 71.507 77.5875C71.6133 77.8046 71.6667 78.2709 71.6667 78.9862C71.6667 79.5576 71.6185 79.9356 71.5221 80.1214C71.4257 80.3072 70.6929 80.6684 69.3236 81.2049C68.0438 81.7002 67.2424 82.1339 66.9184 82.5055C66.5955 82.8771 66.4335 83.5751 66.4335 84.6005V85.7252C66.4335 87.1083 66.7384 88.0048 67.3475 88.4141C67.9561 88.8235 68.625 89.0284 69.355 89.0284C69.9124 89.0284 70.3921 88.9059 70.7945 88.6615C71.1969 88.4165 71.5256 88.0495 71.78 87.56V88.7805H75.8367V81.9069C75.8367 79.6429 75.7647 78.1484 75.6201 77.4226C75.4755 76.6968 75.0452 76.0848 74.3298 75.5854C73.6144 75.0866 72.5505 74.8375 71.1406 74.8375C69.9635 74.8375 69.0071 75.0576 68.2708 75.4977C67.5345 75.9384 67.0444 76.4459 66.7999 77.0202C66.5554 77.5944 66.4335 78.4114 66.4335 79.4711V80.3897ZM91.0823 88.7804H86.7881V72.0713H91.0823V88.7804ZM97.6258 82.2682C96.9585 82.7571 96.5712 83.1659 96.4644 83.4962C96.3575 83.8266 96.3047 84.301 96.3047 84.9206C96.3047 85.6295 96.3511 86.0871 96.4441 86.2938C96.537 86.4999 96.7205 86.6033 96.9963 86.6033C97.2576 86.6033 97.4278 86.522 97.5067 86.3606C97.5863 86.1991 97.6258 85.7741 97.6258 85.086V82.2682ZM96.3047 80.3896H92.3926V79.4711C92.3926 78.4114 92.5145 77.5944 92.759 77.0202C93.0035 76.4459 93.4936 75.9384 94.2299 75.4977C94.9662 75.0576 95.9226 74.8375 97.0997 74.8375C98.5096 74.8375 99.5735 75.0866 100.289 75.5854C101.004 76.0847 101.435 76.6967 101.579 77.4225C101.724 78.1483 101.796 79.6429 101.796 81.9068V88.7805H97.739V87.56C97.4847 88.0495 97.156 88.4164 96.7536 88.6615C96.3512 88.9059 95.8715 89.0284 95.3141 89.0284C94.5841 89.0284 93.9152 88.8235 93.3066 88.4141C92.6974 88.0047 92.3926 87.1082 92.3926 85.7251V84.6004C92.3926 83.575 92.5546 82.8771 92.8775 82.5055C93.2015 82.1339 94.0028 81.7001 95.2827 81.2048C96.652 80.6683 97.3848 80.3072 97.4812 80.1214C97.5776 79.9356 97.6258 79.5576 97.6258 78.9862C97.6258 78.2709 97.5724 77.8046 97.4661 77.5874C97.3587 77.3709 97.1816 77.2623 96.9342 77.2623C96.652 77.2623 96.4766 77.354 96.4075 77.5364C96.339 77.7187 96.3047 78.1913 96.3047 78.9549V80.3896ZM115.047 88.7806L116.711 75.085H113.12C112.616 78.0242 112.298 80.6383 112.165 82.9289L111.321 75.085H107.867C107.289 79.8132 106.977 82.4278 106.931 82.9289C106.351 78.0573 106.048 75.4427 106.02 75.085H102.426L104.193 88.7806H108.73L109.187 85.8083C109.387 84.5837 109.543 83.3696 109.657 82.1648C109.986 84.9025 110.274 87.1072 110.521 88.7806H115.047ZM126.637 75.085L125.445 84.9931C125.257 86.562 125.099 87.6315 124.972 88.2029C124.844 88.7737 124.633 89.2451 124.337 89.6162C124.041 89.9884 123.63 90.2618 123.104 90.4366C122.577 90.6126 121.737 90.7002 120.58 90.7002H118.052V88.5124C118.7 88.5124 119.117 88.4793 119.303 88.4142C119.489 88.3492 119.583 88.2029 119.583 87.9753C119.583 87.8655 119.496 87.3871 119.324 86.5405L117.041 75.085H120.826L122.196 84.3323L122.865 75.085H126.637ZM132.647 78.945V79.946H131.429V78.945C131.429 78.1745 131.464 77.7012 131.532 77.5259C131.601 77.3505 131.78 77.2623 132.069 77.2623C132.303 77.2623 132.458 77.3656 132.534 77.5723C132.609 77.7785 132.647 78.236 132.647 78.945ZM131.429 82.1751H136.827V80.3589C136.827 79.0309 136.675 78.0003 136.369 77.2675C136.062 76.5347 135.529 75.9466 134.768 75.5029C134.008 75.0588 133.043 74.8375 131.873 74.8375C130.917 74.8375 130.071 75.0216 129.334 75.3891C128.598 75.7578 128.068 76.2874 127.745 76.9789C127.421 77.6705 127.26 78.6146 127.26 79.8119V83.8055C127.26 84.824 127.332 85.5997 127.476 86.1328C127.621 86.6664 127.881 87.1547 128.256 87.5989C128.631 88.0425 129.155 88.392 129.829 88.6458C130.504 88.9007 131.281 89.0284 132.163 89.0284C133.071 89.0284 133.826 88.8989 134.428 88.6411C135.03 88.3827 135.527 87.996 135.92 87.4804C136.312 86.9642 136.561 86.4788 136.668 86.0248C136.774 85.5707 136.827 84.9204 136.827 84.0744V83.0629H132.875V84.8693C132.875 85.5498 132.821 86.0091 132.714 86.2471C132.608 86.484 132.396 86.6031 132.08 86.6031C131.825 86.6031 131.653 86.5137 131.564 86.3342C131.474 86.1554 131.429 85.7565 131.429 85.137V82.1751ZM142.361 75.0849L142.196 76.886C142.801 75.5958 143.679 74.9136 144.828 74.8375V79.6569C144.064 79.6569 143.503 79.7602 143.146 79.9669C142.787 80.173 142.567 80.4605 142.485 80.8286C142.402 81.1967 142.361 82.0445 142.361 83.3724V88.7805H138.19V75.0849H142.361ZM150.576 79.4611H154.271V78.6662C154.271 77.9782 154.235 77.473 154.163 77.1496C154.091 76.8256 153.884 76.4749 153.544 76.0969C153.203 75.7183 152.714 75.4135 152.078 75.1829C151.441 74.9524 150.669 74.8375 149.761 74.8375C148.846 74.8375 148.042 74.9786 147.351 75.2608C146.659 75.5429 146.169 75.9436 145.88 76.4627C145.591 76.9824 145.446 77.7894 145.446 78.8828C145.446 79.6539 145.58 80.3193 145.849 80.8802C146.118 81.4411 146.864 82.0653 148.089 82.7534C149.547 83.5651 150.356 84.054 150.514 84.2189C150.666 84.3844 150.742 84.7937 150.742 85.447C150.742 85.9213 150.682 86.2331 150.566 86.3806C150.449 86.5287 150.243 86.603 149.947 86.603C149.671 86.603 149.487 86.4933 149.394 86.2726C149.302 86.0526 149.255 85.5747 149.255 84.8379V83.9715H145.56V84.6317C145.56 85.7744 145.701 86.6268 145.983 87.1912C146.265 87.7556 146.782 88.2027 147.536 88.5331C148.29 88.8635 149.196 89.0284 150.256 89.0284C151.213 89.0284 152.03 88.8751 152.708 88.5691C153.386 88.2631 153.869 87.8259 154.158 87.258C154.447 86.6907 154.592 85.8493 154.592 84.7351C154.592 83.7375 154.402 82.9769 154.024 82.4537C153.645 81.9312 152.851 81.3738 151.639 80.7821C150.731 80.335 150.131 79.9941 149.838 79.7601C149.545 79.5267 149.371 79.3113 149.312 79.1151C149.253 78.9194 149.224 78.6116 149.224 78.1913C149.224 77.8818 149.282 77.6495 149.399 77.4951C149.516 77.34 149.692 77.2628 149.926 77.2628C150.215 77.2628 150.396 77.347 150.468 77.5154C150.54 77.6844 150.576 78.085 150.576 78.7179V79.4611ZM56.622 66.7092V53.0136H52.4521V62.2301C52.4521 63.3519 52.423 64.0156 52.3644 64.2223C52.3057 64.4285 52.1216 64.5318 51.8121 64.5318C51.523 64.5318 51.3458 64.4319 51.2808 64.2322C51.2152 64.033 51.1827 63.4001 51.1827 62.3329V53.0136H47.0127V62.2505C47.0127 63.4274 47.0365 64.213 47.0847 64.609C47.1329 65.0045 47.2554 65.3848 47.4517 65.7494C47.6474 66.1141 47.9517 66.4061 48.3646 66.6262C48.7774 66.8468 49.2971 66.9572 49.9231 66.9572C50.4736 66.9572 50.9603 66.841 51.3836 66.6105C51.8069 66.38 52.1629 66.0334 52.4521 65.5712L52.3801 66.7092H56.622ZM68.0786 54.2752L68.1512 53.0135H63.9092V66.7091H68.0786V57.4513C68.0786 56.4195 68.1169 55.7843 68.1924 55.5474C68.2685 55.3099 68.4537 55.1909 68.7499 55.1909C69.0321 55.1909 69.204 55.2942 69.2661 55.5009C69.3276 55.7071 69.359 56.2819 69.359 57.2243V66.7091H73.529V57.1111C73.529 55.9138 73.4634 55.0585 73.3327 54.5464C73.202 54.0337 72.9094 53.6086 72.4553 53.2713C72.0012 52.9345 71.4164 52.7661 70.701 52.7661C70.1296 52.7661 69.6255 52.8915 69.1889 53.1435C68.7516 53.3949 68.3817 53.7724 68.0786 54.2752ZM79.2058 53.0135L79.1333 54.2752C79.4364 53.7724 79.8063 53.3949 80.2435 53.1435C80.6802 52.8915 81.1843 52.7661 81.7557 52.7661C82.4711 52.7661 83.0559 52.9345 83.51 53.2713C83.9641 53.6086 84.2567 54.0337 84.3874 54.5464C84.518 55.0585 84.5837 55.9138 84.5837 57.1111V66.7091H80.4137V57.2243C80.4137 56.2819 80.3823 55.7071 80.3208 55.5009C80.2586 55.2942 80.0868 55.1909 79.8045 55.1909C79.5084 55.1909 79.3231 55.3099 79.2471 55.5474C79.1716 55.7843 79.1333 56.4195 79.1333 57.4513V66.7091H74.9639V53.0135H79.2058ZM95.0097 56.8736V57.8746H93.792V56.8736C93.792 56.103 93.8263 55.6298 93.8954 55.4545C93.9639 55.2791 94.1427 55.1909 94.4319 55.1909C94.6654 55.1909 94.8204 55.2942 94.8965 55.5009C94.972 55.707 95.0097 56.1646 95.0097 56.8736ZM93.7911 60.1037H99.1892V58.2874C99.1892 56.9595 99.0359 55.9289 98.7299 55.1961C98.4233 54.4633 97.8902 53.8751 97.1301 53.4315C96.3694 52.9873 95.4042 52.7661 94.2347 52.7661C93.2783 52.7661 92.4317 52.9502 91.6953 53.3177C90.959 53.6864 90.4294 54.216 90.106 54.9075C89.7825 55.5991 89.6211 56.5432 89.6211 57.7405V61.7341C89.6211 62.7526 89.6931 63.5283 89.8377 64.0613C89.9823 64.595 90.2419 65.0833 90.617 65.5275C90.9921 65.9711 91.5165 66.3206 92.1907 66.5744C92.8654 66.8293 93.6424 66.957 94.5239 66.957C95.4321 66.957 96.187 66.8275 96.7892 66.5697C97.3914 66.3113 97.8884 65.9246 98.281 65.409C98.673 64.8928 98.9221 64.4074 99.0289 63.9533C99.1358 63.4993 99.1892 62.849 99.1892 62.003V60.9915H95.2358V62.7979C95.2358 63.4784 95.1824 63.9377 95.0761 64.1757C94.9693 64.4126 94.7573 64.5317 94.4409 64.5317C94.1865 64.5317 94.0146 64.4422 93.9252 64.2628C93.8352 64.084 93.7911 63.6851 93.7911 63.0655V60.1037ZM104.669 53.0135L104.597 54.3164C104.921 53.7997 105.306 53.4124 105.753 53.1534C106.2 52.895 106.71 52.7661 107.28 52.7661C108.395 52.7661 109.273 53.2829 109.913 54.3164C110.263 53.7997 110.659 53.4124 111.1 53.1534C111.54 52.895 112.028 52.7661 112.565 52.7661C113.274 52.7661 113.861 52.938 114.325 53.2817C114.789 53.626 115.087 54.0476 115.218 54.5464C115.349 55.0451 115.414 55.8551 115.414 56.9769V66.7091H111.368V57.7817C111.368 56.6123 111.328 55.8876 111.25 55.6089C111.17 55.3308 110.986 55.1909 110.697 55.1909C110.401 55.1909 110.21 55.3291 110.124 55.6037C110.038 55.8795 109.995 56.6053 109.995 57.7817V66.7091H105.949V58.0087C105.949 56.6669 105.916 55.8621 105.851 55.5938C105.786 55.325 105.605 55.1909 105.309 55.1909C105.123 55.1909 104.965 55.2617 104.835 55.4028C104.704 55.5439 104.631 55.7158 104.617 55.919C104.604 56.1222 104.597 56.5536 104.597 57.2138V66.7091H100.551V53.0135H104.669ZM120.735 61.4248C120.842 61.0944 121.228 60.6857 121.896 60.1968V63.0146C121.896 63.7027 121.857 64.1277 121.777 64.2891C121.698 64.4506 121.528 64.5319 121.267 64.5319C120.991 64.5319 120.807 64.4285 120.715 64.2224C120.622 64.0157 120.575 63.5581 120.575 62.8492C120.575 62.2296 120.628 61.7552 120.735 61.4248ZM116.663 58.3182H120.575V56.8834C120.575 56.1199 120.609 55.6473 120.678 55.4649C120.747 55.2826 120.922 55.1909 121.205 55.1909C121.452 55.1909 121.63 55.2995 121.736 55.516C121.843 55.7332 121.896 56.1995 121.896 56.9148C121.896 57.4862 121.848 57.8642 121.752 58.05C121.655 58.2358 120.922 58.5969 119.553 59.1334C118.273 59.6287 117.471 60.0625 117.149 60.4341C116.825 60.8057 116.663 61.5036 116.663 62.529V63.6537C116.663 65.0368 116.968 65.9333 117.577 66.3427C118.186 66.752 118.855 66.957 119.585 66.957C120.141 66.957 120.622 66.8345 121.024 66.59C121.427 66.345 121.755 65.978 122.01 65.4886V66.7091H126.066V59.8354C126.066 57.5715 125.994 56.0769 125.85 55.3511C125.705 54.6253 125.275 54.0133 124.559 53.514C123.843 53.0152 122.78 52.7661 121.37 52.7661C120.193 52.7661 119.237 52.9862 118.5 53.4263C117.764 53.867 117.274 54.3745 117.03 54.9487C116.785 55.523 116.663 56.34 116.663 57.3996V58.3182ZM131.743 53.0135L131.67 54.2752C131.973 53.7724 132.343 53.3949 132.781 53.1435C133.217 52.8915 133.721 52.7661 134.293 52.7661C135.008 52.7661 135.593 52.9345 136.047 53.2713C136.501 53.6086 136.794 54.0337 136.924 54.5464C137.055 55.0585 137.121 55.9138 137.121 57.1111V66.7091H132.951V57.2243C132.951 56.2819 132.919 55.7071 132.858 55.5009C132.796 55.2942 132.624 55.1909 132.342 55.1909C132.045 55.1909 131.86 55.3099 131.784 55.5474C131.709 55.7843 131.67 56.4195 131.67 57.4513V66.7091H127.501V53.0135H131.743ZM148.103 66.7092V53.0136H143.933V62.2301C143.933 63.3519 143.903 64.0156 143.845 64.2223C143.786 64.4285 143.602 64.5318 143.293 64.5318C143.003 64.5318 142.826 64.4319 142.761 64.2322C142.696 64.033 142.663 63.4001 142.663 62.3329V53.0136H138.493V62.2505C138.493 63.4274 138.517 64.213 138.565 64.609C138.613 65.0045 138.736 65.3848 138.932 65.7494C139.128 66.1141 139.432 66.4061 139.845 66.6262C140.258 66.8468 140.778 66.9572 141.404 66.9572C141.954 66.9572 142.441 66.841 142.864 66.6105C143.287 66.38 143.643 66.0334 143.933 65.5712L143.861 66.7092H148.103ZM154.862 57.8746V56.8736C154.862 56.1646 154.825 55.707 154.749 55.5009C154.673 55.2942 154.518 55.1909 154.284 55.1909C153.995 55.1909 153.816 55.2791 153.748 55.4545C153.679 55.6298 153.645 56.103 153.645 56.8736V57.8746H154.862ZM159.042 60.1037H153.645V63.0655C153.645 63.6851 153.689 64.084 153.779 64.2628C153.868 64.4422 154.04 64.5317 154.294 64.5317C154.611 64.5317 154.823 64.4126 154.93 64.1757C155.036 63.9377 155.089 63.4784 155.089 62.7979V60.9915H159.042V62.003C159.042 62.849 158.989 63.4993 158.882 63.9533C158.776 64.4074 158.526 64.8928 158.135 65.409C157.742 65.9246 157.245 66.3113 156.643 66.5697C156.041 66.8275 155.286 66.957 154.377 66.957C153.496 66.957 152.719 66.8293 152.044 66.5744C151.37 66.3206 150.846 65.9711 150.471 65.5275C150.095 65.0833 149.836 64.595 149.691 64.0613C149.547 63.5283 149.475 62.7526 149.475 61.7341V57.7405C149.475 56.5432 149.636 55.5991 149.959 54.9075C150.283 54.216 150.813 53.6864 151.549 53.3177C152.285 52.9502 153.132 52.7661 154.088 52.7661C155.258 52.7661 156.223 52.9873 156.983 53.4315C157.744 53.8751 158.277 54.4633 158.583 55.1961C158.889 55.9289 159.042 56.9595 159.042 58.2874V60.1037Z" fill="white"/>
</svg>
