<svg width="200" height="140" viewBox="0 0 200 140" fill="none" xmlns="http://www.w3.org/2000/svg">
<path fill-rule="evenodd" clip-rule="evenodd" d="M138.467 97.9105C139.39 97.9333 140.318 98.2524 140.737 99.0888L140.87 98.1664L142.762 98.2121L142.695 100.973L140.704 100.925C140.724 100.111 140.097 99.6344 139.328 99.6148C139.009 99.6071 138.563 99.7944 138.555 100.18C138.528 101.312 142.888 101.154 142.827 103.739C142.785 105.454 141.164 106.031 139.855 106C138.745 105.972 137.987 105.438 137.581 104.932L137.44 105.776L135.515 105.729L135.583 102.958L137.627 103.008C137.605 103.932 138.525 104.108 138.986 104.141C139.372 104.15 139.924 104.075 139.936 103.614C139.956 102.755 135.723 103.017 135.792 100.213C135.83 98.5845 137.388 97.8843 138.467 97.9105ZM59.8713 98.1537C62.4228 98.0862 62.9368 99.173 62.9695 100.426C63.0076 101.879 61.7073 102.639 60.1348 102.682L59.2984 102.704L59.3442 104.408L60.015 104.39L60.0542 105.842L56.5128 105.937L56.4736 104.484L57.0899 104.469L56.9625 99.6729L56.3462 99.6892L56.308 98.2485L59.8713 98.1537ZM70.0126 98.0233L70.055 100.454L68.1525 100.488L68.1351 99.5087L66.3753 99.5392L66.4025 101.058L68.4923 101.02L68.5185 102.484L66.4276 102.521L66.4592 104.313L68.2201 104.282L68.2016 103.259L70.104 103.225L70.1487 105.711L63.5156 105.828L63.4905 104.366L64.1832 104.354L64.0982 99.5806L63.4056 99.5925L63.3795 98.1409L70.0126 98.0233ZM127.85 97.9811L135.23 98.1184L135.176 100.977L133.561 100.948L133.586 99.5395L132.662 99.5221L132.574 104.296L133.487 104.313L133.459 105.775L129.368 105.7L129.395 104.237L130.298 104.254L130.386 99.4807L129.44 99.4633L129.414 100.87L127.797 100.841L127.85 97.9811ZM123.645 97.7206C124.745 97.737 125.23 98.361 125.327 98.4938L125.589 97.8818L127.316 97.909L127.269 101.032L125.301 101.002C125.278 100.286 124.937 99.6101 124.155 99.5981C123.365 99.5861 122.831 100.557 122.814 101.756C122.797 102.845 123.343 103.832 124.387 103.848C125.312 103.863 126.052 102.905 126.152 102.798L127.418 104.225C126.658 105.038 125.502 105.747 124.062 105.725C121.731 105.689 120.202 104.169 120.239 101.716C120.279 99.1875 122.204 97.6989 123.645 97.7206ZM112.145 97.786L115.643 97.8067L115.635 99.2246L115.042 99.2213L115.028 101.597C115.018 103.368 115.411 103.744 116.115 103.748C116.786 103.752 117.227 103.49 117.238 101.599L117.251 99.267L116.658 99.2638L116.666 97.8121L119.922 97.8306L119.913 99.2485L119.319 99.2453L119.305 101.919C119.29 104.525 118.194 105.695 116.127 105.685C113.906 105.605 112.724 104.433 112.737 101.936L112.754 99.2191L112.138 99.2159L112.145 97.786ZM77.7617 97.8128L77.8324 100.672L76.2164 100.713L76.1815 99.3047L75.257 99.3287L75.3767 104.101L76.2893 104.079L76.3264 105.541L72.2339 105.644L72.198 104.181L73.0997 104.158L72.981 99.3853L72.0346 99.4082L72.0695 100.816L70.4534 100.857L70.3815 97.9968L77.7617 97.8128ZM99.9307 97.5448C102.625 97.5448 103.879 99.1619 103.879 101.637C103.879 104.122 102.493 105.64 100.008 105.64C97.7091 105.64 96.0702 104.309 96.0702 101.56C96.0702 99.1837 97.6536 97.5448 99.9307 97.5448ZM88.1337 97.7359L91.7089 97.7588C94.2594 97.7751 94.7483 98.79 94.7407 100.045C94.7342 100.902 94.0492 101.503 93.1355 101.629C93.8935 101.743 94.5719 102.408 94.5664 103.199C94.5632 103.673 94.6274 103.949 94.8245 103.95C94.9901 103.951 95.0794 103.819 95.0805 103.599L95.0826 103.235L95.8199 103.241L95.8155 103.846C95.8101 104.759 95.4192 105.603 94.1984 105.595C92.7587 105.585 92.0705 104.823 92.0781 103.536C92.0846 102.534 91.9648 102.292 90.9869 102.286L90.975 103.99L91.6468 103.995L91.6371 105.447L88.0847 105.423L88.0934 103.972L88.7098 103.976L88.7403 99.181L88.125 99.1766L88.1337 97.7359ZM104.332 97.7734L107.686 97.7864C110.348 97.7973 111.859 99.4428 111.851 101.542C111.84 104.05 110.317 105.486 107.611 105.475L104.3 105.462L104.307 103.998L104.988 104.001L105.007 99.2272L104.325 99.225L104.332 97.7734ZM81.078 97.6921L84.6423 97.6976C87.1938 97.7019 87.6752 98.8018 87.673 100.056C87.6708 101.508 86.3499 102.231 84.7773 102.229L83.941 102.228L83.9388 103.932L84.6096 103.933L84.6075 105.385L81.066 105.379L81.0682 103.928L81.6846 103.929L81.6922 99.1339L81.0758 99.1329L81.078 97.6921ZM107.262 99.237L107.243 104.01L107.661 104.012C108.827 103.994 109.316 102.908 109.32 101.533C109.325 100.356 108.847 99.2435 107.68 99.2381L107.262 99.237ZM99.9198 99.2393C99.2489 99.2284 98.7872 100.195 98.7872 101.56C98.7872 103.001 99.3045 103.913 100.008 103.913C100.701 103.913 101.13 103.001 101.13 101.637C101.13 100.305 100.766 99.2393 99.9198 99.2393ZM59.7667 99.5869L59.2168 99.6021L59.2669 101.515L59.7624 101.502C60.4005 101.485 60.8307 101.144 60.8154 100.562C60.7991 99.9125 60.4038 99.5705 59.7667 99.5869ZM91.0065 99.1843L90.9945 101.054L91.4889 101.057C92.1271 101.061 92.5475 100.756 92.5507 100.173C92.5551 99.524 92.1935 99.1919 91.5565 99.1875L91.0065 99.1843ZM83.9464 99.1263L83.9431 101.04L84.4387 101.041C85.0757 101.042 85.5168 100.712 85.5179 100.129C85.5189 99.4803 85.1345 99.1285 84.4964 99.1274L83.9464 99.1263ZM103.2 91.0929C105.689 91.2933 117.553 91.1201 119.373 91.3118C120.629 91.4435 121.985 91.1931 123.426 91.3379C124.191 91.4174 125.372 91.4032 126.314 91.3945C126.643 91.3931 127.101 91.3946 127.57 91.3953L128.268 91.3951C128.606 91.3942 128.916 91.3916 129.15 91.3858C130.369 91.3499 131.091 91.388 132.309 91.4621L133.061 91.5143C135.549 91.718 137.407 91.4621 139.227 91.6537C140.486 91.7866 143.641 91.6537 145.083 91.804C145.845 91.8835 147.697 91.9336 148.638 91.9216C149.376 91.9162 152.102 92.0959 152.801 92.0752C153.641 92.0523 154.622 92.1067 156.21 92.1993V94.7062C154.619 94.6136 151.896 94.4187 151.054 94.4426C150.353 94.4612 148.212 94.3076 147.478 94.3131C146.537 94.3218 145.845 94.2804 145.083 94.202C143.641 94.0539 142.624 94.2336 141.368 94.0985C139.546 93.9069 137.277 94.0245 134.786 93.8263L132.309 93.8589C131.091 93.7882 130.369 93.7468 129.15 93.7827C128.449 93.8001 126.948 93.7174 126.208 93.7239C125.267 93.7294 123.426 93.7381 122.663 93.6618C121.221 93.5116 118.673 93.6324 117.409 93.5845C115.568 93.5116 106.061 93.5519 103.2 93.4941H95.5545C94.2904 93.5225 91.7368 93.4929 89.1231 93.4675L88.2972 93.4596C87.197 93.4496 86.1092 93.4415 85.1254 93.4399L84.4086 93.4401C83.0195 93.4431 81.9162 93.4635 81.4084 93.517C80.1517 93.6531 77.7396 93.5116 76.2956 93.6618C75.5343 93.7381 73.6939 93.7294 72.753 93.7239C72.0125 93.7174 70.5097 93.8001 69.8105 93.7827C68.592 93.7468 67.8634 93.7882 66.6492 93.8589L64.1695 93.8263C61.6833 94.0245 59.4128 93.9069 57.5865 94.0985C56.3342 94.2336 55.316 94.0539 53.8774 94.202C53.1162 94.2804 52.4236 94.3218 51.4827 94.3131C50.7433 94.3076 48.6012 94.4612 47.9031 94.4426C46.6824 94.4078 43.7138 94.6354 42.4984 94.7062V92.2309C43.7138 92.1601 44.9422 92.0425 46.1608 92.0752C46.8588 92.0959 49.5813 91.9162 50.3218 91.9216C51.2583 91.9336 53.1162 91.8835 53.8774 91.804C55.316 91.6537 58.4752 91.7866 59.734 91.6537C61.5527 91.4621 63.4083 91.718 65.8999 91.5143L66.6525 91.4621C67.8667 91.388 68.592 91.3499 69.8105 91.3858C70.0443 91.3916 70.3552 91.3942 70.6932 91.3951L71.3905 91.3953C71.8599 91.3946 72.3183 91.3931 72.6474 91.3945C73.5883 91.4032 74.7699 91.4174 75.5343 91.3379C76.9762 91.1931 78.3298 91.4435 79.5865 91.3118C80.5354 91.2119 84.1699 91.16 87.8066 91.1314L88.6781 91.125C91.7189 91.104 94.6097 91.0981 95.7603 91.0929H103.2ZM141.229 72.4353L145.638 72.5855L151.116 83.0574L151.168 83.0606L151.524 72.7892L154.685 72.8981L154.078 90.3863L150.586 90.2611L144.291 78.2799L144.19 78.2767L143.781 90.0259L140.622 89.917L141.229 72.4353ZM51.1295 71.9109C52.7478 71.8543 54.3933 71.8249 55.8296 72.6776C57.3477 73.6119 58.2331 75.3609 58.2952 77.1359C58.3627 79.2029 57.2366 81.1587 55.296 81.9395L58.9377 89.8609L54.219 90.0232L51.1883 82.9305L48.0836 83.034L48.3308 90.2235L44.087 90.364L43.4651 72.1734L51.1295 71.9109ZM124.692 72.2054L131.996 72.3676C133.538 72.4025 135.105 72.4591 136.426 73.3466C137.821 74.3169 138.564 76.0245 138.528 77.7201C138.484 79.6901 137.307 81.4858 135.423 82.1262L138.464 89.8548L133.964 89.7546L131.462 82.8482L128.505 82.7828L128.355 89.6305L124.309 89.5423L124.692 72.2054ZM73.1216 72.2084L73.199 75.5669L64.8529 75.7499L64.9324 79.263L71.5034 79.1214L71.5774 82.3786L65.0032 82.5234L65.0892 86.3665L73.4288 86.1803L73.5028 89.5453L61.1176 89.8143L60.7397 72.4774L73.1216 72.2084ZM80.5089 72.1079C83.0125 72.0818 85.1589 72.2081 87.0821 73.981C88.9693 75.7299 89.8068 78.1236 89.8307 80.625C89.8569 82.9544 89.173 85.2097 87.6506 86.9706C85.9528 88.8872 83.8347 89.4176 81.3845 89.4448L75.6694 89.5069L75.4788 72.1645L80.5089 72.1079ZM112.69 72.0585L117.394 72.1086L122.648 89.5064L118.272 89.4629L117.249 85.8855L111.638 85.83L110.51 89.3768L106.948 89.342L112.69 72.0585ZM99.5498 71.9999C100.912 71.9966 102.331 71.9966 103.519 72.7567C104.909 73.6388 105.645 74.901 105.645 76.5432C105.647 78.5165 104.336 79.832 102.513 80.2883V80.3384C104.663 80.7696 106.13 82.4085 106.132 84.6595C106.132 86.1776 105.224 87.5192 104.014 88.4046C102.749 89.3389 101.054 89.3411 99.5618 89.3411L91.8005 89.3477L91.7885 72.0021L99.5498 71.9999ZM81.1873 75.2889L80.951 75.29L79.5593 75.3052L79.678 86.2007L81.0458 86.1865C82.7381 86.1658 83.8205 85.8239 84.7375 84.296C85.4094 83.1787 85.6718 81.837 85.6577 80.5477C85.6435 79.1799 85.221 77.7195 84.3749 76.6436C83.4285 75.4381 82.3907 75.2725 80.951 75.29L81.1873 75.2889ZM98.8246 81.9577L95.8407 81.961L95.8461 86.1329H98.6503C99.3843 86.1329 100.32 86.1808 100.947 85.7529C101.532 85.3695 101.859 84.665 101.859 83.9571C101.859 83.2994 101.456 82.6187 100.871 82.2844C100.289 81.9577 99.4823 81.9577 98.8246 81.9577ZM114.566 76.5789L112.658 82.6534L116.346 82.6926L114.566 76.5789ZM52.7924 75.4371C52.0606 75.0124 50.8464 75.1605 50.0471 75.1844L47.8179 75.2639L47.9769 79.9053L50.3128 79.829C51.1883 79.7964 52.1466 79.8432 52.8991 79.3651C53.5743 78.9175 53.9163 78.0561 53.8858 77.2601C53.8662 76.5435 53.4142 75.7921 52.7924 75.4371ZM128.668 75.3755L128.573 79.8022L130.794 79.8491C131.628 79.8698 132.536 79.9645 133.279 79.5485C133.942 79.1597 134.317 78.3604 134.332 77.6025C134.346 76.9175 133.961 76.1781 133.386 75.8089C132.71 75.3635 131.545 75.4408 130.791 75.4223L128.668 75.3755ZM100.614 75.3377C100.033 75.0099 98.9694 75.0839 98.2877 75.0872H95.8374L95.8407 78.8791L98.5948 78.8758C99.3027 78.8737 100.134 78.9259 100.743 78.4718C101.221 78.1157 101.472 77.4841 101.472 76.9037C101.472 76.2699 101.171 75.6644 100.614 75.3377ZM156.759 72.0304C157.435 72.0304 157.98 72.5716 157.98 73.2435C157.98 73.9143 157.435 74.4643 156.759 74.4643C156.089 74.4643 155.542 73.9143 155.542 73.2435C155.542 72.5716 156.089 72.0304 156.759 72.0304ZM156.759 72.2634C156.251 72.2634 155.838 72.6762 155.838 73.2435C155.838 73.8142 156.251 74.2269 156.759 74.2269C157.268 74.2269 157.681 73.8142 157.681 73.2435C157.681 72.6762 157.268 72.2634 156.759 72.2634ZM156.805 72.5476C157.139 72.5476 157.309 72.6642 157.309 72.9517C157.309 73.1934 157.185 73.3056 156.955 73.3219L157.326 73.9307H157.064L156.701 73.335H156.551V73.9307H156.288V72.5476H156.805ZM156.78 72.748H156.551V73.139H156.775C156.93 73.139 157.06 73.1183 157.06 72.9353C157.06 72.7763 156.909 72.748 156.78 72.748ZM111.896 34.5449C113.97 36.0281 116.178 37.9775 118.143 39.6915C118.623 40.113 119.148 40.493 119.422 41.1159C119.664 41.6899 119.531 42.7876 118.694 42.5785C118.668 42.5012 118.673 42.3955 118.611 42.3574C118.709 42.0764 118.989 42.1244 118.948 41.7813C118.924 41.5635 118.696 41.4666 118.399 41.3392C118.19 41.2455 117.91 41.104 117.677 41.0713C117.237 41.0092 116.777 41.1628 116.57 40.8916C114.757 40.7359 112.597 40.5203 110.323 40.6292C109.184 40.6825 108.02 40.6292 107.137 40.7588C106.851 40.8001 106.58 40.957 106.288 40.9831C105.97 41.0147 105.668 40.8916 105.394 41.0713C105.356 41.3457 105.722 41.2009 105.777 41.3806C105.984 41.2749 106.273 41.3272 106.542 41.2477C106.63 41.2216 106.709 41.1366 106.796 41.1159C107.184 41.0277 107.825 40.9711 108.115 41.0245C108.27 41.0561 108.361 41.1802 108.497 41.2042C108.657 41.1976 108.635 41.0332 108.797 40.9831C109.13 40.8731 109.721 41.0593 110.113 40.9831C110.181 40.963 110.205 40.9878 110.218 41.0245L110.237 41.1041C110.245 41.1295 110.256 41.1505 110.281 41.1573C110.991 41.1301 111.838 41.2455 112.322 40.9831C113.685 40.9472 114.928 41.0419 116.101 41.2042C116.777 41.5635 117.889 41.4666 118.523 41.8706C118.514 45.509 118.564 49.0569 118.564 52.79C118.564 55.775 118.68 58.5291 118.611 61.4901C118.607 61.6164 118.612 61.9387 118.623 62.3112L118.751 62.3214C119.369 62.3337 120.767 61.9512 121.186 62.1707C121.365 62.0879 121.619 61.9616 121.864 62.0792C121.941 62.4299 123.076 62.4418 123.026 62.6575C123.256 62.6869 123.943 63.5711 122.914 63.5711C123.014 63.6593 122.941 63.8162 123.026 63.9163C123.064 63.9163 123.116 63.9547 123.172 64.0058L123.344 64.1721C123.399 64.2232 123.45 64.2616 123.487 64.2616C123.498 64.4706 123.724 64.7157 123.831 64.8333C124.076 64.854 123.121 65.1959 123.411 65.1752C123.515 65.1578 123.515 65.3114 123.533 65.3527C123.631 65.5324 123.72 65.7415 123.919 65.8863C124.43 65.8722 124.647 65.9125 125.108 66.0192C125.276 66.1129 125.193 66.3263 125.238 66.4635C125.331 66.4661 125.402 66.4447 125.465 66.4153L125.646 66.3195L125.747 66.2838C125.804 66.4494 125.812 66.6682 125.877 66.8185C126.181 66.8294 126.367 66.7379 126.638 66.8185C126.697 66.9329 126.692 67.1213 126.726 67.2628C126.812 67.3707 126.937 67.4316 127.051 67.4937C127.141 67.4938 127.234 67.494 127.328 67.4941L128.182 67.4938C128.553 67.4926 128.897 67.4894 129.151 67.4817C130.369 67.4491 131.091 67.4872 132.309 67.558L133.061 67.6179C135.549 67.815 137.407 67.5612 139.227 67.7496C139.819 67.8137 140.832 67.8182 141.888 67.8203L142.683 67.8223C143.606 67.8263 144.49 67.8394 145.084 67.8999L148.637 68.0241C149.376 68.0208 152.102 68.195 152.801 68.1776C154.019 68.1395 155.375 68.2277 156.587 68.2952L156.309 70.8054C155.094 70.7335 152.272 70.5037 151.055 70.5429C150.353 70.5603 148.212 70.4068 147.478 70.4101C146.537 70.422 145.845 70.3806 145.084 70.3001C143.642 70.153 142.625 70.3327 141.368 70.1977C139.546 70.006 137.278 70.1236 134.786 69.9233L132.309 69.9581C131.091 69.8884 130.369 69.8459 129.151 69.8852C128.448 69.8993 126.947 69.8176 126.208 69.8198C125.267 69.8318 123.427 69.8383 122.663 69.7577C121.221 69.6107 118.673 69.7283 117.409 69.6848C116.444 69.6477 113.377 69.6405 110.263 69.6331L109.414 69.6311C106.873 69.6248 104.427 69.6166 103.201 69.59L95.5538 69.5933C95.2876 69.5991 94.9644 69.6023 94.5954 69.6035L93.693 69.6033C91.4301 69.596 88.1453 69.5465 85.4986 69.5388L84.4082 69.5383C83.0193 69.5418 81.9162 69.5629 81.4087 69.6173C80.152 69.749 77.7399 69.6107 76.2948 69.7577C75.5347 69.8383 73.6942 69.8318 72.7533 69.8198C72.0128 69.8176 70.5089 69.8993 69.8109 69.8852C68.5923 69.8459 67.8638 69.8884 66.6484 69.9581L64.1699 69.9233C61.6837 70.1236 59.412 70.006 57.5868 70.1977C56.3345 70.3327 55.3163 70.153 53.8777 70.3001C53.1165 70.3806 52.4239 70.422 51.483 70.4101C50.7425 70.4068 48.6015 70.5603 47.9024 70.5429C46.6816 70.5037 43.2142 70.7335 42 70.8054V68.3987C43.2142 68.3224 44.9425 68.1395 46.16 68.1776C46.8591 68.195 49.5816 68.0208 50.321 68.0241C51.2587 68.0328 53.1165 67.9805 53.8777 67.8999C54.4701 67.8394 55.3542 67.8263 56.2772 67.8223L57.072 67.8203C58.1287 67.8182 59.142 67.8137 59.7344 67.7496C59.7605 67.7474 59.7877 67.7485 59.8139 67.7453C60.0447 67.3772 60.4488 66.8349 60.7308 66.9917C60.819 66.9329 60.8865 66.8588 60.9399 66.7684C60.9018 66.6002 60.7564 66.5455 60.5926 66.5103L60.393 66.4716C60.2945 66.4509 60.2021 66.4238 60.1351 66.3699C60.2386 66.09 60.4063 65.8863 60.6012 65.7001C60.7744 65.6892 60.7744 65.8515 60.9813 65.7916C61.2383 65.4322 61.3178 64.9542 61.9167 65.0838C62.3055 65.1665 62.4057 65.6925 62.7836 65.3005C62.6975 64.9857 62.7095 65.1436 62.5973 64.8594C62.6736 64.5534 63.0482 64.8278 63.1484 64.9073C63.6297 64.8692 63.8834 64.818 64.3702 64.9128C64.5717 65.0456 64.6479 65.3288 64.9213 65.2221C65.2839 65.0892 65.0193 64.5654 64.734 64.4358C64.7743 64.2409 64.955 64.1853 65.0323 64.0318C64.9463 63.8227 65.2393 63.7073 65.187 63.4383C65.4135 63.3348 65.6444 63.6376 65.8186 63.2041C65.8633 62.921 65.8556 63.1116 65.8262 62.9112C66.0266 62.8197 66.0005 62.7163 66.2074 62.725C66.4546 62.7457 66.4753 63.0462 66.6756 63.0408C66.9555 63.0343 67.0176 62.7424 66.8466 62.419C67.1799 62.3983 67.2299 62.0759 67.439 61.9311C67.7287 62.0345 68.0587 62.4898 68.4627 62.1968C68.442 61.9496 68.1502 61.991 68.0761 61.7993C68.0914 61.6458 68.2678 61.6697 68.2852 61.5336C68.8308 61.6784 69.4537 61.734 69.5658 62.3297C69.9579 62.4418 70.265 62.3917 70.498 62.6869C70.9369 62.7838 71.0316 62.5279 71.3496 62.5104C71.5239 62.5104 71.427 62.7816 71.562 62.8165C72.1196 62.7816 71.9301 62.1652 71.6067 62.0171C71.5827 61.6632 71.7058 61.318 71.8604 60.9967C71.9214 60.8606 71.8778 60.7822 71.9867 60.6907C72.0749 60.608 72.1522 60.6374 72.2818 60.5546C72.5051 60.5459 72.5083 60.7582 72.712 60.7757C72.8917 60.7169 73.0866 60.6668 73.1781 60.511C73.1661 60.254 72.9189 60.2475 72.8808 60.021C73.0888 59.8141 73.2401 59.4928 73.5146 59.5375C73.7944 59.5723 74.0003 59.8881 74.6613 59.7912C74.8769 59.7291 75.7024 59.8794 75.233 60.596C75.4247 60.5993 74.7528 61.0348 74.9237 61.0207C75.1797 61.0381 75.2711 61.1536 75.4748 61.0207C75.5075 61.1329 75.6196 61.1623 75.685 61.245C75.8581 61.1503 75.9877 61.2145 76.1227 61.2831C76.123 61.0943 76.1232 60.9047 76.1233 60.7154L76.1231 59.0441L76.1216 58.5171C75.5401 58.4909 74.584 58.3581 73.9589 58.4289C73.6583 58.2601 73.7237 58.2307 73.6583 58.0869C73.8652 57.6796 73.9208 57.5522 74.0417 57.0513C74.0841 56.877 74.2518 56.62 74.3803 56.3848C74.5938 55.9808 74.7909 55.6301 75.0174 55.2327C75.1361 55.029 75.4127 54.6032 75.355 54.3887C75.3279 54.2827 75.2626 54.234 75.1865 54.1994L75.0279 54.1364C74.9756 54.1133 74.9265 54.0836 74.8889 54.0348C74.915 53.8104 75.0893 53.6307 75.1862 53.4565C75.2864 53.2801 75.3865 53.1026 75.4846 52.9262C75.5208 52.8574 75.5556 52.787 75.5897 52.7158L75.7918 52.2868C75.929 52.0044 76.0793 51.739 76.2915 51.5486C76.3743 51.4723 76.481 51.4342 76.5452 51.3722C76.6334 51.2839 76.6574 51.1293 76.7576 51.015C76.8469 50.918 76.97 50.8473 77.0582 50.7492C77.2302 50.5608 77.4001 50.3332 77.5624 50.1688C77.6865 50.0501 77.9555 49.9118 78.1613 49.8149C78.035 49.5644 77.6637 49.5666 77.5624 49.2845C77.5548 49.0918 77.6952 49.0624 77.6517 48.8413C78.2027 48.2162 78.8931 47.7469 79.5237 47.1523C79.895 46.7951 80.4373 46.4357 80.9219 46.0851C81.2987 45.8106 81.6941 45.5188 82.0687 45.2443C83.2666 44.3829 84.6289 43.7219 85.4282 42.4456C86.2352 42.3716 87.1641 42.4075 87.9754 42.4042C88.4447 42.3988 88.9283 42.2834 89.4205 42.2681C90.0456 42.254 90.7861 42.2921 91.2903 42.2246C92.2486 42.095 93.3867 42.254 94.2219 42.1363C95.4307 41.9675 96.89 42.2561 97.9572 41.9588C98.0574 41.9327 98.2457 42.0089 98.3819 42.047C99.0603 41.8521 99.7508 42.0242 100.385 42.0917C100.417 42.2071 100.54 42.3629 100.423 42.4924C100.594 42.5807 100.735 42.7015 100.809 42.891C101.764 43.3092 102.242 44.2327 103.185 44.6694C103.322 45.008 103.661 45.2084 103.909 45.424C104.437 45.8662 104.932 46.341 105.483 46.7951C105.752 47.0249 106.062 47.2143 106.288 47.4648C106.421 47.6097 106.466 47.8449 106.671 47.9091C106.645 48.2369 106.364 48.1313 106.329 48.397C106.276 48.7466 106.806 49.1103 106.966 49.3727C106.939 49.5143 106.996 49.5786 107.008 49.682C107.618 50.7057 108.332 51.6194 108.881 52.7051C108.804 52.8314 108.52 52.7432 108.497 52.9262C108.859 54.4333 109.196 55.9253 109.515 57.4967C109.294 57.4706 109.152 57.5261 108.966 57.5435C108.836 58.1457 108.954 58.8645 109.011 59.4046C109.168 61.0414 108.919 62.9308 109.051 64.6002C109.111 65.3647 109.158 66.2904 109.051 66.8621C109.044 66.9111 108.938 67.1126 108.855 67.2977C109.068 67.2988 109.288 67.2999 109.506 67.2999C109.513 67.2724 109.522 67.2441 109.53 67.2154L109.583 67.0412C109.63 66.868 109.649 66.7071 109.515 66.641C109.721 65.4703 109.567 63.8695 109.477 62.6008C109.676 62.1914 110.175 62.309 110.537 62.1086C110.9 61.9115 110.929 61.4302 111.596 61.5369C111.929 61.587 111.918 61.8843 112.404 61.893C112.647 61.5957 112.06 61.0468 112.49 60.7822C112.383 60.4011 112.495 59.8914 112.448 59.3632C112.419 58.9559 112.203 58.2394 112.658 58.2067C113.269 58.1599 112.937 60.1647 112.958 60.6461C113.064 60.8399 113.274 60.7256 113.469 60.8704C113.637 61.2973 113.763 61.3975 114.189 61.3125C114.503 61.2537 114.857 61.2232 114.657 61.7547C114.919 61.9409 115.076 61.7721 115.338 61.8462C115.58 61.9137 115.65 62.1554 115.845 62.2001C116.138 62.2709 116.294 62.0672 116.57 62.0258C116.658 62.0106 116.74 62.0154 116.819 62.0269L117.052 62.0676C117.169 62.0843 117.287 62.0856 117.42 62.0258C117.435 61.7547 117.254 61.6959 117.207 61.4901C117.311 56.754 117.223 51.5965 117.252 46.9301C116.94 46.8844 117.005 47.2405 116.741 47.2438C116.418 46.9192 116.608 46.3736 116.608 45.8662C116.608 44.8872 116.52 43.7219 116.57 42.7135C116.479 42.5807 116.406 42.4783 116.23 42.4924C115.83 42.5251 115.952 43.1567 115.971 43.6871C116.016 44.616 115.872 45.607 116.061 46.353C116.066 46.4913 115.949 46.5 115.971 46.6622C116.132 47.0488 116.138 47.5879 115.807 47.7741C115.627 47.7534 115.609 47.565 115.465 47.5062C115.486 47.075 115.486 46.8746 115.338 46.574C115.403 46.1994 115.429 45.7192 115.253 45.3772C115.244 45.203 115.403 45.2117 115.379 45.0233C115.341 44.8073 115.353 44.5137 115.372 44.2082L115.391 43.9012C115.429 43.289 115.439 42.7174 115.082 42.7135C114.581 42.7081 114.787 43.6283 114.787 44.041C114.787 44.1913 114.606 44.1499 114.571 44.2675C114.716 44.8839 114.542 45.4589 114.612 45.999C114.634 46.1319 114.728 46.2647 114.742 46.3998C114.789 46.8484 114.731 47.3407 114.657 47.7741C114.466 47.895 114.217 47.8623 114.061 47.7294C113.975 47.2143 114.061 46.6655 114.02 46.0404C113.997 45.7486 113.861 45.436 113.852 45.1115C113.846 44.9961 113.925 44.8752 113.937 44.7543C113.956 44.4777 113.858 44.1771 113.893 43.9114C113.923 43.6871 114.049 43.5804 114.061 43.2449C114.07 43.1241 113.991 43.0326 113.979 42.891C113.946 42.5197 114.117 42.1037 113.681 42.1363C113.2 42.1745 113.388 43.4867 113.338 44.1793C113.269 45.2237 113.433 46.6829 113.338 47.9505C113.167 48.0398 113.126 48.2543 112.915 48.3077C112.858 48.1128 112.647 47.957 112.619 47.7294C112.597 47.5563 112.708 47.3821 112.704 47.1958C112.698 47.0249 112.597 46.9247 112.575 46.7504C112.563 46.6502 112.654 46.5468 112.658 46.4412C112.666 46.2963 112.581 46.1373 112.575 45.999C112.557 45.4121 112.698 44.8316 112.53 44.2675C112.469 44.1532 112.274 44.1826 112.236 44.041C112.2 43.7132 112.322 43.1262 112.278 42.67C112.254 42.4075 112.245 42.1657 111.938 42.1799C111.717 42.3868 111.808 42.7756 111.808 43.0674C111.808 44.1172 111.723 45.2944 111.723 46.3116C111.723 46.5468 111.791 46.757 111.767 46.9748C111.737 47.2165 111.558 47.406 111.596 47.638C111.446 47.5062 111.266 47.3962 111.174 47.1958C111.179 46.7973 111.182 46.2156 111.182 45.5693L111.182 44.9059C111.181 44.117 111.178 43.2941 111.174 42.6253C111.174 42.2779 111.287 41.8913 110.962 41.8706C110.767 41.8586 110.732 42.0383 110.62 42.1363C110.832 43.2983 110.714 45.1529 110.664 46.4412C110.634 47.1632 110.832 48.3905 110.373 48.397C109.938 48.3992 110.095 47.5911 110.113 47.1958C110.133 46.586 110.057 45.7899 110.113 45.2879C110.113 45.0962 109.924 45.0995 109.897 44.9318C109.921 44.5539 109.853 44.0878 109.938 43.7786C109.933 43.6337 109.812 43.613 109.771 43.4246C109.721 43.1981 109.733 42.9244 109.737 42.6845L109.737 42.5122C109.73 42.158 109.656 41.9463 109.218 42.2246C109.099 42.6928 109.218 43.1883 109.218 43.6871C109.218 43.8047 109.163 43.9702 109.178 44.0878C109.19 44.2065 109.282 44.3241 109.305 44.4418C109.39 44.9133 109.225 45.4153 109.305 45.8662C109.348 46.1199 109.531 46.2789 109.477 46.7123C109.465 46.7951 109.39 46.8778 109.39 46.9748C109.367 47.479 109.443 48.0845 109.477 48.7063C109.508 49.523 109.496 50.3104 109.515 51.1478C109.517 51.2741 109.582 51.3624 109.6 51.5017C109.629 51.7468 109.558 52.0147 109.6 52.2129C109.644 52.3925 109.774 52.5657 109.856 52.7465C109.933 52.9174 109.959 53.1211 110.113 53.2322C110.32 53.2147 110.199 52.875 110.195 52.6604C110.187 52.1769 110.036 50.7558 110.49 50.7492C110.979 50.7384 110.803 51.7609 110.793 52.1682C110.774 52.9055 110.906 53.9346 110.793 54.5684C110.897 54.7067 110.906 54.943 111.133 54.9669C111.345 54.6097 110.933 53.5327 111.428 53.3683C111.617 53.3803 111.635 53.5719 111.767 53.634C111.811 55.5387 111.77 57.721 111.853 59.7172C111.873 60.1952 112.091 60.7463 111.808 61.135C111.596 61.1383 111.537 60.976 111.345 60.9586C111.104 61.0152 111.088 61.4574 110.744 61.2679C110.596 61.5924 110.313 61.5107 110.113 61.7547C109.865 61.7373 109.676 61.7754 109.477 61.8015C109.358 60.4958 109.431 59.1716 109.305 57.9388C109.366 57.826 109.481 57.8107 109.606 57.814L109.793 57.8229C109.885 57.8245 109.969 57.8143 110.027 57.7591C110.083 57.5435 109.883 57.5914 109.856 57.4499C109.844 56.4469 109.431 55.4265 109.178 54.344C109.149 54.2144 109.146 53.9792 109.092 53.7658C109.027 53.5033 108.919 53.3803 108.966 53.2322C109.016 53.0732 109.332 53.0503 109.39 52.875C109.488 52.5755 108.986 51.9177 108.836 51.6814C108.134 50.5696 107.55 49.5557 106.884 48.4852C106.91 48.2141 107.051 48.0747 107.096 47.8209C106.989 47.5672 106.813 47.406 106.542 47.3287C106.394 46.9367 106.002 46.7363 105.689 46.4412C105.302 46.0731 105.008 45.6658 104.504 45.3772C104.504 44.4951 104.51 43.3005 104.545 42.4456C104.558 42.1777 104.781 41.5635 104.292 41.6049C104.18 41.7944 104.504 42.1037 104.337 42.3574C103.793 42.5491 103.529 41.936 103.57 41.4252C103.593 41.1682 103.711 41.0332 103.778 40.7588C106.438 38.6417 108.847 36.259 111.896 34.5449ZM122.389 65.0456C122.193 65.0309 122.064 65.0878 121.947 65.1583L121.775 65.2671C121.716 65.3019 121.654 65.3329 121.581 65.3527C121.412 65.3233 121.484 65.0456 121.286 65.0456C121.033 65.1371 120.762 64.9542 120.567 65.1371C120.554 65.4322 120.687 65.8156 120.988 65.9299C121.097 65.9713 121.216 65.8722 121.324 65.8863C121.446 65.9005 121.657 66.0726 121.838 66.1107C121.941 66.1281 122.046 66.0802 122.136 66.1107C122.553 66.2316 122.941 66.6084 123.323 66.42C123.344 66.2784 123.25 66.261 123.282 66.1107C123.085 65.9452 122.772 65.9005 122.56 65.7502C122.446 65.4943 122.477 65.3408 122.389 65.0456ZM68.1872 65.1796C67.916 64.9019 67.7657 65.3418 67.5501 65.3974C67.3171 65.1382 66.8303 65.4834 66.827 65.6664C66.8161 66.0105 67.6645 66.2882 67.7625 65.931C67.8594 65.9756 67.8975 66.0845 68.0598 66.0671C68.1164 65.7393 68.0456 65.4627 68.1872 65.1796ZM100.892 43.6871H100.767C100.685 43.7546 100.579 43.796 100.467 43.8254C99.5144 43.6958 98.2763 43.8613 97.3234 43.7339C96.6275 44.1913 96.0438 44.7663 95.4949 45.3772C95.117 45.5188 94.9341 45.8607 94.6455 46.1319C94.5127 46.2528 94.3123 46.3203 94.1772 46.4412C94.0945 46.5185 94.0477 46.6709 93.9671 46.7504C93.9061 46.8071 93.7841 46.8212 93.7111 46.8866C93.5021 47.075 93.3224 47.2873 93.1209 47.4648C92.8084 47.7218 92.4523 47.9222 92.2214 48.1748C92.0657 48.3491 92.0243 48.6409 91.7586 48.7063C91.7172 48.9361 91.5669 49.0863 91.4613 49.2845C91.3513 49.4751 91.3078 49.7027 91.2043 49.9031C91.1662 49.9946 91.0486 50.0686 90.9919 50.1688C90.9277 50.2897 90.9277 50.4574 90.8656 50.5696C90.8177 50.6523 90.7001 50.6937 90.65 50.7906C90.3821 51.3221 90.0957 52.056 89.7603 52.569C89.6122 52.7966 89.4554 52.9436 89.4205 53.144C89.3998 53.2681 89.4619 53.4304 89.4619 53.548C89.4606 53.7274 89.4305 53.9095 89.3906 54.0927L89.2602 54.6439L89.2082 54.919C89.1875 55.0519 89.2223 55.1815 89.2082 55.3209C89.1493 55.8131 88.8869 56.3206 89.0372 56.877C89.2702 56.8945 89.5708 56.6505 89.818 56.6832C89.83 56.7769 89.9334 56.7747 89.9487 56.8629C89.8692 59.7411 89.8953 62.725 89.818 65.6087C90.1131 65.4878 90.1719 65.4584 90.479 65.3527C90.491 65.1545 90.2754 65.1818 90.3113 64.9542C90.2993 64.7178 90.6086 64.8213 90.6086 64.6002C90.4997 64.3792 90.4997 64.0405 90.5258 63.7987C90.7208 63.8096 90.821 63.7247 90.9506 63.6691C90.9713 63.2619 91.3165 63.1649 91.1662 62.6901C91.311 62.3384 91.8827 62.652 92.1397 62.3776C92.2628 62.4266 92.2628 62.6041 92.4817 62.5573C92.5753 62.5333 92.4817 62.321 92.5666 62.2916C92.8617 62.2589 93.0066 61.8396 93.3714 62.0258C93.5043 62.1914 93.2309 62.2382 93.2865 62.4658C93.5402 62.6542 93.6959 62.297 93.8789 62.4244C93.929 62.6629 93.7667 62.6901 93.7972 62.9112C93.9769 63.1029 94.2415 63.0909 94.5606 63.0462C94.602 63.1178 94.6342 63.1988 94.6638 63.2826L94.7506 63.5353C94.8116 63.7004 94.8873 63.8499 95.0289 63.9305C94.9646 64.0579 94.8252 64.108 94.8557 64.3323C95.0648 64.5915 95.3882 64.7244 95.7933 64.781C95.8641 64.7157 95.8456 64.4118 95.9197 64.365C95.8521 61.7373 95.9262 59.0627 95.8783 56.5623C96.0111 56.4905 96.0046 56.3347 96.046 56.2084C96.0852 56.1049 96.12 55.8425 96.132 55.8131C96.2115 55.6334 96.4478 55.3492 96.6014 55.1466C96.976 54.6359 97.3092 54.3419 98.0486 54.2526C99.3228 54.1055 100.965 54.344 101.83 54.2526C102.201 54.5008 102.909 54.4181 103.322 54.5684C103.536 54.6446 103.664 54.8668 103.876 54.8363C103.997 55.1052 104.218 55.3524 104.304 55.6802C104.44 56.1866 104.306 56.8803 104.392 57.488C104.466 58.0161 104.433 59.0365 104.433 59.5897C104.433 60.7136 104.359 61.5957 104.46 62.4658C104.478 62.6183 104.456 62.8927 104.475 63.0321C104.486 63.1551 104.516 63.1649 104.545 63.3087C104.58 63.4742 104.472 63.7628 104.713 63.7541C104.932 63.6626 104.589 63.2466 104.888 63.2227C105.115 63.2673 104.958 63.7073 105.353 63.5809C105.406 63.2619 105.103 63.1116 105.223 62.8665C105.634 62.8546 105.677 63.2227 105.946 63.3555C106.146 63.386 106.138 63.1943 106.329 63.2227C106.406 63.4535 106.695 63.4622 106.671 63.7987C106.806 63.7813 106.844 63.8575 106.884 63.9305C106.848 64.0841 106.535 64.426 106.84 64.512C107.067 64.4826 106.908 64.0427 107.222 64.1113C107.248 64.1355 107.257 64.1763 107.261 64.2227L107.267 64.3687C107.273 64.4396 107.289 64.4994 107.352 64.512C107.647 64.5382 107.573 64.1821 107.904 64.2409C107.936 64.3737 107.813 64.6623 108.027 64.6002C108.217 64.4238 108.134 64.0666 108.115 63.7987C108.013 62.5333 108.115 60.988 108.072 59.8936C108.034 58.9353 108.013 57.9856 108.027 57.0948C108.131 56.9751 108.352 56.9957 108.37 56.7856C108.077 55.3644 107.919 54.1208 107.477 52.79C107.526 52.6637 107.66 52.6223 107.647 52.4361C106.908 51.0945 106.076 49.8476 105.483 48.3491C105.525 48.1748 105.772 48.2141 105.737 47.9505C105.326 47.7011 105.088 47.2699 104.631 47.0608C104.572 46.9519 104.486 46.8572 104.421 46.7504C104.135 46.6187 103.971 46.4324 103.778 46.2647C103.572 46.0785 103.375 45.8847 103.185 45.73C103.078 45.6418 102.933 45.5917 102.847 45.509C102.759 45.4273 102.723 45.2759 102.634 45.1997C102.526 45.1028 102.36 45.0701 102.251 44.9754C102.106 44.861 102.015 44.6487 101.87 44.53C101.764 44.445 101.631 44.4418 101.532 44.3568C101.426 44.2675 101.34 44.0965 101.231 43.9996C101.107 43.8929 100.939 43.8755 100.892 43.6871ZM70.7845 64.035C70.5884 64.0198 70.4594 64.0764 70.3428 64.1468L70.1707 64.2554C70.1119 64.2902 70.0494 64.3212 69.9764 64.3411C69.8087 64.3117 69.8795 64.035 69.6813 64.035C69.4286 64.1254 69.1564 63.9425 68.9615 64.1254C68.9506 64.4206 69.0834 64.8039 69.384 64.9193C69.4929 64.9607 69.6105 64.8594 69.7205 64.8747C69.8414 64.8899 70.0526 65.0598 70.2334 65.099C70.3369 65.1164 70.4425 65.0696 70.5307 65.099C70.95 65.2199 71.3366 65.5978 71.7199 65.4083C71.7395 65.2667 71.6458 65.2493 71.6785 65.099C71.4803 64.9335 71.1678 64.8899 70.9554 64.7396C70.84 64.4826 70.8727 64.3291 70.7845 64.035ZM105.525 65.1371C105.356 65.0075 105.031 64.9073 105.097 65.3114C105.179 65.3941 105.314 65.4083 105.441 65.4409C105.494 65.3702 105.551 65.2961 105.525 65.1371ZM103.788 55.8131C103.581 55.4265 102.961 54.8602 102.505 55.4145C102.835 55.5822 103.17 55.7859 103.227 56.2084C103.26 56.4502 103.156 56.656 103.144 56.9184C103.118 57.5435 103.218 58.3134 103.185 59.0921C103.151 59.9382 103.092 60.8791 103.144 61.6218C103.156 61.8255 103.265 62.0465 103.268 62.2469C103.28 62.4745 103.206 62.652 103.185 62.8665C103.118 63.6572 103.139 64.4412 103.227 65.0456C103.428 65.1164 103.643 65.2046 103.864 65.1371C103.902 62.48 103.784 58.7175 103.788 55.8131ZM80.3263 63.4895C80.2141 63.4895 80.0867 63.4742 80.0279 63.533C79.9985 63.6975 80.0813 63.7454 80.0747 63.8869C80.0399 64.2496 79.503 64.0873 79.5237 64.512C80.1901 65.0881 80.996 64.5676 81.6058 64.4674C81.376 64.4794 81.5002 64.132 81.3053 64.1113C81.1256 64.1287 81.1256 64.3345 80.9219 64.3323C80.7804 64.2322 80.665 64.1167 80.7542 63.8869C80.506 63.8695 80.4177 63.6779 80.3263 63.4895ZM118.631 62.5094L118.64 62.7558C118.653 63.0875 118.672 63.4191 118.694 63.6691C118.592 63.9163 118.255 63.9163 118.015 64.022C117.96 64.3323 118.074 64.5915 118.311 64.5534C118.568 64.512 118.485 64.0579 118.694 63.9305C118.936 63.8869 119.022 64.1668 119.163 63.9784C119.22 63.9104 119.095 63.61 118.949 63.2822L118.822 62.9994C118.74 62.8127 118.666 62.6363 118.631 62.5083V62.5094ZM116.91 63.5809C116.639 63.3032 116.489 63.7421 116.273 63.7987C116.04 63.5385 115.554 63.8837 115.551 64.0666C115.539 64.4118 116.387 64.6895 116.485 64.3323C116.582 64.377 116.62 64.4859 116.783 64.4674C116.839 64.1407 116.769 63.863 116.91 63.5809ZM88.7453 58.0238C88.0342 57.9835 86.9931 58.2753 86.3212 58.1599C86.2472 58.1512 86.1742 58.0771 86.1089 58.0717C85.7223 58.0543 85.2867 58.1686 85.0471 58.2067C84.4928 58.284 83.9886 58.2067 83.431 58.2067C82.9421 58.2067 82.4291 58.3407 81.901 58.3407C81.2552 58.3407 80.4973 58.2927 80.0279 58.3842C79.2405 58.5378 78.4358 58.3461 77.6103 58.4289C77.7149 59.2554 77.6245 60.5274 77.6125 61.5532C77.6223 61.5695 77.6288 61.5815 77.6397 61.5989C77.7388 61.5989 77.9283 61.5902 78.1254 61.5968C78.0927 60.9379 78.0851 60.2399 78.4096 60.2029C78.7156 60.1713 78.7516 60.5688 78.793 60.8258C78.8202 61.0044 78.793 61.3942 78.7646 61.7961C78.8387 61.8875 78.8409 62.0237 78.7363 62.2175C78.7331 62.2872 78.7298 62.3547 78.7265 62.419C78.879 62.2349 79.1033 61.8821 79.1229 62.0618C79.1436 62.2534 79.3712 62.3711 79.5084 62.5366C79.5814 62.0204 79.6249 61.3833 79.6914 60.9586C79.8776 61.1949 80.2195 60.9913 80.3731 61.2679C80.3673 61.3726 80.3572 61.4879 80.3476 61.6067L80.3304 61.847C80.3009 62.3689 80.3406 62.8696 80.8392 62.7783C80.6388 62.1032 80.6736 61.4454 80.6301 60.6461C80.7444 60.4457 80.8719 60.254 81.0929 60.1593C81.7267 60.5688 81.2846 62.2153 81.4762 62.9613C81.6058 63.0528 81.7768 63.1116 81.9859 63.1323C82.0033 62.6749 81.9358 61.9496 81.8596 61.4454C82.0251 61.3419 82.2189 61.3507 82.4106 61.404C82.4433 62.0531 82.5696 62.4124 82.623 63.0909C82.9007 63.0996 82.9268 62.8426 83.0923 62.737C82.9747 62.0879 83.039 61.4182 83.0008 60.6461C83.0379 60.6377 83.0629 60.617 83.0842 60.5925L83.1454 60.5161C83.1788 60.4807 83.2225 60.4557 83.3047 60.4697C83.5791 61.1176 83.5051 61.9463 83.5551 62.7783C83.8263 62.8165 83.8622 63.9196 84.1922 63.7628C84.0332 62.9112 83.982 61.6077 83.9418 60.7822C84.0735 60.6602 84.4514 60.5927 84.5756 60.6047C84.691 60.7691 84.6289 60.9347 84.5756 61.135C84.7672 61.3038 84.7106 61.3953 84.6572 61.6719C84.8609 61.82 84.6812 62.064 84.6572 62.3384C84.8913 62.6008 84.655 64.0198 85.1799 63.9752C85.3629 63.8129 85.3095 63.0343 85.3008 62.8219C85.2975 62.6869 85.3476 62.5388 85.3422 62.3776C85.3335 62.1347 85.2333 61.8462 85.2126 61.5804C85.2006 61.3158 85.2213 61.0229 85.2126 60.7822C85.2028 60.5285 85.059 60.1593 85.3422 60.0711C85.5426 60.0831 85.6014 60.2388 85.7222 60.3368C85.6907 60.6929 85.903 60.9499 85.7669 61.2679C86.1263 61.8342 85.7375 63.4622 85.8257 64.0666C86.1067 64.1026 86.2537 64.0046 86.4214 63.9305C86.392 63.276 86.3354 61.9137 86.3212 61.2265C86.4094 61.1448 86.6305 61.1949 86.7895 61.183C86.9169 61.6697 86.7895 62.86 86.8603 63.3087C86.9169 63.6593 86.8222 64.0841 87.2414 63.9752C87.4766 63.3087 87.3122 62.0117 87.3383 61.3594C87.3144 61.2505 87.1761 61.2592 87.212 61.0915C87.1848 60.9499 87.2414 60.8878 87.2534 60.7822C87.1238 60.5873 87.0726 60.5252 87.126 60.2029C86.8701 59.9622 87.0225 59.3992 87.3383 59.3632C87.4265 59.446 87.5572 59.4874 87.677 59.5375C87.6422 59.7411 87.7783 59.7618 87.8044 59.8936C87.8131 60.0351 87.7304 60.0831 87.7631 60.2475C87.8012 60.3455 87.8926 60.3804 87.8926 60.5132C87.8959 61.4508 87.8099 63.2205 87.7631 64.1026C87.9961 64.096 88.5624 64.096 88.7453 64.1472C88.6625 62.4364 88.8183 59.7411 88.7453 58.0238ZM95.9587 54.2087C96.0644 54.5005 95.681 54.6454 95.5362 54.8338C95.6015 55.1223 95.3239 55.2617 95.2858 55.5416C95.2618 55.6799 95.3565 55.9402 95.3685 56.1634C95.424 57.0695 95.2357 58.1596 95.2771 59.1593C95.3239 60.2831 95.289 61.248 95.3631 62.227C95.3827 62.4742 95.3707 62.7693 95.3631 63.0263C95.3565 63.2234 95.4306 63.5153 95.1823 63.6122C94.8436 63.6688 95.1975 63.194 95.0647 62.9457C94.9318 62.7018 94.7609 62.3925 94.6901 62.0266C94.6955 61.8545 94.64 61.7053 94.6748 61.5692C94.651 61.2859 94.6976 61.1472 94.7384 61.0614L94.7745 60.9897C94.8029 60.9288 94.8002 60.8902 94.6901 60.7819C94.787 59.7789 94.4897 58.6551 94.6454 57.4495C94.6574 57.3526 94.7227 57.2426 94.7347 57.1424C94.7576 56.6829 94.6726 56.2288 94.7347 55.8128C94.8077 55.241 95.4208 54.4973 95.8368 54.2087H95.9587ZM87.8926 53.634C87.7663 53.5251 87.5681 53.6275 87.5093 53.7222C86.8516 53.5719 85.8203 53.7484 85.1266 53.8551C84.4285 53.5861 83.6847 53.9019 82.9649 53.8986C80.9339 53.8954 78.8311 54.0348 76.628 54.0783C76.6226 54.1643 76.5191 54.1643 76.4603 54.209C76.4124 54.3353 76.4124 54.4442 76.4603 54.5684C76.4004 54.6511 76.2534 54.6446 76.1652 54.7012C76.1271 54.931 76.3688 54.8668 76.3362 55.0987C76.1412 55.3143 76.0029 55.5626 75.8265 55.8545C75.6164 56.1899 75.2711 56.4796 75.3158 56.9631C75.3746 57.0045 75.4432 57.036 75.4846 57.0948C75.9855 57.1308 76.0443 56.7769 76.2512 56.5209C76.7021 55.9481 77.3032 55.4145 77.9054 55.0551C77.9817 55.1553 78.1493 55.1553 78.1613 55.3209C78.0524 55.5561 77.8281 55.6835 77.6517 55.8545C77.6005 56.1583 77.448 56.3489 77.3087 56.5623C77.3925 56.6832 77.4001 56.8803 77.6103 56.877C77.7551 56.8063 77.7638 56.595 77.8662 56.4763C78.3944 56.3489 78.4031 55.677 78.9258 55.5419C79.1763 55.6977 79.0576 55.9362 79.0935 56.1638C78.7897 56.3609 78.5654 56.644 78.4118 57.0045C78.5599 57.1722 78.9258 57.072 79.0521 57.0513C79.5563 56.5558 79.7981 55.7924 80.4123 55.4145C80.5974 54.9637 81.0309 54.7807 81.4349 54.5684C81.6799 54.6805 81.6646 54.9158 81.5645 55.1466C81.4022 55.4853 80.922 55.8425 80.8773 56.1638C80.5735 56.3053 80.4199 56.6026 80.2849 56.9184C80.6355 57.1515 81.0461 56.8629 81.3902 56.9631C81.9118 56.3434 82.4226 55.7042 83.0008 55.1466C83.2568 55.1107 83.4136 55.078 83.5551 55.2327C83.5345 55.4145 83.5813 55.5321 83.6433 55.6334C83.4931 55.7271 83.4223 55.9067 83.2132 55.9394C83.1098 56.1169 83.0009 56.338 82.8767 56.5209C82.7645 56.6919 82.5261 56.8444 82.5816 57.0513C82.9649 57.1722 83.1217 56.656 83.3428 56.3848C83.6346 56.0342 84.1389 55.4505 84.4046 55.4145C84.4394 55.4058 84.8173 55.5387 84.7912 55.5419C84.9001 56.2291 84.1541 56.3881 84.0234 56.9631C84.2423 57.0546 84.5015 56.8509 84.8326 56.9184C84.8195 56.4534 85.1353 56.1278 85.3422 55.7652C85.4391 55.7804 85.5044 55.7597 85.5578 55.7184C85.8377 55.3416 86.062 54.8929 86.6163 54.7894C86.808 54.8668 86.7786 55.1815 86.9583 55.2762C86.6751 55.6334 86.3648 55.9579 86.147 56.3848C85.9314 56.4262 85.8399 56.5972 85.8083 56.8335C86.0533 56.9925 86.2123 56.7322 86.3648 56.6538C86.7372 56.6832 86.8429 56.6625 87.1674 56.6092C87.1987 56.5473 87.2267 56.4819 87.253 56.4146L87.4035 56.0035C87.4557 55.8686 87.5141 55.7406 87.5921 55.6334C87.4505 55.1793 87.7304 54.8014 87.8926 54.5215C87.8785 54.3114 87.6835 54.2907 87.7216 54.0348C87.6835 53.8039 87.9406 53.8779 87.8926 53.634ZM95.3242 52.212C95.7108 52.1412 96.0168 52.4124 96.2618 52.212C96.4241 52.2359 96.4981 52.3503 96.6833 52.3448C97.2789 52.3448 98.1316 52.4363 99.066 52.4363C99.482 52.4363 99.9067 52.4984 100.216 52.3917C100.364 52.3808 100.42 52.4723 100.552 52.4777C101.549 52.2686 102.856 52.6487 103.909 52.5245C104.037 52.6628 103.94 52.8959 103.909 53.1028C102.861 53.1583 101.638 53.1986 100.466 53.1442C99.5528 53.1017 98.2558 53.3957 96.8542 53.056C96.4927 52.9678 95.7957 52.9144 95.2414 52.9699C95.2469 52.7608 95.1064 52.3209 95.3242 52.212ZM79.822 49.682C79.7153 49.5993 79.6445 49.6973 79.4801 49.682C79.4801 49.7408 79.4028 49.7234 79.3941 49.767C79.0402 50.1895 78.684 50.5903 78.2027 50.8767C78.1439 51.1859 77.2825 51.5344 77.2683 51.8143C77.2564 52.0506 77.2825 52.1824 77.7366 52.1268C77.7835 51.407 78.3715 51.2513 78.671 50.7906C78.9454 50.7144 79.0783 50.44 79.2677 50.2603C79.4474 50.0828 79.7621 49.9793 79.822 49.682ZM90.0565 49.1484C89.9134 48.9661 89.762 48.9802 89.6077 49.0259L89.4525 49.0759C89.4005 49.092 89.3484 49.1055 89.2964 49.1103C89.1232 49.119 88.9784 49.033 88.7421 49.0188C88.3642 48.9927 87.8926 49.1484 87.5921 49.1103C87.5126 49.0918 87.4625 49.0188 87.3797 49.0188C86.9049 49.0101 86.563 49.1658 86.3212 49.1952C85.976 49.2312 85.6667 49.1277 85.3008 49.1484C85.1418 49.278 84.7759 49.3401 84.5342 49.2399C84.2772 49.4522 83.9559 49.3553 83.6433 49.3727C82.5108 49.425 81.2258 49.5818 80.1172 49.6406C80.3884 50.269 79.9898 50.3953 79.7338 50.7057C79.503 50.9801 79.4093 51.3155 79.1785 51.4157C79.1077 51.4898 79.0369 51.3754 78.8844 51.4157C78.843 51.7402 78.4684 51.7195 78.4118 52.0321C78.5599 52.1802 78.9846 52.0234 79.3081 52.08C79.4616 51.811 79.822 51.7587 79.7752 51.2839C79.8569 51.1293 80.0638 51.1239 80.2468 50.9703C80.6094 50.6523 80.9807 49.8976 81.3902 50.526C81.1517 50.7492 80.9808 51.0444 80.8773 51.4157H80.4526C80.4319 51.6814 80.2086 51.7489 80.2021 52.0321C80.4352 52.08 80.898 52.006 81.2606 52.0321C81.3281 51.97 81.2987 51.811 81.3053 51.6814C81.7822 51.4157 81.8509 50.3931 82.452 50.2603C82.5936 50.2276 82.9475 50.2135 83.0455 50.3953C83.027 50.8886 82.9388 51.3155 82.5402 51.4157C82.5729 51.6542 82.4847 51.7729 82.4934 51.9907C83.1925 51.9678 84.0441 52.08 84.6572 51.9471C85.1266 51.1217 85.5578 50.2483 86.5303 49.9477C86.6076 49.9891 86.6632 50.0479 86.7013 50.1296C86.6283 50.5696 86.3386 50.7852 86.062 51.015C86.086 51.4244 85.6569 51.4898 85.8083 51.9025C85.988 52.0114 86.2058 51.8404 86.4062 51.9471C86.8603 51.5518 86.8668 50.685 87.5093 50.4813C87.6215 50.1067 87.946 49.9978 88.2738 49.8617C88.3881 49.8116 88.7279 49.5524 88.8215 49.8617C88.8313 50.0828 88.5885 50.1361 88.4862 50.2603C88.4088 50.3518 88.3533 50.4726 88.2738 50.5696C87.9907 50.9268 87.677 51.2741 87.5921 51.8143C88.0527 52.0059 88.2324 51.5834 88.4001 51.3722C88.4763 51.2741 88.5885 51.2273 88.656 51.1478C88.8008 50.9736 88.8989 50.7351 89.0372 50.5696C89.2964 50.2777 89.5882 50.122 89.6743 49.767C89.9422 49.7092 90.0042 49.4348 90.0565 49.1484ZM98.8095 48.5758C98.9576 48.5704 99.1689 48.6466 99.3617 48.6618C99.9835 48.7141 100.567 48.6052 101.104 48.7468C101.275 48.798 101.437 48.9385 101.614 48.9711C101.823 49.0092 102.018 48.9363 102.166 48.9711C102.708 49.0974 103.682 49.8826 103.825 50.4347C103.941 50.891 103.867 51.3952 103.696 51.8548C103.059 51.8788 102.446 51.8875 101.829 51.8548C100.935 51.8167 100.054 51.9147 99.2342 51.8145C98.1518 51.6816 96.3506 51.8875 95.1973 51.637C95.2714 51.3484 95.1592 51.1328 95.1973 50.927C95.2442 50.6841 95.5131 50.523 95.4565 50.1679C96.1818 49.2717 97.3089 48.6085 98.8095 48.5758ZM85.3005 49.5024C85.2863 49.668 85.307 49.7943 85.3419 49.9032C84.891 50.3072 84.475 50.7439 84.2779 51.4158C84.2333 51.4038 84.2039 51.4245 84.1952 51.4605C84.0122 51.4866 83.9556 51.3832 83.8532 51.3243C83.8826 51.1065 84.0296 51.0238 83.9414 50.7907C84.4369 50.4074 84.56 49.6342 85.3005 49.5024ZM97.899 47.9007C98.5535 47.9683 99.5238 47.83 100.125 47.9095C100.331 47.9334 100.624 47.9955 100.721 48.1752C99.8091 48.2492 98.9771 48.0478 98.1724 48.1752C98.0254 48.1959 97.9045 48.3135 97.7509 48.3494C97.556 48.3995 97.3229 48.3461 97.152 48.3962C96.8285 48.4845 96.4387 48.6674 96.1762 48.8416C95.917 49.0093 95.7722 49.3513 95.4564 49.4166C95.3562 49.0213 95.8582 48.8645 96.0118 48.5912C96.1817 48.4137 96.382 48.4638 96.5389 48.3015C96.9962 48.1719 97.5266 48.1185 97.899 47.9007ZM94.0945 44.6214C92.9652 44.3742 91.3938 44.5626 90.4376 44.53C89.4826 44.5017 88.2498 44.5191 87.5093 44.6214C87.1107 44.6781 86.6392 44.6007 86.1916 44.6214C85.8551 44.6389 85.5099 44.7216 85.2126 44.7096C85.1266 44.702 85.0503 44.6334 84.9589 44.6214C84.728 44.5953 84.7552 44.6421 84.5342 44.6214C84.3981 44.6835 84.2772 44.8077 84.1095 44.7129C83.5965 45.1289 83.0662 45.5188 82.623 46.0012C82.1656 46.2114 81.9097 46.5947 81.559 46.8866C81.5176 46.9247 81.4436 46.9486 81.3456 47.0194C81.0951 47.2165 80.8392 47.2938 80.8773 47.6859C81.0951 47.8275 81.1659 47.736 81.4349 47.6826C81.62 47.455 81.8509 47.2644 82.0273 47.0162C82.2135 46.9227 82.3758 46.7983 82.5307 46.6665L82.8353 46.3998C83.0923 46.1733 83.3101 45.8694 83.6848 45.7747C83.8732 45.8847 83.9504 46.1199 84.0234 46.353C83.8731 46.5239 83.6553 46.6187 83.5551 46.8419C83.2894 47.0074 82.9856 47.137 82.9649 47.5563C83.0771 47.5737 83.2306 47.5944 83.3428 47.5563C83.6085 47.4496 83.7381 47.0336 83.9853 46.7504C84.104 46.6121 84.337 46.4237 84.4928 46.353C84.6311 46.2876 84.7912 46.3257 84.9175 46.2647C85.0177 46.2168 85.0438 46.0665 85.2126 46.0851C85.3041 46.158 85.4489 46.1667 85.4696 46.3116C85.2888 46.7864 84.7487 46.8898 84.6224 47.4169C84.7846 47.4703 85.1059 47.3527 85.2562 47.3755C85.3803 47.1958 85.4979 47.0042 85.7669 46.9748C85.8323 46.6481 86.2711 46.3257 86.5303 46.488C86.6185 46.8659 86.2058 46.9279 86.3212 47.1958C86.5672 47.2901 86.7294 47.1616 86.8764 47.0063L87.0001 46.8713C87.0412 46.8271 87.0826 46.7853 87.126 46.7504C87.3263 46.5914 87.5474 46.4858 87.7631 46.353C87.8959 46.4651 88.0876 46.5239 88.2738 46.574C88.2498 46.7744 87.9906 46.8071 88.1028 47.0162C88.2879 47.0162 88.4861 47.0336 88.6157 46.9748C89.0786 46.3824 89.3878 45.6211 90.0565 45.2443C90.0989 45.3206 90.1632 45.3739 90.1839 45.4654C90.1044 45.6593 89.9715 45.8106 89.928 46.0404C89.7156 46.3791 89.3312 46.5446 89.2964 47.0608C89.806 47.565 90.3113 46.7777 90.479 46.353C90.8591 46.2615 90.8591 45.7692 91.2903 45.73C91.5081 46.0491 91.0573 46.2375 91.0366 46.574C90.8689 46.7276 90.626 46.7951 90.65 47.1523C90.6859 47.1632 90.7001 47.1871 90.6935 47.2438C91.3132 47.553 91.6148 46.831 91.9274 46.5326C92.1713 46.476 92.216 46.2081 92.4817 46.1765C92.6853 45.8607 92.9946 45.6484 93.2865 45.424C93.4248 45.3151 93.611 45.2269 93.7526 45.1115C93.8909 44.9961 94.0771 44.8284 94.0945 44.6214ZM108.37 42.4042C108.169 42.2039 107.936 42.3955 107.818 42.5338C107.778 43.1295 107.856 43.7078 107.859 44.2675C107.866 45.1997 107.727 46.194 107.859 47.0608C107.919 47.0336 108.008 47.1555 108.115 47.1523C108.488 47.149 108.379 46.6862 108.37 46.3116C108.352 45.8923 108.417 45.5188 108.414 45.1997C108.402 44.1564 108.5 43.0446 108.37 42.4042ZM112.619 36.3178C112.597 36.6598 112.855 37.1814 112.404 37.164C112.121 37.1553 112.274 36.7599 111.938 36.7218C111.973 37.0278 111.805 37.2173 111.64 37.4319C111.66 37.7128 111.808 38.3673 111.475 38.4969C111.331 38.4523 111.342 38.2486 111.133 38.2758C110.929 38.7441 110.75 39.2374 110.664 39.8266C110.941 39.8886 111.294 39.7797 111.558 39.783C111.477 39.0784 112.203 39.1754 112.153 39.783C112.357 39.7623 112.652 39.8298 112.788 39.7384C112.746 39.367 112.694 38.9194 113.082 38.8955C113.375 39.2755 113.781 39.5293 114.02 39.9627C114.215 40.0073 114.377 40.089 114.657 40.0509C114.766 39.8091 115.155 39.8592 115.379 39.7384C115.441 39.8527 115.42 40.0509 115.51 40.1402C115.878 40.0008 116.151 40.2339 116.57 40.1805C116.697 40.3667 116.928 40.4048 117.078 40.5377C117.207 40.652 117.257 40.8883 117.462 40.8916C117.685 40.6586 117.258 40.5377 117.252 40.2687C117.314 40.0542 117.45 39.9191 117.589 39.783C116.722 38.8356 115.368 38.4087 114.445 37.5212C114.312 37.4852 114.318 37.5974 114.189 37.5615C114.173 37.4765 114.1 37.4504 114.105 37.3404C113.521 37.0932 113.192 36.5803 112.619 36.3178ZM107.774 38.8955C107.455 38.8628 107.291 39.1786 107.096 39.3376C106.916 39.4824 106.583 39.5881 106.583 39.9159C106.752 39.8886 106.922 39.954 107.051 39.9159C107.329 39.832 107.745 39.1699 107.774 38.8955ZM108.244 39.2048C107.894 39.3169 107.668 39.5565 107.562 39.9159C108.046 39.9714 108.27 39.5347 108.244 39.2048ZM110.271 37.9609L110.195 37.9633C110.063 38.2671 109.998 38.5296 109.897 38.8476C109.856 38.9891 109.721 39.1372 109.644 39.2962C109.565 39.4672 109.453 39.6502 109.477 39.8712C109.569 39.9159 109.888 39.8799 110.027 39.8266C110.055 39.4258 110.139 39.0837 110.234 38.753L110.38 38.2594L110.449 38.0079C110.401 37.9578 110.298 37.9578 110.195 37.9633L110.271 37.9609ZM109.6 38.2758H109.477C109.434 38.348 109.386 38.4129 109.336 38.476L109.186 38.665C109.065 38.8265 108.966 39.0095 108.966 39.2962C108.847 39.4106 108.668 39.6502 108.797 39.8712C109.001 39.8799 109.087 39.6055 109.178 39.4258C109.301 39.1906 109.461 38.963 109.477 38.6733C109.531 38.5612 109.714 38.4229 109.6 38.2758Z" fill="white"/>
</svg>
