<svg width="200" height="140" viewBox="0 0 200 140" fill="none" xmlns="http://www.w3.org/2000/svg">
<path fill-rule="evenodd" clip-rule="evenodd" d="M108.573 58.8737C95.4157 49.5331 79.3037 44.0263 61.8955 44.0001C44.4091 43.9739 28.2179 49.4796 15 58.8551L15.362 59.34C27.7228 50.6589 42.8202 45.555 59.117 45.555C67.8244 45.555 76.1874 47.0128 83.976 49.6936L83.6866 50.5224C76.4559 48.2194 68.752 46.9637 60.7577 46.9364C47.6476 46.8905 35.3045 50.1489 24.5272 55.9232L24.8826 56.4801C34.6134 51.207 45.7758 48.2085 57.6425 48.2085C63.4261 48.2085 69.0425 48.9205 74.4059 50.2603L74.2243 51.1142C69.1933 49.9436 63.9477 49.3256 58.5569 49.3256C50.688 49.3256 43.1272 50.6436 36.0912 53.0699L36.3058 53.7404C42.292 51.6591 48.7216 50.5147 55.4208 50.4874C59.61 50.4711 63.6957 50.8969 67.6373 51.7115L67.6131 52.1538C61.9109 53.5908 57.0505 55.2451 51.3625 59.0124L51.5463 59.3247C60.3175 55.8413 69.848 53.8452 79.8737 53.8452C89.9456 53.8452 99.5653 55.7802 108.372 59.2952C108.531 59.364 108.688 59.4317 108.816 59.4874L108.978 59.162C108.901 59.1086 108.824 59.0535 108.748 58.9985L108.748 58.9984C108.69 58.9566 108.632 58.9147 108.573 58.8737ZM120.003 61.0766C120.003 62.9854 120.144 63.1077 121.873 63.2136V63.6154H116.72V63.2136C118.379 63.1077 118.521 62.9854 118.521 61.0766V52.8116H117.691C116.121 52.8116 115.644 53.0398 115.379 53.3706C115.185 53.6163 114.973 54.1066 114.762 54.8775H114.32C114.346 54.4822 114.377 54.0795 114.408 53.6838L114.408 53.6834L114.408 53.6829C114.459 53.01 114.509 52.3572 114.532 51.7949H114.779C115.043 52.1979 115.22 52.2328 115.697 52.2328H122.932C123.391 52.2328 123.479 52.1291 123.762 51.7949H124.009C124.026 52.532 124.115 53.8096 124.203 54.8251L123.762 54.8775C123.585 54.0378 123.391 53.5464 123.126 53.2669C122.826 52.9339 122.279 52.8116 121.185 52.8116H120.003V61.0766ZM130.361 55.8054C129.408 55.8414 128.455 56.4016 127.856 57.0317V51.182C127.184 51.3578 126.055 51.6374 125.226 51.7957V52.1452L125.297 52.1513C126.445 52.2508 126.479 52.2537 126.479 53.3015V62.0405C126.479 63.02 126.391 63.1074 125.278 63.2133V63.6151H129.021V63.2133C127.944 63.1074 127.856 63.02 127.856 62.0405V57.5744C128.297 57.0666 128.949 56.8035 129.673 56.7685C130.961 56.7685 131.421 57.5919 131.421 58.8531V62.0405C131.421 63.02 131.332 63.1074 130.22 63.2133V63.6151H133.962V63.1958C132.885 63.1074 132.797 63.02 132.797 62.0405V58.3278C132.797 56.7685 131.879 55.7705 130.361 55.8054ZM141.145 62.1098C140.175 63.4759 138.958 63.8264 138.48 63.8264C136.24 63.8264 134.898 62.1623 134.898 60.1312C134.898 57.7846 136.557 55.807 138.675 55.807C140.052 55.807 141.198 57.0661 141.198 58.2399C141.198 58.7826 141.145 58.8176 140.827 58.8875C140.581 58.941 138.392 59.1157 136.204 59.1856C136.151 61.7943 137.81 62.705 139.081 62.705C139.663 62.705 140.192 62.4964 140.899 61.8652L141.145 62.1098ZM139.381 58.5017C139.628 58.5017 139.7 58.4144 139.7 57.9426C139.7 57.2416 139.134 56.4008 138.216 56.4008C137.369 56.4008 136.451 57.2602 136.311 58.5541L139.381 58.5017ZM75.1554 67.6806C76.8841 67.6806 78.0142 68.2233 78.5435 70.238L78.9837 70.203C78.956 69.9622 78.9308 69.7312 78.9059 69.5038L78.9059 69.5035L78.9059 69.5034L78.9052 69.497L78.9051 69.4961L78.9051 69.4959L78.9051 69.4957C78.8363 68.8661 78.7704 68.2637 78.6657 67.5583C78.5871 67.5416 78.491 67.5186 78.379 67.4919L78.3786 67.4918L78.3784 67.4917L78.3783 67.4917C77.787 67.3504 76.7511 67.1029 75.4899 67.1029C71.6253 67.1029 68.8193 69.6079 68.8193 73.2146C68.8193 75.9981 70.69 79.0119 75.1554 79.0119C76.39 79.0119 77.9779 78.6428 78.4731 78.5216C78.6884 78.0105 78.9678 77.0663 79.19 76.3151C79.2575 76.0872 79.3197 75.877 79.3732 75.7021L78.932 75.6497C78.0659 77.4886 77.1482 78.4342 75.173 78.4342C72.3142 78.4342 70.5668 76.1924 70.5668 72.8117C70.5668 70.0632 71.9786 67.6806 75.1554 67.6806ZM85.6923 78.9588C85.0926 78.854 84.8274 78.2578 84.7218 77.821C84.6 77.8986 84.4725 77.9813 84.3429 78.0654C83.6824 78.4941 82.9663 78.9588 82.6563 78.9588C81.3678 78.9588 80.5381 77.9084 80.5381 76.9453C80.5381 76.1394 80.9628 75.5443 81.8806 75.1763C82.0892 75.0916 82.3319 74.9978 82.5875 74.899L82.5879 74.8988C83.3906 74.5886 84.3204 74.2291 84.7218 73.95V73.3549C84.7218 72.2695 84.209 71.6918 83.2748 71.6918C82.4099 71.6918 82.039 72.4267 81.8454 73.1616C81.7925 73.3724 81.633 73.4947 81.4393 73.4947C81.1565 73.4947 80.6789 73.2151 80.6789 72.8996C80.6789 72.6724 80.8924 72.4267 81.2809 72.1472C81.7045 71.8316 82.7444 71.1655 83.9977 70.9384C84.4929 70.9384 85.0387 71.0956 85.3919 71.3588C85.9751 71.8141 86.0632 72.4267 86.0632 73.0579V76.9977C86.0632 77.6452 86.292 77.9433 86.5572 77.9433C86.6981 77.9433 86.9985 77.8734 87.3165 77.7162L87.475 78.1006L85.6923 78.9588ZM84.7218 74.5111C84.3334 74.6684 83.2748 75.1412 82.9392 75.3159C82.3219 75.649 82.0215 75.9995 82.0215 76.6296C82.0215 77.5577 82.6564 77.9956 83.1868 77.9956C83.5928 77.9956 84.2454 77.6811 84.7218 77.3131V74.5111ZM88.1456 67.2786C89.3648 67.3659 89.3989 67.3834 89.3989 68.4164V77.1728C89.3989 78.1534 89.3109 78.2408 88.1104 78.3456V78.7485H92.0641V78.3456C90.8635 78.2408 90.7755 78.1534 90.7755 77.1728V66.3144C90.1417 66.4891 88.9929 66.7708 88.1456 66.928V67.2786ZM96.089 77.1726C96.089 78.1532 96.177 78.2416 97.3588 78.3453V78.7483H93.4579V78.3453C94.6243 78.2416 94.7124 78.1532 94.7124 77.1726V73.1269C94.7124 72.0764 94.6771 72.0589 93.5129 71.9191V71.6036C94.3239 71.4289 95.1888 71.2181 96.089 70.9036V77.1726ZM96.319 67.7686C96.319 68.2939 95.9118 68.7143 95.4013 68.7143C94.9072 68.7143 94.4824 68.2939 94.4824 67.7686C94.4824 67.2259 94.9072 66.8055 95.4013 66.8055C95.9118 66.8055 96.319 67.2259 96.319 67.7686ZM101.489 77.1723V71.814H103.5C103.695 71.7081 103.764 71.3401 103.675 71.149H101.489V70.413C101.47 68.9247 101.736 67.9779 101.983 67.6624C102.213 67.3468 102.494 67.1906 102.76 67.1906C103.342 67.1906 103.871 67.5412 104.259 67.9091C104.418 68.0489 104.559 68.0653 104.77 67.8906C104.894 67.7683 105.054 67.5936 105.107 67.4538C105.177 67.2944 105.212 67.1546 105.036 66.9635C104.718 66.6119 104.189 66.3498 103.712 66.3149C102.934 66.4022 102.3 66.6829 101.612 67.242C100.735 67.9844 100.455 68.8146 100.32 69.2156C100.309 69.2505 100.298 69.2821 100.288 69.3101C100.182 69.6246 100.112 70.1662 100.112 70.8847V71.149H99.2823L98.7882 71.6393L98.8575 71.814H100.112V77.1723C100.112 78.1365 100.024 78.2238 98.9455 78.345V78.749H103.059V78.345C101.577 78.2238 101.489 78.1365 101.489 77.1723ZM104.401 75.1582C104.401 72.2176 106.696 70.9389 108.301 70.9389C110.543 70.9389 112.148 72.6369 112.148 74.8252C112.148 77.5573 110.101 78.9582 108.319 78.9582C105.831 78.9582 104.401 76.9796 104.401 75.1582ZM110.542 75.2115C110.542 73.2678 109.694 71.4628 108.089 71.4628C106.905 71.4628 106.006 72.6727 106.006 74.5105C106.006 76.7337 106.978 78.4328 108.511 78.4328C109.605 78.4328 110.542 77.5745 110.542 75.2115ZM117.707 78.3454C116.33 78.2417 116.242 78.1533 116.242 77.1727V73.4775C116.701 72.5668 117.16 72.2337 117.585 72.2337C117.903 72.2337 118.096 72.3921 118.342 72.6017C118.43 72.6716 118.59 72.7066 118.784 72.6192C119.154 72.462 119.347 72.059 119.347 71.7609C119.347 71.4115 118.925 70.9387 118.394 70.9387C117.548 70.9387 116.683 72.0241 116.277 72.7066H116.242V70.9037C115.36 71.2182 114.495 71.429 113.665 71.6037V71.9192C114.831 72.059 114.865 72.0765 114.865 73.127V77.1727C114.865 78.1533 114.777 78.2417 113.648 78.3454V78.7484H117.707V78.3454ZM123.106 72.216C123.441 71.9714 123.829 71.7268 124.288 71.445C124.817 71.1306 125.258 70.9373 125.806 70.9373C127.253 70.9373 128.046 71.8829 128.046 73.2664V77.1724C128.046 78.153 128.135 78.2414 129.159 78.3451V78.7481H125.418V78.3451C126.581 78.2414 126.67 78.153 126.67 77.1724V73.8091C126.67 72.7936 126.335 71.9189 125.029 71.9189C124.34 71.9189 123.634 72.2858 123.106 72.7412V77.1724C123.106 78.153 123.194 78.2414 124.234 78.3451V78.7481H120.423V78.3451C121.641 78.2414 121.729 78.153 121.729 77.1724V73.1267C121.729 72.0762 121.694 72.0587 120.529 71.9189V71.6034C121.341 71.4276 122.206 71.2179 123.106 70.9023V72.216ZM134.276 78.3453C133.094 78.2416 133.006 78.1531 133.006 77.1726V70.9036C132.106 71.2181 131.241 71.4288 130.428 71.6035V71.9191C131.594 72.0589 131.629 72.0764 131.629 73.1268V77.1726C131.629 78.1531 131.541 78.2416 130.375 78.3453V78.7483H134.276V78.3453ZM132.317 68.7142C132.829 68.7142 133.235 68.2938 133.235 67.7686C133.235 67.2259 132.829 66.8055 132.317 66.8055C131.823 66.8055 131.399 67.2259 131.399 67.7686C131.399 68.2938 131.823 68.7142 132.317 68.7142ZM140.594 78.9584C139.994 78.8535 139.729 78.2573 139.623 77.8205C139.504 77.8966 139.379 77.9775 139.252 78.0599C138.59 78.49 137.869 78.9584 137.558 78.9584C136.27 78.9584 135.44 77.9079 135.44 76.9448C135.44 76.1389 135.864 75.5438 136.782 75.1758C136.989 75.0917 137.23 74.9985 137.484 74.9004C138.289 74.5896 139.222 74.2292 139.623 73.9495V73.3544C139.623 72.269 139.111 71.6914 138.176 71.6914C137.312 71.6914 136.941 72.4262 136.747 73.1611C136.694 73.3719 136.535 73.4942 136.341 73.4942C136.058 73.4942 135.581 73.2146 135.581 72.8991C135.581 72.6719 135.795 72.4262 136.182 72.1467C136.605 71.8311 137.647 71.165 138.9 70.9379C139.394 70.9379 139.941 71.0951 140.294 71.3583C140.876 71.8137 140.964 72.4262 140.964 73.0574V76.9972C140.964 77.6447 141.193 77.9428 141.458 77.9428C141.599 77.9428 141.9 77.873 142.219 77.7157L142.376 78.1001L140.594 78.9584ZM139.624 74.511C139.237 74.6683 138.177 75.1411 137.842 75.3158C137.224 75.6488 136.924 75.9994 136.924 76.6294C136.924 77.5576 137.559 77.9955 138.09 77.9955C138.494 77.9955 139.149 77.681 139.624 77.313V74.511ZM96.7836 83.9395C98.1954 84.0454 98.3363 84.1677 98.3363 86.0764V92.3792C98.3363 94.2891 98.1954 94.4125 96.6064 94.5162V94.9202H104.954C105.095 94.4474 105.483 92.6599 105.571 92.1707L105.131 92.1183C104.866 92.923 104.583 93.5182 104.284 93.8337C103.895 94.2541 103.066 94.3415 102.06 94.3415C101.23 94.3415 100.595 94.3415 100.26 94.1318C99.9241 93.9222 99.8185 93.3969 99.8185 92.3989V89.2988H101.601C102.36 89.2988 102.748 89.3327 102.978 89.5259C103.207 89.7192 103.261 90.0686 103.349 90.7173H103.79V87.2492H103.349C103.171 88.5454 103.119 88.6502 101.601 88.6502H99.8185V84.658C99.8185 84.1491 99.8537 84.1153 100.348 84.1153H101.689C102.765 84.1153 103.349 84.2365 103.63 84.5357C103.895 84.8152 104.089 85.2706 104.266 86.1452L104.708 86.0939C104.618 85.1133 104.53 83.8335 104.512 83.5365H96.7836V83.9395ZM109.348 88.3878C109.685 88.1432 110.071 87.8986 110.531 87.6179C111.06 87.3024 111.5 87.1091 112.048 87.1091C113.496 87.1091 114.29 88.0547 114.29 89.4382V93.3442C114.29 94.3248 114.378 94.4132 115.401 94.5169V94.9199H111.661V94.5169C112.824 94.4132 112.913 94.3248 112.913 93.3442V89.9809C112.913 88.9654 112.579 88.0908 111.271 88.0908C110.582 88.0908 109.877 88.4576 109.348 88.913V93.3442C109.348 94.3248 109.436 94.4132 110.477 94.5169V94.9199H106.665V94.5169C107.883 94.4132 107.971 94.3248 107.971 93.3442V89.2985C107.971 88.248 107.937 88.2305 106.771 88.0908V87.7752C107.583 87.5994 108.449 87.3897 109.348 87.0741V88.3878ZM130.141 87.1103C128.536 87.1103 126.241 88.389 126.241 91.3296C126.241 93.151 127.671 95.1296 130.159 95.1296C131.941 95.1296 133.988 93.7286 133.988 90.9966C133.988 88.8072 132.383 87.1103 130.141 87.1103ZM129.929 87.6342C131.534 87.6342 132.382 89.4392 132.382 91.3829C132.382 93.747 131.445 94.6042 130.351 94.6042C128.816 94.6042 127.846 92.9051 127.846 90.6819C127.846 88.8441 128.745 87.6342 129.929 87.6342ZM138.155 95.0427L136.038 88.7901C135.72 87.863 135.65 87.8456 134.749 87.7222V87.3193H138.367V87.7222L137.643 87.8456C137.291 87.9155 137.203 88.0716 137.36 88.5281L138.826 92.9068H138.861C139.224 91.9864 139.598 90.998 140 89.9353L140 89.9345L140.001 89.9317L140.003 89.9256C140.305 89.129 140.622 88.2906 140.962 87.4077H141.349L143.502 92.9068H143.539C143.96 91.662 144.545 89.8242 144.862 88.5455C144.985 88.0552 144.951 87.8794 144.456 87.8106L143.768 87.7222V87.3193H146.908V87.7222C146.062 87.863 145.938 87.9853 145.55 89.0173C144.931 90.6825 144.19 92.7124 143.414 95.0427H142.938L140.748 89.5971C140.502 90.2401 140.244 90.8885 139.98 91.5554L139.98 91.5555L139.98 91.5556L139.979 91.5556L139.979 91.5557L139.979 91.5558C139.546 92.6488 139.092 93.7916 138.632 95.0427H138.155ZM147.804 88.0903C148.969 88.23 149.004 88.2475 149.004 89.298V93.3437C149.004 94.3254 148.916 94.4127 147.698 94.5165V94.9194H151.528V94.5165C150.469 94.4127 150.381 94.3254 150.381 93.3437V88.9125C150.946 88.4572 151.652 88.0903 152.357 88.0903C153.575 88.0903 153.946 88.895 153.946 89.9117V93.3437C153.946 94.3254 153.857 94.4127 152.711 94.5165V94.9194H156.453V94.5165C155.411 94.4127 155.323 94.3254 155.323 93.3437V89.4203C155.323 89.3003 155.312 89.1887 155.299 89.0563C155.295 89.0164 155.291 88.9745 155.287 88.93C155.94 88.3698 156.628 88.0903 157.246 88.0903C158.551 88.0903 158.887 88.9649 158.887 89.9804V93.3437C158.887 94.3254 158.799 94.4127 157.634 94.5165V94.9194H161.375V94.5165C160.353 94.4127 160.264 94.3254 160.264 93.3437V89.4377C160.264 88.0542 159.469 87.1086 158.04 87.1086C157.458 87.1086 157.016 87.3019 156.487 87.5989C156.204 87.7572 155.657 88.1077 155.163 88.4746C154.845 87.6174 154.052 87.1086 153.169 87.1086C152.552 87.1086 152.111 87.3019 151.582 87.6174C151.089 87.9145 150.717 88.1601 150.381 88.3873V87.0736C149.481 87.3892 148.616 87.5989 147.804 87.7747V88.0903ZM168.929 93.4131C167.958 94.7791 166.74 95.1296 166.263 95.1296C164.023 95.1296 162.682 93.4666 162.682 91.4344C162.682 89.0878 164.34 87.1103 166.458 87.1103C167.835 87.1103 168.981 88.3704 168.981 89.5432C168.981 90.0859 168.929 90.1208 168.611 90.1918C168.364 90.2442 166.175 90.42 163.987 90.4888C163.935 93.0975 165.593 94.0082 166.864 94.0082C167.446 94.0082 167.976 93.7996 168.682 93.1685L168.929 93.4131ZM167.164 89.8054C167.411 89.8054 167.483 89.7181 167.483 89.2464C167.483 88.5453 166.917 87.7045 166 87.7045C165.152 87.7045 164.235 88.5639 164.094 89.8589L167.164 89.8054ZM173.993 87.6174C173.535 87.8981 173.148 88.1427 172.812 88.3873V87.0736C171.913 87.3892 171.047 87.5989 170.235 87.7747V88.0903C171.4 88.23 171.435 88.2475 171.435 89.298V93.3437C171.435 94.3243 171.347 94.4127 170.129 94.5165V94.9194H173.941V94.5165C172.9 94.4127 172.812 94.3243 172.812 93.3437V88.9125C173.341 88.4572 174.046 88.0903 174.735 88.0903C176.042 88.0903 176.376 88.9649 176.376 89.9804V93.3437C176.376 94.3243 176.288 94.4127 175.125 94.5165V94.9194H178.865V94.5165C177.842 94.4127 177.752 94.3243 177.752 93.3437V89.4377C177.752 88.0542 176.96 87.1086 175.512 87.1086C174.964 87.1086 174.524 87.3019 173.993 87.6174ZM123.872 93.2043C123.872 93.9753 123.977 94.0615 124.436 94.0801L125.195 94.0965V94.483C125.14 94.4957 125.047 94.5133 124.927 94.5362C124.398 94.637 123.329 94.8403 122.495 95.183V94.0615L121.083 94.815C120.572 95.0781 120.324 95.1306 120.148 95.1306C118.718 95.1306 116.742 93.8333 116.742 91.4004C116.742 89.0713 118.701 87.1101 121.507 87.1101C121.613 87.1101 122.159 87.1625 122.495 87.2837V84.5877C122.495 83.5536 122.46 83.5361 121.154 83.4487V83.0982C122.089 82.9421 123.218 82.6614 123.872 82.4867V93.2043ZM122.495 88.4763C122.107 87.8986 121.366 87.7578 120.73 87.7578C119.972 87.7578 118.295 88.248 118.295 90.9616C118.295 93.0822 119.601 94.1326 120.73 94.1326C121.366 94.1326 122.054 93.8684 122.495 93.5375V88.4763ZM183.667 94.2209C183.191 94.2209 182.537 93.9741 182.537 92.6081V87.9847H184.461C184.672 87.7925 184.726 87.5119 184.584 87.3197H182.537V85.0605H182.308L181.161 86.2169V87.3197H180.313L179.802 87.81L179.872 87.9847H181.161V93.011C181.161 94.412 181.779 95.1305 182.908 95.1305C183.031 95.1305 183.261 95.077 183.437 94.9897L184.884 94.2712L184.708 93.8868C184.373 94.079 183.983 94.2209 183.667 94.2209Z" fill="white"/>
</svg>
